<?xml version="1.0" standalone="no"?>
<!DOCTYPE svg PUBLIC "-//W3C//DTD SVG 20010904//EN"
 "http://www.w3.org/TR/2001/REC-SVG-20010904/DTD/svg10.dtd">
<svg version="1.0" xmlns="http://www.w3.org/2000/svg"
 width="124.000000pt" height="124.000000pt" viewBox="0 0 124.000000 124.000000"
 preserveAspectRatio="xMidYMid meet">
<metadata>
Created by potrace 1.11, written by Peter Selinger 2001-2013
</metadata>
<g transform="translate(0.000000,124.000000) scale(0.100000,-0.100000)"
fill="#000000" stroke="none">
<path d="M181 1187 c-23 -23 -11 -54 29 -81 l41 -27 -26 -32 c-14 -18 -34 -41
-45 -53 -13 -13 -20 -31 -18 -50 1 -20 -14 -56 -49 -116 -30 -51 -47 -91 -43
-98 4 -7 32 -20 61 -31 69 -23 76 -17 85 86 4 44 8 89 9 99 1 11 7 22 14 24
20 7 32 51 21 72 -8 15 -5 23 16 39 15 11 31 18 38 14 6 -4 78 -54 161 -112
l149 -106 276 -3 c240 -3 278 -2 289 12 7 8 10 24 7 34 -4 10 -77 68 -163 128
-86 60 -184 128 -217 151 -34 24 -74 45 -91 48 -65 11 -533 13 -544 2z"/>
<path d="M305 852 c-22 -48 -40 -94 -40 -102 0 -8 -23 -37 -51 -65 -67 -67
-88 -99 -114 -175 -18 -54 -21 -78 -16 -144 11 -145 88 -263 212 -327 66 -33
71 -34 189 -34 113 0 123 2 175 29 138 73 224 221 216 374 -4 68 -10 104 -21
121 -3 6 1 14 10 18 10 6 22 45 34 108 11 55 18 101 17 102 -1 1 -58 3 -126 4
-69 1 -141 4 -160 7 -20 3 -83 38 -157 88 -67 46 -124 84 -125 84 -2 0 -21
-40 -43 -88z m89 -272 c4 0 21 -10 40 -22 l33 -22 -42 -32 c-24 -17 -52 -37
-64 -43 -20 -11 -24 -6 -21 32 0 1 -7 26 -16 56 -19 64 -7 81 37 50 15 -10 30
-19 33 -19z m229 -40 c5 -4 5 -26 0 -49 l-8 -40 -62 42 c-57 38 -61 43 -45 55
18 14 99 8 115 -8z m-264 -197 l19 -63 -42 7 c-22 3 -54 7 -71 7 -42 1 -52 22
-23 45 13 10 38 34 57 52 19 18 36 29 38 23 1 -5 11 -37 22 -71z m339 15 c23
-21 39 -43 37 -50 -3 -7 -24 -14 -48 -15 -23 -1 -56 -5 -74 -8 l-31 -6 13 43
c27 88 34 101 48 86 8 -7 32 -30 55 -50z m-148 -105 c0 -2 -11 -26 -25 -53
-14 -27 -25 -55 -25 -63 0 -7 -9 -13 -20 -13 -11 0 -20 6 -20 12 0 7 -11 35
-25 62 -14 28 -25 52 -25 54 0 2 32 4 70 5 39 0 70 -2 70 -4z"/>
</g>
</svg>
