<svg xmlns="http://www.w3.org/2000/svg" xmlns:xlink="http://www.w3.org/1999/xlink" xmlns:fi="http://pattern.flaticon.com/" x="0" y="0" width="1440" height="720" viewBox="0 0 1440 720"><rect x="0px" y="0px" width="100%" height="100%" opacity="1" fill="#f9f9f9"/><defs><g transform="matrix(0.4342358708381653 0 0 0.4342358708381653 160.0025114119053 119.0237586212005)" id="L1_0"><path d="m53.314,27.916c-0.437-0.427-0.949-0.922-1.484-1.371-0.025-0.022-0.053-0.041-0.078-0.064-0.002-0.002-0.003-0.004-0.005-0.005-0.001-0.001-0.002-0.001-0.003-0.002-5.083-4.473-11.344-7.102-18.117-7.61-0.023-0.003-0.046-0.006-0.069-0.008-0.013-0.001-0.027-0.003-0.04-0.004-9.055-0.675-17.928,2.621-24.362,9.045-0.142,0.142-0.281,0.285-0.413,0.445-6.136,6.344-9.293,15.048-8.664,23.89 0.002,0.026 0.007,0.051 0.008,0.077 0.001,0.006 0.001,0.012 0.002,0.019 0.497,6.817 3.139,13.12 7.616,18.191 0.484,0.591 0.989,1.11 1.418,1.539 5.303,5.313 12.331,8.762 19.778,9.281 0.037,0.003 0.074,0.239 0.111,0.239 0,0 0.001,0 0.001,0 0.001,0 0.002,0 0.002,0 0.743,0 1.485-0.151 2.227-0.151 7.783,0 15.353-3.044 21.008-8.277 0.38-0.309 0.723-0.71 1.024-1.011 6.426-6.416 9.731-15.32 9.066-24.378-0.52-7.469-3.721-14.531-9.026-19.845zm6.221,18.357c-7.755-0.22-15.34,2.472-21.211,7.526-1.39-1.522-2.816-3.044-4.271-4.557 6.067-6.175 11.792-12.722 17.055-19.504 0.123,0.106 0.238,0.21 0.339,0.308 4.385,4.395 6.923,10.107 8.088,16.227zm-50.433,21.21c-3.192-3.998-5.191-8.71-5.846-13.793 0.181,0.003 0.363,0.02 0.544,0.02 8.075,0 15.843-3.13 21.693-8.788 1.339,1.288 2.491,2.414 3.55,3.474 0.279,0.275 0.557,0.551 0.831,0.829-6.586,6.545-13.568,12.676-20.772,18.258zm18.445-24.747c4.91-5.752 7.56-13.146 7.432-20.711 5.067,0.651 9.8,2.631 13.811,5.81-5.191,6.695-10.839,13.157-16.825,19.253-0.271-0.274-0.536-0.553-0.808-0.821-1.074-1.073-2.246-2.219-3.61-3.531zm4.426-20.956c0.189,6.877-2.165,13.618-6.613,18.898-4.331-4.046-8.773-7.887-13.247-11.456 5.219-4.802 12.024-7.456 19.083-7.456 0.252,0 0.515,0.007 0.777,0.014zm-21.955,9.605c4.486,3.569 8.943,7.419 13.288,11.478-5.449,5.229-12.749,8.042-20.293,7.832-0.172-7.098 2.334-14.005 7.005-19.31zm1.05,38.369c7.24-5.62 14.257-11.787 20.885-18.371 1.421,1.479 2.827,2.969 4.186,4.457-5.719,5.952-8.829,13.89-8.697,22.096-6.105-0.799-11.805-3.599-16.197-8-0.055-0.055-0.119-0.123-0.177-0.182zm19.382,8.423c-0.197-7.438 2.565-14.648 7.701-20.084 3.929,4.42 7.657,8.971 11.114,13.569-5.23,4.379-11.954,6.71-18.815,6.515zm21.135-8.419c-3.503-4.654-7.278-9.259-11.255-13.73 5.389-4.618 12.369-7.035 19.478-6.74-0.27,7.626-2.862,15.006-8.223,20.47z" fill="#333333"/><path d="m48.825,15.778c0.384,0 0.768-0.146 1.061-0.439l6.79-6.79c0.586-0.586 0.586-1.536 0-2.121-0.586-0.586-1.535-0.586-2.121,0l-6.79,6.79c-0.586,0.586-0.586,1.536 0,2.121 0.293,0.292 0.677,0.439 1.06,0.439z" fill="#333333"/><path d="m55.384,22.948c0.293,0.293 0.677,0.439 1.061,0.439s0.768-0.146 1.061-0.439l7.66-7.66c0.586-0.585 0.586-1.536 0-2.121-0.586-0.586-1.535-0.586-2.121,0l-7.66,7.66c-0.586,0.586-0.586,1.536-0.001,2.121z" fill="#333333"/><path d="m67.795,12.038c0.383,0 0.766-0.146 1.059-0.438l3.31-3.3c0.586-0.585 0.588-1.535 0.003-2.122-0.586-0.587-1.535-0.588-2.122-0.003l-3.31,3.3c-0.586,0.585-0.588,1.535-0.003,2.122 0.294,0.294 0.678,0.441 1.063,0.441z" fill="#333333"/><path d="m86.876,6.687c-0.586-0.586-1.535-0.586-2.121,0l-21.76,21.76c-0.586,0.586-0.586,1.536 0,2.121 0.293,0.293 0.677,0.439 1.061,0.439 0.384,0 0.768-0.146 1.061-0.439l21.76-21.76c0.585-0.586 0.585-1.536-0.001-2.121z" fill="#333333"/></g><g transform="matrix(0.06972633719481244 -0.012677516224276451 0.012677516224276451 0.06972633719481244 116.26845831719294 104.3678336006431)" id="L1_2"><circle cx="272" cy="34" r="33" fill="#333333"/><path d="M409.972,368.922c18.723,0,33.891,15.173,33.891,33.892c0,18.723-15.168,33.902-33.891,33.902    s-33.902-15.18-33.902-33.902C376.07,384.095,391.25,368.922,409.972,368.922z" fill="#333333"/><path d="M170.581,259.969L75.657,207.64c-12.704-6.995-28.685-2.38-35.694,10.331c-7.005,12.704-2.38,28.689,10.329,35.694    l116.051,63.975c11.94,6.572,26.942,2.929,34.536-8.416l20.301-30.396l35.557,47.24l55.65,134.842    c4.184,10.135,13.975,16.262,24.31,16.262c3.334,0,6.732-0.637,10.011-1.991c13.408-5.539,19.805-20.899,14.27-34.316    l-56.934-137.955c-0.85-2.056-1.959-3.995-3.302-5.783l-33.938-45.079l20.117-118.57l87.763,40.681    c2.769,1.281,5.683,1.886,8.556,1.886c7.727,0,15.12-4.404,18.57-11.878c4.729-10.247,0.261-22.39-9.998-27.125l-78.137-36.062    L291.95,90.755c-1.996-0.936-4.063-1.431-6.144-1.687l-87.929-28.607c-1.701-0.896-3.499-1.641-5.477-2.042l-2.021-0.393    l-1.591-0.517l-0.006,0.196L114.789,42.97L66.488,4.463c-8.816-7.039-21.684-5.598-28.719,3.242    c-7.041,8.824-5.588,21.684,3.236,28.717l52.189,41.607c2.553,2.034,5.55,3.431,8.748,4.065l82.475,16.427    c1.108,0.218,2.204,0.286,3.296,0.328l-3.657,140.953L170.581,259.969z" fill="#333333"/></g><g transform="matrix(0.09368927776813507 0 0 0.09368927776813507 269.69300588965416 300.7325052345798)" id="L1_3"><path d="M299.113,157.75c7.25,15.198,24.838,22.842,41.036,17.049c17.296-6.179,26.313-25.207,20.126-42.502    c-0.506-1.411-1.227-2.675-1.896-3.978L299.113,157.75z" fill="#333333"/><path d="M439.746,40.167c18.358,0,33.246,14.888,33.246,33.253c0,18.364-14.888,33.258-33.246,33.258    c-18.37,0-33.258-14.894-33.258-33.258C406.488,55.054,421.376,40.167,439.746,40.167z" fill="#333333"/><path d="M26.136,370.021c0.848-0.309,1.695-0.661,2.519-1.105l155.747-81.615l8.64,16.851c-1.17,0.697-2.292,1.52-3.328,2.485    l-51.161,47.804L37.038,398.463c-9.906,4.292-14.467,15.809-10.167,25.728c4.125,9.506,14.894,14.086,24.509,10.644    c0.411-0.148,0.818-0.309,1.229-0.485l104.61-45.348c2.06-0.886,3.933-2.12,5.574-3.654l48.604-45.408l0.1,0.208l1.663-1.848    l3.266-3.054c1.401-1.303,2.473-2.805,3.4-4.359l103.251-114.932l75.492-16.548c0.641-0.143,1.286-0.323,1.915-0.553    c1.899-0.681,3.671-1.731,5.182-3.092l65.281-58.648c6.432-5.781,6.961-15.677,1.187-22.105    c-5.764-6.434-15.67-6.965-22.102-1.188l-62.199,55.888l-69.745,15.302l-33.334-20.125l-3.979-2.398l-3.995-2.413l19.788-9.82    l57.459-28.527l37.51-18.621c7.758-3.857,10.904-13.245,7.061-20.987c-2.736-5.502-8.271-8.69-14.033-8.69    c-2.341,0-4.709,0.525-6.949,1.639l-129.132,64.106c-1.109,0.553-2.132,1.227-3.041,1.99l-0.148-0.088l-0.581,0.824    c-0.605,0.583-1.227,1.154-1.735,1.813c-0.798,1.054-1.419,2.224-1.93,3.424l-4.995,7.146l-3.334,4.771l-64.758,92.682    L10.489,334.256c-9.568,5.009-13.267,16.843-8.25,26.421C6.832,369.409,17.101,373.248,26.136,370.021z" fill="#333333"/></g><g transform="matrix(0.07366133481264114 0 0 0.07366133481264114 283.14269828796387 159.14269828796387)" id="L1_4"><path d="M455.07,139.93c-1.86-1.86-4.44-2.93-7.07-2.93s-5.21,1.07-7.07,2.93c-1.86,1.86-2.93,4.44-2.93,7.07s1.07,5.21,2.93,7.07    S445.37,157,448,157s5.21-1.07,7.07-2.93c1.86-1.86,2.93-4.44,2.93-7.07S456.93,141.79,455.07,139.93z" fill="#333333"/><path d="M448,114c5.523,0,10-4.477,10-10V10c0-5.523-4.477-10-10-10H64c-5.523,0-10,4.477-10,10v492c0,5.523,4.477,10,10,10h384    c5.523,0,10-4.477,10-10V189.333c0-5.523-4.477-10-10-10s-10,4.477-10,10v56.793H332.024    c-4.805-37.616-36.997-66.793-75.897-66.793c-38.9,0-71.092,29.178-75.897,66.793H74V20h47v77c0,5.523,4.477,10,10,10h66.163    c11.616,21.564,34.077,35.168,58.964,35.168c24.888,0,47.349-13.604,58.964-35.168H381c5.523,0,10-4.477,10-10V20h47v84    C438,109.523,442.477,114,448,114z M308.5,491.746h-105v-23.5h105V491.746z M371,491.746h-42.5v-33.5c0-5.523-4.477-10-10-10h-125    c-5.523,0-10,4.477-10,10v33.5H141v-67h167.78c0.007,0,0.013,0.001,0.02,0.001c0.01,0,0.02-0.001,0.03-0.001H371V491.746z     M221.52,404.746c8.731-9.507,21.164-15.168,34.607-15.168c13.444,0,25.876,5.661,34.607,15.168H221.52z M256.127,199.333    c27.851,0,51.047,20.248,55.681,46.793H200.445C205.08,219.582,228.276,199.333,256.127,199.333z M311.717,266.127    c-4.84,26.295-27.917,46.286-55.591,46.286s-50.751-19.991-55.591-46.286H311.717z M180.294,266.127    c5.029,37.37,37.107,66.286,75.833,66.286s70.804-28.915,75.833-66.286H438V492h-47v-77.254c0-5.523-4.477-10-10-10h-65.909    c-11.615-21.564-34.077-35.168-58.964-35.168c-24.887,0-47.348,13.604-58.964,35.168H131c-5.523,0-10,4.477-10,10V492H74V266.127    H180.294z M256.127,122.168c-13.443,0-25.876-5.661-34.607-15.168h69.214C282.003,116.507,269.571,122.168,256.127,122.168z     M371,87h-62.232c-0.02,0-0.041,0-0.061,0H141V20h42.5v33.754c0,5.523,4.477,10,10,10h30.167c5.523,0,10-4.477,10-10    c0-5.523-4.477-10-10-10H203.5v-23.5h105v23.5h-20.167c-5.523,0-10,4.477-10,10c0,5.523,4.477,10,10,10H318.5    c5.523,0,10-4.477,10-10V20H371V87z" fill="#333333"/><path d="M263.07,46.68c-1.86-1.86-4.44-2.93-7.07-2.93s-5.21,1.07-7.07,2.93S246,51.12,246,53.75c0,2.64,1.07,5.21,2.93,7.08    c1.86,1.86,4.44,2.92,7.07,2.92s5.21-1.06,7.07-2.92c1.86-1.87,2.93-4.44,2.93-7.08C266,51.12,264.93,48.54,263.07,46.68z" fill="#333333"/></g><g transform="matrix(0.07737243920564651 0 0 0.07737243920564651 -2.8075199127197266 267.19255420605225)" id="L1_5"><path d="M459.935,0.218H52.064C23.356,0.218,0,23.573,0,52.282v277.657c0,5.518,4.474,9.992,9.992,9.992H50.35    c0.01,0,0.021,0.002,0.032,0.002c0.01,0,0.02-0.002,0.029-0.002h80.661c5.517,0,9.992-4.473,9.992-9.992s-4.474-9.992-9.992-9.992    H67.16l51.914-95.919h4.018c0.007,0,0.014,0.001,0.021,0.001c0.007,0,0.014-0.001,0.021-0.001h94.38    c0.007,0,0.014,0.001,0.021,0.001c0.007,0,0.014-0.001,0.021-0.001h76.892c0.007,0,0.014,0.001,0.021,0.001    c0.007,0,0.014-0.001,0.021-0.001h94.38c0.007,0,0.014,0.001,0.021,0.001c0.007,0,0.014-0.001,0.021-0.001h4.018l51.914,95.919    h-63.912c-5.517,0-9.992,4.473-9.992,9.992s4.474,9.992,9.992,9.992h80.661c0.01,0,0.02,0.002,0.029,0.002    c0.011,0,0.021-0.002,0.032-0.002h40.359c0.693,0,1.054-0.022,1.156-0.072c4.973-0.574,8.836-4.793,8.836-9.92V52.282    C512,23.573,488.644,0.218,459.935,0.218z M103.13,132.335c0,0.003,0,0.007,0,0.01v0.297c0,0.003,0,0.007,0,0.01v78.853    l-42.747,78.98V60.599h42.747V132.335z M123.113,199.907v-43.137l21.569,21.569L123.113,199.907z M162.946,96.646l31.713,31.714    l-35.848,35.848l-31.713-31.714L162.946,96.646z M155.158,60.599h15.572l-7.785,7.786L155.158,60.599z M256,95.28l33.08,33.08    L256,161.44l-33.08-33.08L256,95.28z M249.58,60.6h12.84L256,67.019L249.58,60.6z M349.053,96.646l35.848,35.848l-31.713,31.714    L317.34,128.36L349.053,96.646z M341.269,60.599h15.572l-7.786,7.786L341.269,60.599z M303.21,114.229l-33.08-33.08l20.551-20.551    h22.326l21.916,21.916L303.21,114.229z M208.79,114.229l-31.713-31.714l21.916-21.916h22.326l20.551,20.551L208.79,114.229z     M123.113,108.217V60.599h3.786l21.916,21.916L123.113,108.217z M147.235,204.045l11.576-11.576l11.576,11.576H147.235z     M213.395,204.044h-14.746v0.001l-25.707-25.707l35.848-35.848l33.08,33.08L213.395,204.044z M241.656,204.045L256,189.701    l14.344,14.344H241.656z M313.35,204.046h-14.746v-0.001l-28.474-28.474l33.08-33.08l35.848,35.848L313.35,204.046z     M341.612,204.045l11.576-11.576l11.576,11.576H341.612z M388.887,199.907l-21.569-21.569l21.569-21.569V199.907z     M388.887,108.218l-25.702-25.702L385.102,60.6h3.786V108.218z M451.617,290.486l-42.747-78.98v-78.853c0-0.003,0-0.007,0-0.01    v-0.297c0-0.003,0-0.007,0-0.01V60.599h42.747V290.486z M492.016,319.947H471.6V50.607c0-5.518-4.474-9.992-9.992-9.992H50.391    c-5.517,0-9.992,4.473-9.992,9.992v269.339H19.983V52.282c0-17.69,14.391-32.081,32.081-32.081h407.871    c17.69,0,32.081,14.392,32.081,32.081V319.947z" fill="#333333"/><path d="M502.008,491.801H316.273c22.554-17.597,37.084-45.022,37.084-75.779c0-6.038-0.566-11.946-1.637-17.678    c-0.02-0.11-0.039-0.219-0.063-0.327c-8.453-44.399-47.554-78.07-94.377-78.07c-46.828,0-85.932,33.678-94.379,78.085    c-0.021,0.095-0.037,0.191-0.055,0.288c-1.073,5.74-1.642,11.656-1.642,17.703c0,30.757,14.53,58.182,37.084,75.779H9.992    c-5.517,0-9.992,4.473-9.992,9.992c0,5.518,4.474,9.992,9.992,9.992h492.017c5.517,0,9.992-4.473,9.992-9.992    C512,496.275,507.526,491.801,502.008,491.801z M267.27,340.606c28.486,3.755,52.056,23.307,61.571,49.556H295.86l-28.59-20.771    V340.606z M283.988,406.238l-10.201,31.397h-33.014l-10.201-31.397l26.708-19.405L283.988,406.238z M247.288,340.606v28.785    L218.7,390.162h-32.982C195.234,363.914,218.804,344.361,247.288,340.606z M181.187,416.022c0-1.979,0.1-3.935,0.25-5.877h29.393    l11.95,36.78l-18.303,23.81C190.134,456.888,181.187,437.486,181.187,416.022z M264.007,491.8h-13.456v0.001    c-10.806-0.952-20.97-4.163-30.014-9.172l19.226-25.011h35.919l18.497,24.919C285.096,487.597,274.877,490.843,264.007,491.8z     M292.04,446.127l11.691-35.981h29.392c0.149,1.942,0.25,3.898,0.25,5.877c-0.001,21.399-8.892,40.75-23.159,54.588    L292.04,446.127z" fill="#333333"/><path d="M350.66,322.874c-1.858-1.858-4.436-2.928-7.064-2.928c-2.638,0-5.206,1.069-7.064,2.928    c-1.868,1.858-2.928,4.436-2.928,7.064c0,2.628,1.059,5.206,2.928,7.064c1.858,1.858,4.427,2.928,7.064,2.928    c2.628,0,5.196-1.07,7.064-2.928c1.857-1.858,2.928-4.436,2.928-7.064C353.587,327.31,352.518,324.733,350.66,322.874z" fill="#333333"/><path d="M175.467,322.874c-1.857-1.858-4.426-2.927-7.063-2.927c-2.628,0-5.206,1.069-7.064,2.927    c-1.858,1.858-2.927,4.436-2.927,7.064c0,2.628,1.068,5.206,2.927,7.064c1.859,1.858,4.436,2.927,7.064,2.927    c2.638,0,5.206-1.069,7.063-2.927c1.868-1.858,2.929-4.436,2.929-7.064C178.396,327.311,177.336,324.733,175.467,322.874z" fill="#333333"/></g><g transform="matrix(0.08843149244785309 0 0 0.08843149244785309 108.36153793334961 -11.63846206665039)" id="L1_6"><path d="M502,0H10C4.478,0,0,4.477,0,10v492c0,5.522,4.478,10,10,10h492c5.522,0,10-4.478,10-10V10C512,4.477,507.522,0,502,0z     M229.951,21.115c4.154,8.636,12.992,14.611,23.199,14.611c10.206,0,19.044-5.975,23.198-14.611    c8.752,2.684,15.517,9.957,17.475,18.999l-15.859,9.246C274.89,51.153,273,54.443,273,58v38h-39.702V58    c0-3.557-1.89-6.847-4.964-8.639l-15.858-9.246C214.434,31.073,221.199,23.8,229.951,21.115z M275.98,447.787v38h-39.702v-38    c-0.002-3.558-1.891-6.848-4.965-8.639l-15.858-9.246c1.958-9.042,8.723-16.315,17.475-19    c4.154,8.637,12.992,14.611,23.199,14.611c10.207,0,19.045-5.975,23.199-14.61c8.751,2.685,15.516,9.957,17.474,18.999    l-15.858,9.246C277.87,440.939,275.98,444.229,275.98,447.787z M492,492H391v-77.254c0-5.522-4.478-10-10-10h-50.612    c-5.522,0-10,4.478-10,10c0,5.522,4.478,10,10,10H371v66.999h-75.021v-38.213l16.436-9.582c3.074-1.791,4.964-5.081,4.964-8.639    c0-25.103-20.422-45.524-45.523-45.524c-5.522,0-10,4.478-10,10c0,3.157-2.569,5.727-5.727,5.727    c-3.158,0-5.727-2.569-5.727-5.727c0-5.522-4.478-10-10-10c-25.103,0-45.524,20.422-45.524,45.524c0,3.558,1.89,6.848,4.964,8.639    l16.436,9.582v38.213H141v-66.999h27.965c5.522,0,10-4.478,10-10c0-5.522-4.478-10-10-10H131c-5.522,0-10,4.478-10,10V492H60    v-42.7c0-5.522-4.478-10-10-10s-10,4.478-10,10V492H20V266.127h51.045c-21.679,3.474-38.296,22.302-38.296,44.944    c0,3.558,1.891,6.848,4.964,8.64l16.437,9.581v42.255c0,5.522,4.478,10,10,10h59.702c5.522,0,10-4.478,10-10v-42.255l16.436-9.582    c3.074-1.791,4.964-5.081,4.964-8.64c-0.001-22.642-16.619-41.469-38.296-44.943h116.09    c-21.679,3.474-38.296,22.302-38.296,44.944c0,3.558,1.891,6.848,4.964,8.64l16.437,9.581v42.255c0,5.522,4.478,10,10,10h59.702    c5.522,0,10-4.478,10-10v-42.255l16.436-9.582c3.074-1.791,4.964-5.081,4.964-8.64c-0.001-22.642-16.619-41.469-38.296-44.943    h116.24c-21.679,3.474-38.296,22.302-38.296,44.944c0,3.558,1.89,6.848,4.964,8.639l16.436,9.582v42.255c0,5.522,4.478,10,10,10    H448c5.522,0,10-4.478,10-10v-42.255l16.436-9.582c3.074-1.791,4.964-5.081,4.964-8.639c0-22.642-16.617-41.47-38.295-44.944H492    V492z M94.001,301.273c10.207,0,19.045-5.975,23.199-14.61c8.751,2.685,15.516,9.957,17.475,18.999l-15.858,9.246    c-3.074,1.791-4.964,5.081-4.964,8.639v38H74.149v-38c0-3.558-1.89-6.848-4.963-8.64l-15.859-9.245    c1.958-9.043,8.723-16.315,17.475-19C74.956,295.299,83.794,301.273,94.001,301.273z M81.603,266.127h24.793    c-3.882,1.373-6.669,5.067-6.669,9.42c0,3.157-2.569,5.727-5.727,5.727s-5.727-2.569-5.727-5.727    C88.273,271.194,85.486,267.5,81.603,266.127z M256.001,301.273c10.207,0,19.045-5.975,23.199-14.61    c8.751,2.685,15.516,9.957,17.475,18.999l-15.858,9.246c-3.074,1.791-4.964,5.081-4.964,8.639v38h-39.702v-38    c-0.002-3.558-1.892-6.848-4.965-8.64l-15.859-9.245c1.958-9.043,8.723-16.315,17.475-19    C236.956,295.299,245.794,301.273,256.001,301.273z M243.603,266.127h24.793c-3.882,1.373-6.669,5.067-6.669,9.42    c0,3.157-2.569,5.727-5.727,5.727s-5.727-2.569-5.727-5.727C250.273,271.194,247.486,267.5,243.603,266.127z M418.15,301.273    c10.206,0,19.044-5.975,23.198-14.611c8.752,2.685,15.517,9.958,17.475,19l-15.858,9.246c-3.074,1.791-4.964,5.081-4.964,8.639v38    h-39.702v-38c-0.001-3.558-1.891-6.848-4.965-8.639l-15.858-9.246c1.958-9.042,8.723-16.315,17.475-19    C399.105,295.299,407.943,301.273,418.15,301.273z M405.752,266.127h24.793c-3.882,1.373-6.67,5.067-6.67,9.42    c0,3.157-2.568,5.727-5.726,5.727s-5.727-2.569-5.727-5.727C412.422,271.194,409.635,267.5,405.752,266.127z M492,246.127H20V20    h101v77c0,5.523,4.478,10,10,10h52.001c5.522,0,10-4.477,10-10s-4.478-10-10-10H141V20h58.747    c-4.951,7.285-7.849,16.072-7.849,25.524c0,3.558,1.89,6.847,4.964,8.639l16.436,9.582V106c0,5.523,4.478,10,10,10H283    c5.522,0,10-4.477,10-10V63.746l16.437-9.582c3.073-1.792,4.963-5.082,4.963-8.639c0-9.452-2.897-18.239-7.849-25.524H371v67    h-37.333c-5.522,0-10,4.477-10,10s4.478,10,10,10H381c5.522,0,10-4.477,10-10V20h61.016v48.68c0,5.523,4.478,10,10,10    c5.522,0,10-4.477,10-10V20H492V246.127z" fill="#333333"/><path d="M184.116,113.291c-5.522,0-10,4.477-10,10c0,3.158-2.569,5.727-5.727,5.727s-5.727-2.569-5.727-5.727    c0-5.523-4.478-10-10-10c-25.103,0-45.524,20.422-45.524,45.524c-0.001,3.558,1.888,6.847,4.963,8.639l16.437,9.583v42.254    c0,5.523,4.478,10,10,10h59.702c5.522,0,10-4.477,10-10v-42.255l16.437-9.582c3.073-1.792,4.963-5.082,4.963-8.64    C229.639,133.712,209.216,113.291,184.116,113.291z M193.202,162.653c-3.073,1.792-4.963,5.082-4.963,8.639v38h-39.702v-38    c0-3.558-1.89-6.847-4.964-8.639l-15.859-9.246c1.958-9.043,8.723-16.316,17.474-19c4.154,8.636,12.992,14.611,23.199,14.611    c10.207,0,19.045-5.975,23.199-14.611c8.751,2.685,15.516,9.958,17.475,19L193.202,162.653z" fill="#333333"/><path d="M346.116,113.291c-5.522,0-10,4.477-10,10c0,3.158-2.569,5.727-5.727,5.727c-3.158,0-5.727-2.569-5.727-5.727    c0-5.523-4.478-10-10-10c-25.103,0-45.524,20.422-45.524,45.524c-0.001,3.558,1.888,6.847,4.963,8.639l16.437,9.583v42.254    c0,5.523,4.478,10,10,10h59.702c5.522,0,10-4.477,10-10v-42.255l16.437-9.582c3.073-1.792,4.963-5.082,4.963-8.64    C391.639,133.712,371.216,113.291,346.116,113.291z M355.202,162.653c-3.073,1.792-4.963,5.082-4.963,8.639v38h-39.702v-38    c0-3.558-1.89-6.847-4.964-8.639l-15.859-9.246c1.958-9.043,8.723-16.316,17.474-19c4.154,8.636,12.992,14.611,23.199,14.611    c10.207,0,19.045-5.975,23.199-14.611c8.751,2.685,15.516,9.958,17.475,19L355.202,162.653z" fill="#333333"/><path d="M462.016,99.638c-5.522,0-10,4.477-10,10v0.147c0,5.523,4.477,10,10,10c5.522,0,10-4.477,10-10v-0.147    C472.016,104.115,467.538,99.638,462.016,99.638z" fill="#333333"/><path d="M50,398.195c-5.522,0-10,4.478-10,10v0.147c0,5.522,4.478,10,10,10s10-4.478,10-10v-0.147    C60,402.673,55.522,398.195,50,398.195z" fill="#333333"/></g><g transform="matrix(0.07187557965517044 0 0 0.07187557965517044 229.60209486037672 107.59985160827637)" id="L1_7"><path d="M506.426,404.966L426.058,226.33c-2.654-5.898-5.552-11.668-8.664-17.318c-0.031-0.059-0.064-0.117-0.096-0.176    c-11.015-19.963-24.845-38.337-41.298-54.79l-14.015-14.014c-3.906-3.905-10.236-3.905-14.143,0l-18.14,18.14    c-8.307,8.307-21.824,8.309-30.133,0.004l-56.599-56.575c-6.613-6.612-10.966-15.068-12.384-23.651V61.466l0.391-7.254    c0.19-3.529,0.024-7.06-0.442-10.558c-0.001-0.014-0.004-0.027-0.006-0.04c-1.773-13.23-8.104-25.957-18.174-36.028    c-4.468-4.467-10.275-7.145-16.352-7.538c-6.463-0.415-12.711,1.873-17.125,6.286l-71.094,71.095    c-0.002,0.002-0.003,0.003-0.005,0.005l-30.25,30.25c-18.321,18.322-18.62,48.497-1.959,70.828l-10.095,10.095    c-11.696,11.697-11.696,30.729,0,42.427l2.211,2.211c5.849,5.848,13.531,8.772,21.213,8.772c7.683,0,15.365-2.924,21.214-8.772    l9.616-9.616l12.241,12.241c1.718,1.717,4.002,2.751,6.426,2.908c13.536,0.876,27.205,7.285,37.503,17.582l29.345,29.344    c4.488,4.489,7.279,10.403,7.656,16.224c0.693,10.715,5.459,21,13.419,28.96l26.649,26.649l-9.282,9.282    c-11.696,11.697-11.696,30.729-0.001,42.426l2.21,2.21c0.001,0,0.001,0,0.001,0c5.85,5.85,13.53,8.773,21.214,8.773    c7.681,0,15.365-2.925,21.213-8.772l9.282-9.281l46.142,46.142l-9.282,9.281c-11.696,11.697-11.696,30.729,0,42.427l2.211,2.211    c5.849,5.848,13.531,8.772,21.213,8.772c7.683,0,15.365-2.924,21.214-8.773l9.289-9.289    c10.868,10.712,24.798,17.128,39.289,18.066c1.238,0.08,2.467,0.12,3.687,0.12c13.694,0,26.192-5.017,35.507-14.331l30.25-30.25    C512.629,451.043,516.281,426.87,506.426,404.966z M452.214,333.215h-46.388l-10.709-23.126h46.693L452.214,333.215z     M407.818,234.535l5.529,12.289h-48.234l-10.709-23.126h48.163C404.41,227.26,406.169,230.869,407.818,234.535z M95.97,219.103    c-3.898,3.898-10.243,3.899-14.142,0l-2.211-2.211c-3.899-3.899-3.899-10.243,0-14.142l9.281-9.282l16.354,16.353L95.97,219.103z     M274.18,397.312c-3.897,3.898-10.242,3.9-14.142,0l-2.21-2.211c-3.899-3.899-3.899-10.243,0-14.142l9.281-9.282l10.34,10.34    l6.013,6.014L274.18,397.312z M364.959,488.092c-3.899,3.9-10.243,3.899-14.142,0l-2.211-2.211    c-3.899-3.899-3.899-10.243,0-14.142l9.282-9.281l16.353,16.353L364.959,488.092z M452.73,482.657    c-6.018,6.017-14.45,8.997-23.76,8.396c-9.792-0.634-19.305-5.103-26.785-12.583l-97.505-97.505    c-0.002-0.002-0.003-0.004-0.005-0.005l-30.495-30.495c-0.002-0.002-0.003-0.003-0.005-0.005l-33.715-33.715    c-4.458-4.458-7.229-10.33-7.603-16.11c-0.697-10.758-5.482-21.083-13.473-29.075l-29.345-29.344    c-12.919-12.918-29.298-21.01-46.482-23.043l-47.762-47.762c-14.808-14.808-16.658-37.052-4.125-49.584l2.426-2.426    c1.571,12.828,7.541,25.636,17.807,35.902l50.316,50.316c1.718,1.717,4.002,2.751,6.426,2.908    c13.536,0.876,27.205,7.285,37.503,17.582l29.345,29.345c4.488,4.488,7.279,10.402,7.656,16.224    c0.693,10.714,5.459,20.999,13.419,28.959l161.725,161.726c10.479,10.478,23.57,16.536,36.662,18.069L452.73,482.657z     M482.982,452.404c-0.001,0.001-0.002,0.002-0.003,0.002l-0.008,0.008c-12.782,12.771-35.451,10.891-50.536-4.195L270.711,286.495    c-4.458-4.458-7.229-10.329-7.603-16.109c-0.697-10.758-5.482-21.083-13.473-29.074l-29.345-29.345    c-12.919-12.918-29.298-21.01-46.482-23.043l-47.763-47.762c-14.808-14.808-16.658-37.052-4.125-49.584l71.1-71.1    c0.473-0.474,1.26-0.498,1.69-0.471c1.209,0.078,2.485,0.706,3.501,1.722c6.655,6.656,11.011,15.188,12.374,23.829v15.378    l-0.434,8.052c-0.189,3.516-0.027,7.034,0.434,10.52V144c0,5.523,4.478,10,10,10c5.522,0,10-4.477,10-10v-26.499l54.846,54.821    c16.108,16.099,42.313,16.094,58.414-0.008l11.068-11.069l6.943,6.943c10.956,10.956,20.649,22.83,29.003,35.509h-52.107    c-3.412,0-6.59,1.74-8.427,4.616c-1.837,2.876-2.081,6.49-0.647,9.586l19.97,43.126c1.637,3.535,5.178,5.798,9.074,5.798h63.622    l10.467,23.265h-53.346c-3.412,0-6.59,1.74-8.427,4.616c-1.837,2.876-2.081,6.49-0.647,9.586l19.971,43.126    c1.637,3.535,5.179,5.798,9.074,5.798h61.776l26.975,59.957C494.601,427.427,492.557,442.826,482.982,452.404z" fill="#333333"/><path d="M281.873,457.668c-3.905-3.906-10.235-3.906-14.143-0.001C245.59,479.807,216.155,492,184.845,492H73.319    c-29.346,0-53.221-23.875-53.221-53.221v-26.321c0-15.535,6.05-30.141,17.035-41.126l8.199-8.199    c33.436-33.436,77.892-51.85,125.178-51.85h12.482c5.522,0,10-4.477,10-10s-4.478-10-10-10h-12.481    c-26.006,0-51.374,5.046-75.399,14.998c-24.026,9.952-45.532,24.321-63.921,42.71l-8.199,8.199    C8.228,371.953,0.099,391.581,0.099,412.458v26.321C0.099,479.153,32.946,512,73.32,512h111.526    c36.651,0,71.109-14.273,97.027-40.19C285.778,467.905,285.778,461.573,281.873,457.668z" fill="#333333"/><path d="M147.874,323.072c-16.542,0-30,13.458-30,30s13.458,30,30,30c16.542,0,30-13.458,30-30S164.416,323.072,147.874,323.072z     M147.874,363.072c-5.514,0-10-4.486-10-10c0-5.514,4.486-10,10-10c5.514,0,10,4.486,10,10    C157.874,358.586,153.388,363.072,147.874,363.072z" fill="#333333"/><path d="M83.874,411.937c-16.542,0-30,13.458-30,30s13.458,30,30,30s30-13.458,30-30S100.416,411.937,83.874,411.937z     M83.874,451.937c-5.514,0-10-4.486-10-10c0-5.514,4.486-10,10-10c5.514,0,10,4.486,10,10    C93.874,447.451,89.388,451.937,83.874,451.937z" fill="#333333"/><path d="M187.326,426.544c-16.542,0-30,13.458-30,30s13.458,30,30,30s30-13.458,30-30S203.868,426.544,187.326,426.544z     M187.326,466.544c-5.514,0-10-4.486-10-10c0-5.514,4.486-10,10-10s10,4.486,10,10    C197.326,462.058,192.84,466.544,187.326,466.544z" fill="#333333"/><path d="M456.211,200.121c-5.321-1.458-10.827,1.675-12.287,7.001c-1.46,5.326,1.675,10.829,7.002,12.289    c24.109,6.607,40.948,28.706,40.948,53.741c0,10.47-2.918,20.67-8.438,29.496c-2.929,4.683-1.507,10.853,3.176,13.781    c1.649,1.031,3.481,1.523,5.293,1.523c3.332,0,6.591-1.666,8.488-4.699c7.511-12.01,11.481-25.876,11.481-40.102    C511.874,239.134,488.983,209.103,456.211,200.121z" fill="#333333"/><path d="M227.653,176.109c-1.86-1.86-4.44-2.93-7.07-2.93s-5.21,1.07-7.07,2.93c-1.859,1.86-2.93,4.44-2.93,7.07    s1.07,5.21,2.93,7.07s4.44,2.93,7.07,2.93s5.21-1.07,7.07-2.93c1.859-1.86,2.93-4.44,2.93-7.07S229.513,177.969,227.653,176.109z" fill="#333333"/><path d="M297.692,431.936h-0.178c-5.522,0-10,4.477-10,10s4.478,10,10,10h0.178c5.522,0,10-4.477,10-10    S303.215,431.936,297.692,431.936z" fill="#333333"/></g><g transform="matrix(0.07463222742080688 0 0 0.07463222742080688 266.89411642575624 32.89409065246582)" id="L1_8"><path d="M203.887,146.419L157.731,14.423C154.667,5.662,146.691,0.001,137.41,0c0,0,0,0-0.001,0    c-9.281,0-17.258,5.661-20.322,14.423L70.931,146.419c-15.375,3.055-27.002,16.646-27.002,32.905V200c0,5.522,4.478,10,10,10    h43.969c5.522,0,10-4.478,10-10c0-5.522-4.478-10-10-10H63.929v-10.676c0-7.473,6.079-13.552,13.552-13.552h0.773h118.31h0.772    c7.473,0,13.553,6.079,13.553,13.552V190h-35.198c-5.522,0-10,4.478-10,10c0,5.522,4.478,10,10,10h45.198c5.522,0,10-4.478,10-10    v-20.676C230.889,163.064,219.262,149.474,203.887,146.419z M135.965,21.025c0.116-0.333,0.358-1.025,1.443-1.025    c1.085,0,1.327,0.691,1.443,1.024l14.43,41.268h-31.747L135.965,21.025z M114.542,82.292h45.733l8.472,24.229H106.07    L114.542,82.292z M92.345,145.772l6.732-19.252h76.664l6.732,19.252H92.345z" fill="#333333"/><path d="M144.473,192.93c-1.86-1.86-4.431-2.93-7.07-2.93c-2.629,0-5.199,1.069-7.07,2.93c-1.859,1.86-2.93,4.44-2.93,7.07    s1.07,5.21,2.93,7.069c1.87,1.86,4.44,2.931,7.07,2.931c2.64,0,5.21-1.07,7.07-2.931c1.869-1.859,2.939-4.439,2.939-7.069    S146.342,194.79,144.473,192.93z" fill="#333333"/><path d="M483.901,344.774l-48.259-138.012c-3.136-8.967-11.3-14.761-20.799-14.761c-9.498,0-17.662,5.794-20.798,14.761    l-48.259,138.012c-15.967,3.054-28.075,17.116-28.075,33.96v21.58c0,5.522,4.478,10,10,10h174.266c5.522,0,10-4.478,10-10v-21.58    C511.977,361.89,499.869,347.828,483.901,344.774z M412.924,213.363c0.118-0.337,0.477-1.362,1.919-1.362    c1.443,0,1.802,1.025,1.92,1.362l15.265,43.655H397.66L412.924,213.363z M390.666,277.019h48.355l9.148,26.163h-66.652    L390.666,277.019z M374.524,323.182h80.639l7.333,20.97h-95.304L374.524,323.182z M491.977,390.314L491.977,390.314H337.711    v-11.58c0-8.041,6.541-14.583,14.582-14.583h0.808h123.485h0.808c8.041,0,14.583,6.542,14.583,14.583V390.314z" fill="#333333"/><path d="M167.479,446.063L118.792,306.83c-3.149-9.008-11.351-14.829-20.894-14.829c-0.001,0-0.001,0-0.001,0    c-9.543,0-17.745,5.82-20.896,14.829L28.316,446.063c-16.088,3.054-28.292,17.211-28.292,34.173v21.765c0,5.522,4.478,10,10,10    h175.747c5.522,0,10-4.478,10-10v-21.765C195.771,463.274,183.566,449.116,167.479,446.063z M95.881,313.432    c0.124-0.354,0.5-1.431,2.017-1.431c1.516,0,1.892,1.076,2.016,1.431l15.434,44.14H80.447L95.881,313.432z M73.454,377.571h48.888    l9.286,26.556h-67.46L73.454,377.571z M57.175,424.127h81.446l7.454,21.318H49.72L57.175,424.127z M20.024,492.001v-11.765    c0-8.156,6.636-14.791,14.792-14.791h0.813h124.536h0.814c8.156,0,14.791,6.635,14.791,14.791v11.765H20.024z" fill="#333333"/><path d="M236.267,246.133c-4.98-2.386-10.952-0.285-13.34,4.695c-5.088,10.616-8.4,21.947-9.846,33.679    c-0.676,5.481,3.221,10.473,8.702,11.147c0.416,0.052,0.828,0.076,1.236,0.076c4.978,0,9.288-3.712,9.912-8.778    c1.18-9.576,3.882-18.822,8.031-27.479C243.349,254.493,241.247,248.52,236.267,246.133z" fill="#333333"/><path d="M254.913,356.709c-6.487-7.207-11.696-15.305-15.481-24.068c-2.189-5.07-8.075-7.402-13.146-5.216    c-5.07,2.19-7.405,8.076-5.216,13.146c4.649,10.765,11.036,20.696,18.982,29.52c1.975,2.193,4.698,3.309,7.434,3.309    c2.385,0,4.777-0.848,6.688-2.569C258.278,367.136,258.61,360.812,254.913,356.709z" fill="#333333"/><path d="M311.786,418.364l-21.696-23.523c-3.745-4.059-10.07-4.316-14.131-0.57c-4.06,3.744-4.314,10.071-0.57,14.131    l21.696,23.522c1.972,2.137,4.658,3.22,7.354,3.22c2.424,0,4.854-0.876,6.777-2.649    C315.276,428.751,315.53,422.424,311.786,418.364z" fill="#333333"/><path d="M355.189,465.417l-8.146-8.832c-3.745-4.059-10.07-4.317-14.131-0.57c-4.06,3.744-4.314,10.071-0.57,14.131l8.146,8.831    c1.972,2.137,4.658,3.22,7.354,3.22c2.424,0,4.854-0.876,6.777-2.649C358.679,475.804,358.933,469.477,355.189,465.417z" fill="#333333"/><path d="M371.922,148.721c-2.962-4.661-9.14-6.041-13.803-3.078l-27.011,17.159c-4.662,2.961-6.04,9.141-3.078,13.803    c1.905,2.999,5.141,4.639,8.45,4.639c1.834,0,3.689-0.504,5.353-1.561l27.011-17.159    C373.505,159.563,374.884,153.383,371.922,148.721z" fill="#333333"/><path d="M301.018,193.763c-2.962-4.662-9.143-6.042-13.803-3.078L262.43,206.43c-0.821,0.522-1.634,1.053-2.435,1.593    c-4.579,3.088-5.788,9.303-2.7,13.882c1.932,2.864,5.087,4.41,8.3,4.41c1.924,0,3.867-0.554,5.582-1.71    c0.65-0.438,1.309-0.869,1.977-1.293l24.786-15.746C302.602,204.605,303.98,198.425,301.018,193.763z" fill="#333333"/><path d="M508.602,66.359c-0.098-0.348-0.213-0.686-0.344-1.015c-9.381-27.613-35.54-47.544-66.284-47.544    c-0.018,0-0.035,0.001-0.053,0.001c-0.009,0-0.018-0.001-0.026-0.001c-0.027,0-0.053,0.004-0.08,0.004    c-30.676,0.069-56.763,19.978-66.126,47.545c-0.13,0.325-0.244,0.659-0.34,1.003c-2.183,6.763-3.375,13.968-3.375,21.448    c0,38.598,31.402,70,70,70c38.598,0,70-31.402,70-70C511.974,80.322,510.783,73.121,508.602,66.359z M451.895,38.792    c14.012,2.832,25.913,11.541,33.022,23.434l-13.277,3.271l-19.745-14.345V38.792z M441.895,68.606l15.826,11.498l-6.045,18.604    h-19.562l-6.045-18.604L441.895,68.606z M431.895,38.821v12.33l-19.701,14.314l-13.163-3.24    C406.115,50.377,417.952,41.686,431.895,38.821z M404.805,121.202c-7.971-8.862-12.831-20.573-12.831-33.402    c0-2.24,0.163-4.442,0.45-6.605l14.098,3.471l7.342,22.596L404.805,121.202z M441.974,137.8c-7.524,0-14.661-1.681-21.068-4.671    l9.371-14.42h23.413l9.366,14.414C456.645,136.117,449.504,137.8,441.974,137.8z M479.152,121.191l-9.167-14.108l7.269-22.371    l14.271-3.515c0.287,2.163,0.45,4.364,0.45,6.604C491.974,100.623,487.117,112.331,479.152,121.191z" fill="#333333"/><path d="M382.403,491.62c-1.86-1.861-4.44-2.931-7.07-2.931c-2.639,0-5.21,1.071-7.069,2.931    c-1.861,1.859-2.931,4.439-2.931,7.069c0,2.64,1.071,5.21,2.931,7.07c1.859,1.861,4.439,2.93,7.069,2.93s5.209-1.07,7.07-2.93    c1.861-1.86,2.93-4.429,2.93-7.07C385.333,496.059,384.263,493.479,382.403,491.62z" fill="#333333"/></g><g transform="matrix(0.08584621548652649 0 0 0.08584621548652649 201.0077572055161 269.0092179713067)" id="L1_9"><path d="M341.645,491.909H10.06c-5.521,0-9.997,4.476-9.997,9.998c0,5.522,4.477,9.997,9.997,9.997h331.585    c5.521,0,9.997-4.476,9.997-9.997S347.167,491.909,341.645,491.909z" fill="#333333"/><path d="M392.706,494.84c-1.86-1.86-4.439-2.929-7.068-2.929c-2.639,0-5.209,1.07-7.078,2.929    c-1.859,1.86-2.919,4.439-2.919,7.068c0,2.629,1.06,5.209,2.919,7.068c1.87,1.859,4.449,2.929,7.078,2.929s5.199-1.07,7.068-2.929    c1.859-1.859,2.929-4.439,2.929-7.068C395.635,499.269,394.565,496.699,392.706,494.84z" fill="#333333"/><path d="M501.938,491.909h-74.594c-5.521,0-9.997,4.476-9.997,9.998c0,5.522,4.477,9.997,9.997,9.997h74.594    c5.521,0,9.997-4.476,9.997-9.997S507.46,491.909,501.938,491.909z" fill="#333333"/><path d="M493.705,314.929c0.066-0.463,0.111-0.933,0.111-1.414v-86.843V196.68h8.186c5.521,0,9.997-4.476,9.997-9.998    c0-5.522-4.477-9.997-9.997-9.997h-8.312c-1.644-24.591-21.142-44.36-45.616-46.43V66.712h53.862c5.521,0,9.997-4.476,9.997-9.998    c0-5.522-4.477-9.997-9.997-9.997h-53.675c1.679-14.959,14.404-26.628,29.806-26.628h23.869c5.521,0,9.997-4.476,9.997-9.997    s-4.477-9.997-9.997-9.997h-23.869c-27.563,0-49.988,22.424-49.988,49.988v6.633v73.347h-16.24V56.714v-6.633    c0-27.563-22.424-49.988-49.988-49.988h-47.738c-27.563,0-49.988,22.424-49.988,49.988v6.633v73.347h-16.252V56.714v-6.633    c0-27.563-22.424-49.988-49.988-49.988h-47.738c-27.563,0-49.988,22.424-49.988,49.988v6.633v73.347H83.92V56.714v-6.633    c0-27.563-22.424-49.988-49.988-49.988H10.063c-5.521,0-9.997,4.476-9.997,9.997s4.477,9.997,9.997,9.997h23.869    c15.4,0,28.127,11.668,29.806,26.628H10.063c-5.521,0-9.997,4.476-9.997,9.997c0,5.522,4.477,9.998,9.997,9.998h53.862v63.542    c-24.474,2.07-43.972,21.839-45.616,46.43H9.997c-5.521,0-9.997,4.476-9.997,9.997c0,5.522,4.477,9.998,9.997,9.998h8.186v29.993    v86.843c0,0.481,0.046,0.951,0.111,1.414c-11.126,9.176-18.231,23.062-18.231,38.576v39.99c0,5.522,4.477,9.997,9.997,9.997    h51.987v48.426H10.06c-5.521,0-9.997,4.476-9.997,9.998c0,5.522,4.477,9.997,9.997,9.997h491.878c5.521,0,9.997-4.476,9.997-9.997    c0-5.522-4.477-9.998-9.997-9.998h-51.987v-48.426h51.987c5.521,0,9.997-4.476,9.997-9.997v-39.99    C511.936,337.992,504.832,324.105,493.705,314.929z M490.227,343.508H349.69c4.126-11.637,15.245-19.995,28.279-19.995h83.979    C474.982,323.513,486.101,331.87,490.227,343.508z M366.097,303.518V236.67H473.82v66.848H366.097z M473.82,216.675H366.097    V196.68H473.82V216.675z M443.829,150.056c15.4,0,28.126,11.669,29.805,26.628H366.285c1.679-14.959,14.404-26.628,29.806-26.628    H443.829z M314.113,20.088h47.738c15.4,0,28.127,11.668,29.806,26.628H284.308C285.987,31.758,298.713,20.088,314.113,20.088z     M284.121,66.712h107.723v63.542c-24.474,2.07-43.972,21.839-45.616,46.43h-16.371c-1.647-24.632-21.206-44.424-45.737-46.44    V66.712z M346.213,314.93c-3.073,2.534-5.839,5.429-8.234,8.618c-2.365-3.149-5.094-6.01-8.122-8.523    c0.075-0.494,0.126-0.995,0.126-1.509v-86.843v-29.993h16.119v29.993v86.843C346.102,313.998,346.148,314.467,346.213,314.93z     M309.988,236.67v66.848h-11.999H214.01h-11.745V236.67H309.988z M202.265,216.675V196.68h107.723v19.995H202.265z     M214.01,323.513h83.979c13.034,0,24.153,8.357,28.279,19.995H185.731C189.857,331.871,200.976,323.513,214.01,323.513z     M327.982,363.503v19.995H184.144v-19.995H327.982z M279.996,150.056c15.4,0,28.127,11.668,29.806,26.628H202.453    c1.679-14.959,14.404-26.628,29.806-26.628H279.996z M150.149,20.088h47.738c15.4,0,28.127,11.668,29.806,26.628H120.343    C122.022,31.758,134.748,20.088,150.149,20.088z M120.156,66.712h107.723v63.553c-24.412,2.13-43.842,21.874-45.483,46.419    h-16.625c-1.644-24.591-21.142-44.36-45.616-46.43V66.712z M182.368,314.84c-3.118,2.556-5.924,5.481-8.348,8.708    c-2.395-3.189-5.161-6.083-8.234-8.619c0.066-0.463,0.111-0.932,0.111-1.414v-86.843V196.68h16.373v29.993v86.843    C182.27,313.966,182.31,314.406,182.368,314.84z M68.171,150.056h47.738c15.4,0,28.127,11.668,29.806,26.628H38.366    C40.045,161.725,52.771,150.056,68.171,150.056z M38.179,236.67h16.204c5.521,0,9.997-4.476,9.997-9.997    c0-5.522-4.477-9.998-9.997-9.998H38.179V196.68h107.723v19.995h-16.204c-5.521,0-9.997,4.476-9.997,9.998    c0,5.522,4.477,9.997,9.997,9.997h16.204v66.848H38.179V236.67z M50.051,323.513h83.979c13.034,0,24.153,8.357,28.279,19.995    H21.772C25.898,331.871,37.017,323.513,50.051,323.513z M20.058,383.498v-19.995h143.964v19.995H20.058z M102.038,451.919H82.043    v-48.426h19.995V451.919z M226.133,451.919h-104.1v-48.426h51.987c0.021,0,0.042-0.003,0.063-0.003s0.042,0.003,0.063,0.003    h51.987V451.919z M266.124,451.919h-19.995v-48.426h19.995V451.919z M389.966,451.919H286.119v-48.426h51.86h0.127h51.86V451.919z     M429.956,451.919h-19.995v-48.426h19.995V451.919z M491.941,383.498H348.104v-19.995h143.837V383.498z" fill="#333333"/><path d="M99.107,219.608c-1.859-1.87-4.438-2.929-7.067-2.929s-5.209,1.06-7.068,2.929c-1.86,1.86-2.929,4.429-2.929,7.068    c0,2.629,1.069,5.209,2.929,7.068c1.861,1.86,4.439,2.929,7.068,2.929s5.209-1.07,7.067-2.929c1.86-1.859,2.93-4.439,2.93-7.068    C102.038,224.037,100.968,221.468,99.107,219.608z" fill="#333333"/></g><g transform="matrix(0.10260622948408127 0 0 0.10260622948408127 90.7454595178504 255.73262977600098)" id="L1_11"><path d="M389.761,327.445l-51.158-93.289l51.536-168.813c1.612-5.282-1.362-10.871-6.645-12.484L211.778,0.436    c-5.277-1.607-10.872,1.361-12.484,6.645l-82.885,271.497c-0.774,2.537-0.509,5.277,0.737,7.618    c1.246,2.342,3.371,4.092,5.907,4.866l45,13.738l-12.622,9.085c-2.61,1.879-4.158,4.899-4.158,8.116    c0,19.721,13.887,36.25,32.393,40.348c-1.182,8.205-1.139,16.583,0.187,24.894l18.546,116.332    c0.784,4.921,5.033,8.428,9.862,8.427c0.523,0,1.054-0.041,1.587-0.126c5.454-0.869,9.171-5.995,8.301-11.449l-18.546-116.332    c-1.482-9.295-0.865-18.702,1.759-27.633c0.036-0.11,0.07-0.221,0.103-0.333c0.812-2.708,1.801-5.374,2.981-7.977    c0.121-0.268,0.23-0.539,0.328-0.816l30.935-88.019c0.184-0.523,0.324-1.063,0.419-1.61l8.411-48.599    c0.373-2.154,0.579-4.188,0.778-6.153l0.02-0.192c0.623-6.135,5.755-10.761,11.938-10.761h7.25c2.619,0,4.75,2.131,4.75,4.75    v58.908l-6.205,90.644c-0.081,1.182,0.049,2.369,0.384,3.506l4.247,14.431c1.558,5.299,7.12,8.329,12.416,6.77    c5.298-1.559,8.329-7.118,6.77-12.416l-3.741-12.712l0.317-4.628l7.311,2.232c0.955,0.291,1.938,0.436,2.92,0.436    c1.623,0,3.238-0.396,4.698-1.172c2.341-1.246,4.092-3.372,4.866-5.908l23.19-75.963l41.779,76.185    c4.863,8.868,5.076,19.568,0.57,28.623l-41.178,82.755c-4.808,7.038-7.345,15.245-7.345,23.79v29.77c0,5.522,4.478,10,10,10    c5.522,0,10-4.478,10-10v-29.77c0-4.643,1.424-9.096,4.116-12.877c0.304-0.427,0.574-0.877,0.808-1.346l41.505-83.412    C398.124,359.679,397.772,342.053,389.761,327.445z M190.046,340.3c-0.401,0.897-0.785,1.801-1.153,2.708    c-8.448-1.488-15.198-7.964-17.089-16.267l20.289-14.603l7.09,2.164L190.046,340.3z M291.046,321.436l-2.184-0.667l4.387-64.086    c0.016-0.227,0.023-0.455,0.023-0.683v-59.25c0-13.647-11.103-24.75-24.75-24.75h-7.25c-16.485,0-30.171,12.355-31.836,28.742    l-0.02,0.195c-0.172,1.695-0.334,3.296-0.587,4.757l-8.269,47.778l-14.742,41.944l-67.363-20.565L215.5,22.483l20.46,6.246    l-14.368,47.064c-1.612,5.282,1.362,10.871,6.645,12.484c0.973,0.297,1.956,0.438,2.924,0.438c4.282,0,8.245-2.773,9.561-7.083    l14.368-47.064l113,34.499L291.046,321.436z" fill="#333333"/><path d="M227.072,105.26c-1.86-1.861-4.44-2.93-7.069-2.93c-2.63,0-5.21,1.069-7.07,2.93c-1.86,1.861-2.93,4.44-2.93,7.07    s1.069,5.21,2.93,7.069c1.86,1.86,4.44,2.931,7.07,2.931c2.64,0,5.21-1.07,7.069-2.931c1.86-1.859,2.931-4.439,2.931-7.069    S228.933,107.12,227.072,105.26z" fill="#333333"/><path d="M296.492,383.93c-1.86-1.861-4.44-2.93-7.07-2.93s-5.21,1.069-7.07,2.93c-1.859,1.86-2.93,4.44-2.93,7.07    s1.07,5.21,2.93,7.069c1.86,1.86,4.44,2.931,7.07,2.931s5.21-1.07,7.07-2.931c1.869-1.859,2.93-4.439,2.93-7.069    S298.361,385.79,296.492,383.93z" fill="#333333"/></g><g transform="matrix(0.0775369256734848 0 0 0.0775369256734848 185.15048789978027 190.1505127327839)" id="L1_12"><path d="M182.667,0.001h-81.086C45.569,0.001,0,45.569,0,101.582c0,3.558,1.89,6.847,4.964,8.639l50.204,29.269v117.998    c0,5.522,4.478,10,10,10H219.08c5.522,0,10-4.478,10-10V139.49l50.205-29.27c3.073-1.792,4.963-5.082,4.963-8.639    C284.247,45.569,238.678,0.001,182.667,0.001z M170.977,20.001c-4.151,11.943-15.513,20.542-28.853,20.542    c-13.34,0-24.702-8.599-28.853-20.542H170.977z M229.092,116.331v-19.33c0-5.523-4.478-10-10-10c-5.522,0-10,4.477-10,10    l-0.012,150.487H75.168v-20.237h42.499c5.522,0,10-4.477,10-10s-4.478-10-10-10H75.168V97.001c0-5.523-4.478-10-10-10    c-5.522,0-10,4.477-10,10v19.338l-34.976-20.39c2.702-39.406,33.514-71.215,72.481-75.465c4.84,22.857,25.173,40.06,49.45,40.06    c24.277,0,44.61-17.203,49.45-40.06c38.967,4.25,69.778,36.058,72.481,75.464L229.092,116.331z" fill="#333333"/><path d="M170.906,67.001c-16.542,0-30,13.458-30,30s13.458,30,30,30s30-13.458,30-30S187.448,67.001,170.906,67.001z     M170.906,107.001c-5.514,0-10-4.486-10-10s4.486-10,10-10c5.514,0,10,4.486,10,10S176.42,107.001,170.906,107.001z" fill="#333333"/><path d="M399.394,311.514c-0.123,0-0.245,0.008-0.368,0.009c-0.123-0.001-0.244-0.009-0.368-0.009c-16.542,0-30,13.458-30,30    s13.458,30,30,30c0.123,0,0.245-0.008,0.368-0.009c0.123,0.001,0.244,0.009,0.368,0.009c16.542,0,30-13.458,30-30    S415.936,311.514,399.394,311.514z M399.026,351.494c-5.343-0.196-9.632-4.592-9.632-9.981c0-5.39,4.29-9.786,9.632-9.981    c5.343,0.196,9.632,4.592,9.632,9.981S404.368,351.3,399.026,351.494z" fill="#333333"/><path d="M435.116,78.819L377.488,3.904c-1.892-2.461-4.821-3.903-7.925-3.903s-6.033,1.442-7.926,3.903l-57.628,74.916    c-4.901,6.373-5.74,14.812-2.188,22.024c3.551,7.213,10.752,11.693,18.791,11.693h10.478v71.464c0,5.523,4.478,10,10,10h56.945    c5.522,0,10-4.477,10-10v-71.464h10.478c8.04,0,15.241-4.481,18.793-11.694C440.858,93.63,440.018,85.191,435.116,78.819z     M419.362,92.008c-0.26,0.528-0.644,0.528-0.85,0.528h-20.478c-5.522,0-10,4.477-10,10v71.465H351.09v-71.464    c0-5.523-4.478-10-10-10h-20.478c-0.206,0-0.589,0-0.85-0.528c-0.259-0.529-0.026-0.833,0.099-0.996l49.701-64.611l49.701,64.611    C419.388,91.176,419.622,91.48,419.362,92.008z" fill="#333333"/><path d="M211.115,411.142c-3.552-7.211-10.753-11.692-18.792-11.692h-10.478v-71.464c0-5.522-4.478-10-10-10H114.9    c-5.522,0-10,4.478-10,10v71.464H94.423c-8.04,0-15.241,4.48-18.793,11.693c-3.552,7.213-2.712,15.652,2.19,22.025v-0.001    l57.627,74.915c1.893,2.461,4.821,3.903,7.926,3.903s6.033-1.442,7.926-3.903l57.628-74.915    C213.828,426.795,214.667,418.355,211.115,411.142z M193.074,420.975l-49.701,64.61l-49.701-64.61v-0.001    c-0.125-0.163-0.359-0.467-0.099-0.995s0.644-0.528,0.85-0.528H114.9c5.522,0,10-4.478,10-10v-71.464h36.945v71.464    c0,5.522,4.478,10,10,10h20.478c0.206,0,0.589,0,0.85,0.528C193.433,420.509,193.199,420.813,193.074,420.975z" fill="#333333"/><path d="M410.419,244.512h-81.085c-56.012,0-101.581,45.569-101.581,101.582c0,3.558,1.891,6.848,4.964,8.639l50.205,29.269    v117.998c0,5.522,4.478,10,10,10h153.911c5.522,0,10-4.478,10-10v-40.062c0.002-0.091,0.014-0.179,0.014-0.271    c0-0.092-0.011-0.18-0.014-0.271v-77.395l50.204-29.27c3.074-1.791,4.964-5.081,4.964-8.639    C512,290.082,466.431,244.512,410.419,244.512z M398.729,264.512c-4.151,11.944-15.513,20.543-28.853,20.543    c-13.339,0-24.701-8.599-28.853-20.543H398.729z M456.846,360.843v-19.33c0-5.522-4.478-10-10-10c-5.522,0-10,4.478-10,10    l-0.014,110.154h-42.484c-5.522,0-10,4.478-10,10c0,5.522,4.478,10,10,10h42.484v20.333H302.921V341.514c0-5.522-4.478-10-10-10    c-5.522,0-10,4.478-10,10v19.339l-34.977-20.391c2.702-39.407,33.515-71.216,72.482-75.466    c4.839,22.856,25.173,40.06,49.449,40.06c24.277,0,44.61-17.203,49.45-40.06c38.968,4.25,69.779,36.059,72.481,75.465    L456.846,360.843z" fill="#333333"/><path d="M161.569,210.181c-1.859-1.86-4.439-2.93-7.069-2.93c-2.641,0-5.21,1.07-7.07,2.93s-2.93,4.44-2.93,7.07    s1.069,5.21,2.93,7.07c1.861,1.86,4.44,2.93,7.07,2.93s5.21-1.07,7.069-2.93c1.86-1.86,2.931-4.44,2.931-7.07    S163.43,212.04,161.569,210.181z" fill="#333333"/><path d="M364.59,454.6c-1.87-1.871-4.441-2.93-7.07-2.93c-2.64,0-5.21,1.06-7.08,2.93c-1.859,1.86-2.93,4.44-2.93,7.07    s1.07,5.21,2.93,7.07c1.87,1.859,4.44,2.93,7.08,2.93c2.63,0,5.2-1.07,7.07-2.93c1.86-1.86,2.93-4.44,2.93-7.07    S366.451,456.461,364.59,454.6z" fill="#333333"/></g><g transform="matrix(0.06649206578731537 0 0 0.06649206578731537 288.9780588437761 217.97803115844727)" id="L1_13"><path d="M169.304,126.336c-1.867-1.867-4.457-2.941-7.097-2.941s-5.23,1.074-7.097,2.941c-1.867,1.867-2.941,4.457-2.941,7.097    c0,2.64,1.074,5.23,2.941,7.097c1.867,1.867,4.457,2.941,7.097,2.941s5.23-1.074,7.097-2.941c1.867-1.867,2.941-4.457,2.941-7.097    C172.245,130.793,171.171,128.203,169.304,126.336z" fill="#333333"/><path d="M468.424,213.231c-1.867-1.867-4.457-2.941-7.097-2.941s-5.23,1.074-7.097,2.941c-1.867,1.867-2.941,4.457-2.941,7.097    s1.074,5.23,2.941,7.097c1.867,1.867,4.457,2.941,7.097,2.941s5.23-1.074,7.097-2.941c1.867-1.867,2.941-4.457,2.941-7.097    S470.291,215.098,468.424,213.231z" fill="#333333"/><path d="M327.93,0c-32.48,0-64.386,8.623-92.269,24.937c-27.052,15.827-49.74,38.479-65.611,65.506    c-2.807,4.78-1.208,10.931,3.572,13.738c4.781,2.807,10.932,1.209,13.738-3.572c14.857-25.301,36.128-45.705,61.018-59.652v3.395    c0,15.867,12.908,28.776,28.776,28.776c4.797,0,8.7,3.903,8.7,8.7v29.779c0,4.797-3.903,8.7-8.7,8.7h-25.906    c-17.193,0-31.182,13.988-31.182,31.182v14.197c-13.805-3.494-28.252-5.358-43.126-5.358    C79.985,160.328,1.105,239.208,1.105,336.164S79.984,512,176.941,512c52.079,0,98.934-22.766,131.159-58.86    c0.608-0.539,1.148-1.146,1.608-1.812c20.928-24.095,35.411-53.923,40.766-86.778c43.235-5.319,83.085-25.901,112.642-58.291    c30.811-33.764,47.78-77.551,47.78-123.295C510.896,82.078,428.818,0,327.93,0z M345.611,21.038    c77.336,8.386,138.605,71.116,144.707,149.104h-52.206c-13.921,0-25.246-11.325-25.246-25.246v-20.97    c0-8.446-5.71-15.821-13.885-17.937l-16.414-4.248c3.716-3.469,5.862-8.331,5.862-13.528v-3.487    c0-10.216-8.312-18.527-18.528-18.527h-20.071c-2.326,0-4.218-1.892-4.218-4.218V21.038z M252.913,229.297l-22.815-39.548    c26.679,9.716,49.973,26.53,67.596,48.144L252.913,229.297z M313.536,261.375c8.815,16.036,14.884,33.784,17.579,52.606    l-44.925,45.319l-49.479-11.109l-16.549-50.932l31.088-47.84L313.536,261.375z M176.941,180.404    c8.799-0.001,17.426,0.744,25.832,2.153l31.972,55.421l-31.057,47.792h-53.492l-31.057-47.792l31.967-55.418    C159.511,181.15,168.14,180.404,176.941,180.404z M217.131,352.898l-20.013,14.54l-20.012,14.539l-40.026-29.081l15.288-47.053    h49.474L217.131,352.898z M123.78,189.75l-22.799,39.526l-44.6,8.377C73.98,216.155,97.2,199.431,123.78,189.75z M40.523,261.058    l62.093-11.663l31.104,47.864l-16.549,50.931l-48.403,10.867l-1.019,0.229l-44.874-46.081    C25.645,294.547,31.734,276.959,40.523,261.058z M48.16,423.683c-16.292-23.898-26.117-52.538-26.924-83.387l32.715,33.596    L48.16,423.683z M65.863,445.238l7.758-66.695l49.101-11.023l44.017,31.98v47.248l-47.542,34.075    C98.994,472.729,80.871,460.519,65.863,445.238z M176.942,491.925c-11.552,0-22.81-1.275-33.651-3.672l34.076-24.422    l38.051,23.281C203.107,490.252,190.217,491.925,176.942,491.925z M239.96,478.593l-52.818-32.316v-46.776l44.017-31.981    l2.699,0.606l46.713,10.487l10.199,63.751C276.532,457.615,259.276,470.013,239.96,478.593z M307.649,420.785l-7.524-47.029    l32.496-32.779C331.725,370.331,322.67,397.664,307.649,420.785z M430.125,310.133l-18.169-39.345    c-4.827-10.453-15.385-17.206-26.898-17.206c-5.267,0-9.552-4.285-9.552-9.552v-4.111c0-5.267,4.285-9.552,9.552-9.552h42.644    c5.544,0,10.038-4.494,10.038-10.038s-4.494-10.038-10.038-10.038h-42.644c-16.336,0-29.627,13.291-29.627,29.627v4.111    c0,16.336,13.291,29.627,29.627,29.627c3.712,0,7.116,2.177,8.672,5.548l19.701,42.663    c-18.124,11.113-38.678,18.796-60.838,22.132c0.114-2.599,0.184-5.209,0.184-7.835c0-74.707-46.835-138.67-112.682-164.098    c0.029-0.31,0.047-0.624,0.047-0.942v-19.635c0-6.125,4.983-11.107,11.107-11.107h25.906c15.866,0,28.775-12.908,28.775-28.775    v-29.78c0-15.866-12.908-28.775-28.775-28.775c-4.797,0-8.701-3.904-8.701-8.701V31.433c17.984-7.089,37.295-11.023,57.081-11.318    V61.98c0,13.395,10.898,24.293,24.293,24.293h18.524v1.122c-5.783,4.124-8.642,10.958-7.491,18.035    c1.198,7.36,6.426,13.092,13.645,14.961l18.283,4.732v19.773c0,24.99,20.331,45.321,45.321,45.321h52.547    C488.565,238.615,465.617,281.648,430.125,310.133z" fill="#333333"/></g><g transform="matrix(0.07464571297168732 0 0 0.07464571297168732 179.89069747924805 33.89065735265012)" id="L1_14"><path d="M263.066,260.701c-1.859-1.86-4.438-2.929-7.067-2.929c-2.629,0-5.208,1.068-7.067,2.929    c-1.859,1.858-2.929,4.437-2.929,7.067c0,2.629,1.07,5.208,2.929,7.066c1.859,1.859,4.438,2.93,7.067,2.93    c2.629,0,5.208-1.07,7.067-2.93c1.859-1.858,2.929-4.437,2.929-7.066C265.995,265.138,264.925,262.559,263.066,260.701z" fill="#333333"/><path d="M345.408,143.433l94.18,94.18c1.874,1.874,4.417,2.928,7.068,2.928h55.234c5.52,0,9.995-4.475,9.995-9.995    c0-5.52-4.475-9.995-9.995-9.995h-4.391c8.9-9.277,14.386-21.851,14.386-35.69c0-28.454-23.149-51.602-51.602-51.602    c-26.404,0-48.225,19.937-51.235,45.545l-49.504-49.505c-8.532-8.532-20.966-10.83-31.608-6.91l71.211-71.212    c11.691-11.692,11.691-30.715,0-42.407c-11.692-11.692-30.716-11.692-42.408,0l-49.504,49.505    c-3.01-25.608-24.831-45.545-51.235-45.545s-48.226,19.937-51.235,45.545L155.26,8.769c-11.692-11.692-30.716-11.692-42.408,0    c-11.691,11.692-11.691,30.715,0,42.407l71.212,71.211c-10.642-3.92-23.076-1.621-31.608,6.91l-49.504,49.506    c-3.01-25.608-24.831-45.545-51.235-45.545c-28.454,0-51.602,23.148-51.602,51.602c0,13.84,5.486,26.414,14.386,35.69H10.11    c-5.52,0-9.995,4.475-9.995,9.995c0,5.52,4.475,9.995,9.995,9.995h55.234c2.651,0,5.194-1.053,7.068-2.928l94.18-94.18    c3.897-3.897,10.239-3.897,14.136,0s3.897,10.239,0,14.136l-82.604,82.604c-1.874,1.874-2.928,4.417-2.928,7.068v85.256h-43.48    c-5.52,0-9.995,4.476-9.995,9.995s4.475,9.995,9.995,9.995h43.48v59.638H61.712V388.93c0-5.519-4.475-9.995-9.995-9.995    s-9.995,4.476-9.995,9.995v23.196H10.11c-5.52,0-9.995,4.476-9.995,9.995c0,5.519,4.475,9.995,9.995,9.995h31.611v69.886    c0,5.519,4.475,9.995,9.995,9.995s9.995-4.476,9.995-9.995v-69.885h33.484v69.635c0,5.519,4.475,9.995,9.995,9.995    s9.995-4.476,9.995-9.995v-79.63v-0.126v-79.503v-11.193l77.342,77.342v91.11c0,5.519,4.475,9.995,9.995,9.995h106.95    c5.52,0,9.995-4.476,9.995-9.995v-91.11l77.342-77.343v11.194v79.503v0.126v79.63c0,5.519,4.475,9.995,9.995,9.995    s9.995-4.476,9.995-9.995v-69.635h33.484v69.886c0,5.519,4.475,9.995,9.995,9.995s9.995-4.476,9.995-9.995v-69.886h31.611    c5.52,0,9.995-4.476,9.995-9.995c0-5.519-4.475-9.995-9.995-9.995h-31.611v-23.196c0-5.519-4.475-9.995-9.995-9.995    s-9.995,4.476-9.995,9.995v23.196h-33.484v-59.638h85.086c5.52,0,9.995-4.476,9.995-9.995c0-5.519-4.475-9.995-9.995-9.995    h-85.086v-85.256c0-2.651-1.054-5.194-2.928-7.068l-82.604-82.603c-3.897-3.897-3.897-10.239,0-14.137    C335.167,139.537,341.51,139.537,345.408,143.433z M460.282,153.248c17.431,0,31.611,14.181,31.611,31.611    c0,17.431-14.181,31.611-31.611,31.611s-31.611-14.181-31.611-31.611C428.671,167.43,442.851,153.248,460.282,153.248z     M51.717,216.471c-17.43,0-31.611-14.181-31.611-31.611c0-17.43,14.18-31.611,31.611-31.611s31.611,14.181,31.611,31.611    C83.328,202.29,69.147,216.471,51.717,216.471z M255.999,32.719c17.431,0,31.611,14.181,31.611,31.611    c0,17.431-14.181,31.611-31.611,31.611c-17.43,0-31.611-14.18-31.611-31.611C224.388,46.9,238.568,32.719,255.999,32.719z     M126.989,37.042c-3.897-3.899-3.897-10.241,0-14.137c3.896-3.897,10.239-3.897,14.136,0l94.18,94.18    c1.874,1.874,4.417,2.928,7.068,2.928h27.255c2.651,0,5.194-1.054,7.068-2.928l94.18-94.18c3.896-3.897,10.239-3.897,14.136,0    c3.897,3.897,3.897,10.239,0,14.136l-82.604,82.604c-1.874,1.874-2.928,4.417-2.928,7.068v85.256h-86.959v-85.256    c0-2.651-1.054-5.194-2.928-7.068L126.989,37.042z M385.011,314.83l-82.604,82.604c-1.874,1.875-2.928,4.417-2.928,7.068v85.256    H212.52v-85.256c0-2.651-1.054-5.193-2.928-7.068l-82.604-82.603c-3.897-3.897-3.897-10.24,0-14.137    c3.896-3.898,10.239-3.898,14.136,0l94.18,94.18c1.874,1.874,4.417,2.928,7.068,2.928h27.255c2.651,0,5.194-1.053,7.068-2.928    l94.18-94.18c3.896-3.898,10.239-3.897,14.136-0.001C388.908,304.591,388.908,310.934,385.011,314.83z M224.388,342.12    c0-17.431,14.181-31.612,31.611-31.612s31.611,14.181,31.611,31.612c0.001,17.43-14.18,31.611-31.611,31.611    C238.568,373.731,224.388,359.55,224.388,342.12z M396.812,251.382v33.075c-11.766-9.541-29.13-8.841-40.073,2.102l-49.504,49.505    c-3.01-25.608-24.831-45.546-51.235-45.546s-48.226,19.938-51.235,45.546l-49.504-49.505    c-10.943-10.943-28.308-11.643-40.073-2.101v-33.076l77.342-77.342v47.924v62.176c0,5.519,4.475,9.995,9.995,9.995    c5.52,0,9.995-4.476,9.995-9.995v-52.181h86.959v52.181c0,5.519,4.475,9.995,9.995,9.995c5.52,0,9.995-4.476,9.995-9.995v-62.176    v-47.924L396.812,251.382z" fill="#333333"/><path d="M28.176,335.426c-1.859-1.859-4.438-2.929-7.067-2.929c-2.639,0-5.208,1.068-7.067,2.929    c-1.869,1.859-2.929,4.438-2.929,7.067s1.06,5.208,2.929,7.066c1.859,1.859,4.438,2.93,7.067,2.93s5.208-1.07,7.067-2.93    c1.859-1.858,2.929-4.437,2.929-7.066S30.035,337.285,28.176,335.426z" fill="#333333"/></g><g transform="matrix(0.07297869026660919 0 0 0.07297869026660919 311.9953588129546 72.31739616394043)" id="L1_15"><path d="M383.682,160.316l-0.301-0.296c-3.938-3.876-10.27-3.825-14.143,0.111c-3.874,3.936-3.824,10.267,0.111,14.142    l0.264,0.259c1.95,1.929,4.493,2.892,7.035,2.892c2.576,0,5.152-0.99,7.108-2.966    C387.641,170.532,387.608,164.201,383.682,160.316z" fill="#333333"/><path d="M412.347,196.775c-2.833-4.742-8.971-6.291-13.713-3.458c-4.742,2.832-6.29,8.971-3.459,13.713    c38.061,63.733,27.931,144.959-24.636,197.523c-30.597,30.598-71.279,47.449-114.551,47.449    c-43.271,0-83.955-16.851-114.553-47.449c-63.164-63.164-63.164-165.939,0-229.103c53.294-53.293,135.274-62.965,199.365-23.52    c4.701,2.895,10.861,1.429,13.758-3.274c2.895-4.704,1.429-10.863-3.275-13.759c-34.267-21.091-75.289-30.243-115.5-25.778    c-40.844,4.538-79.373,23.071-108.491,52.188c-70.961,70.962-70.961,186.426,0,257.388c34.376,34.375,80.08,53.307,128.695,53.307    c48.614,0,94.319-18.932,128.694-53.307C443.735,359.642,455.111,268.385,412.347,196.775z" fill="#333333"/><path d="M113.771,433.455l-0.62-0.617c-3.906-3.904-10.236-3.904-14.143,0c-3.905,3.905-3.905,10.237,0,14.143l0.684,0.68    c1.95,1.932,4.494,2.897,7.039,2.897c2.574,0,5.147-0.988,7.103-2.961C117.722,443.674,117.693,437.343,113.771,433.455z" fill="#333333"/><path d="M438.054,162.882l25.166-25.165c1.875-1.875,2.929-4.419,2.929-7.071c0-2.652-1.054-5.196-2.929-7.071l-37-37    c-3.905-3.904-10.235-3.905-14.143,0l-24.546,24.546c-28.344-20.936-61.035-34.662-95.793-40.257V58.28    c11.639-4.128,20-15.243,20-28.28c0-16.542-13.458-30-30-30h-48c-16.542,0-30,13.458-30,30c0,13.036,8.361,24.152,20,28.28v12.037    c-35.235,5.097-68.433,18.536-97.263,39.331l-23.076-23.075c-3.906-3.905-10.236-3.904-14.143,0l-37,37    c-1.875,1.875-2.929,4.419-2.929,7.071c0,2.652,1.054,5.196,2.929,7.071l23.156,23.155    c-53.164,74.337-55.97,175.686-3.503,253.297c3.094,4.577,9.312,5.775,13.885,2.684c4.575-3.093,5.777-9.31,2.684-13.885    c-54.019-79.905-43.643-187.485,24.674-255.8C151.303,109.012,202.03,88,255.988,88c53.956,0,104.684,21.012,142.836,59.165    c38.153,38.152,59.165,88.88,59.165,142.836c0,53.957-21.012,104.684-59.165,142.836    c-69.614,69.614-178.485,79.099-258.869,22.558c-4.515-3.177-10.753-2.091-13.933,2.426c-3.177,4.518-2.091,10.755,2.427,13.933    c37.3,26.237,82.026,40.246,127.616,40.246c6.016,0,12.05-0.244,18.08-0.736c52.337-4.271,101.638-27.1,138.821-64.283    c41.93-41.93,65.022-97.681,65.022-156.979C477.989,243.867,464.006,199.883,438.054,162.882z M99.009,133.022    c-3.89,3.891-7.599,7.903-11.146,12.014l-14.391-14.391l22.857-22.858l14.359,14.358    C106.689,125.617,102.791,129.24,99.009,133.022z M271.739,68.555C266.521,68.191,261.269,68,255.988,68    c-4.102,0-8.185,0.121-12.249,0.341V60h28V68.555z M281.739,40h-48c-5.514,0-10-4.486-10-10s4.486-10,10-10h48    c5.514,0,10,4.486,10,10S287.253,40,281.739,40z M412.966,133.024c-3.191-3.192-6.473-6.261-9.82-9.233l16.003-16.003    l22.857,22.858l-16.275,16.275C421.69,142.143,417.442,137.5,412.966,133.024z" fill="#333333"/><path d="M350.942,220.001h-189.91c-28.329,0-51.377,23.047-51.377,51.377v37.246c0,28.33,23.048,51.377,51.377,51.377h189.91    c28.329,0,51.377-23.047,51.377-51.377v-37.246C402.32,243.048,379.271,220.001,350.942,220.001z M382.319,308.624    c0,17.301-14.075,31.377-31.377,31.377h-189.91c-17.302,0-31.377-14.076-31.377-31.377v-37.246    c0-17.301,14.075-31.377,31.377-31.377h189.91c17.302,0.001,31.377,14.076,31.377,31.377V308.624z" fill="#333333"/><path d="M177.979,254.001h-8.333c-14.245,0-25.834,11.589-25.834,25.833v20.333c0,14.244,11.589,25.833,25.834,25.833h8.333    c14.244,0,25.833-11.589,25.833-25.833v-20.333C203.812,265.59,192.223,254.001,177.979,254.001z M183.812,300.169    c0,3.216-2.616,5.833-5.833,5.833h-8.333c-3.217,0-5.834-2.617-5.834-5.833v-20.333c0-3.217,2.617-5.833,5.834-5.833h8.333    c3.217,0,5.833,2.617,5.833,5.833V300.169z" fill="#333333"/><path d="M274.313,254.001h-8.333c-14.244,0-25.833,11.589-25.833,25.833v20.333c0,14.244,11.589,25.833,25.833,25.833h8.333    c14.245,0,25.834-11.589,25.834-25.833v-20.333C300.147,265.59,288.558,254.001,274.313,254.001z M280.147,300.169    c0,3.216-2.617,5.833-5.834,5.833h-8.333c-3.217,0-5.833-2.617-5.833-5.833v-20.333c0-3.217,2.616-5.833,5.833-5.833h8.333    c3.217,0,5.834,2.617,5.834,5.833V300.169z" fill="#333333"/><path d="M344.329,254.001h-8.333c-14.245,0-25.834,11.589-25.834,25.833v20.333c0,14.244,11.589,25.833,25.834,25.833h8.333    c14.244,0,25.833-11.589,25.833-25.833v-20.333C370.162,265.59,358.573,254.001,344.329,254.001z M350.162,300.168    c0,3.216-2.616,5.833-5.833,5.833h-8.333c-3.217,0-5.834-2.617-5.834-5.833v-20.333c0-3.217,2.617-5.833,5.834-5.833h8.333    c3.217,0,5.833,2.616,5.833,5.833V300.168z" fill="#333333"/><path d="M228.729,265.592c-1.86-1.86-4.44-2.92-7.07-2.92c-2.64,0-5.22,1.06-7.08,2.92c-1.86,1.87-2.92,4.44-2.92,7.08    c0,2.63,1.06,5.21,2.92,7.07c1.86,1.86,4.44,2.93,7.08,2.93c2.63,0,5.21-1.07,7.07-2.93c1.859-1.87,2.92-4.44,2.92-7.07    C231.649,270.042,230.588,267.462,228.729,265.592z" fill="#333333"/><path d="M228.729,300.932c-1.86-1.86-4.44-2.93-7.07-2.93c-2.64,0-5.22,1.07-7.08,2.93c-1.86,1.86-2.92,4.44-2.92,7.07    c0,2.63,1.06,5.21,2.92,7.07c1.86,1.86,4.44,2.93,7.08,2.93c2.63,0,5.21-1.07,7.07-2.93c1.859-1.86,2.92-4.44,2.92-7.07    C231.649,305.372,230.588,302.792,228.729,300.932z" fill="#333333"/></g><g transform="matrix(0.08029220253229141 0 0 0.08029220253229141 26.4451961517334 119.4451961517334)" id="L1_16"><path d="M502,0H10C4.478,0,0,4.477,0,10v374c0,5.523,4.478,10,10,10h35.607c5.522,0,10-4.477,10-10s-4.478-10-10-10H20v-27h472v27    H117.936c-5.522,0-10,4.477-10,10s4.478,10,10,10h64.874v108c0,5.523,4.478,10,10,10h126.127c5.522,0,10-4.477,10-10V394H502    c5.522,0,10-4.477,10-10V10C512,4.477,507.522,0,502,0z M246.908,492H202.81v-98h44.098V492z M308.937,492h-42.029v-98h42.029V492    z M492,47H296.909c-5.522,0-10,4.477-10,10s4.478,10,10,10h194.964v260H20V67h193.934c5.522,0,10-4.477,10-10s-4.478-10-10-10H20    V20h472V47z" fill="#333333"/><path d="M90.336,376.93c-1.859-1.86-4.44-2.93-7.069-2.93c-2.63,0-5.21,1.07-7.07,2.93c-1.86,1.86-2.93,4.44-2.93,7.07    s1.069,5.21,2.93,7.07c1.861,1.86,4.44,2.93,7.07,2.93c2.63,0,5.21-1.07,7.069-2.93c1.86-1.86,2.931-4.44,2.931-7.07    S92.197,378.79,90.336,376.93z" fill="#333333"/><path d="M184.856,246h-60.187c-5.238,0-9.5-4.262-9.5-9.5c0-5.238,4.262-9.5,9.5-9.5h20.687c38.322,0,69.5-31.178,69.5-69.5    S183.678,88,145.355,88H96.27c-16.542,0-30,13.458-30,30s13.458,30,30,30h49.086c5.238,0,9.5,4.262,9.5,9.5    c0,5.238-4.262,9.5-9.5,9.5h-20.687c-38.322,0-69.5,31.178-69.5,69.5s31.178,69.5,69.5,69.5h60.187c16.542,0,30-13.458,30-30    S201.398,246,184.856,246z M184.856,286h-60.187c-27.294,0-49.5-22.206-49.5-49.5s22.206-49.5,49.5-49.5h20.687    c16.267,0,29.5-13.234,29.5-29.5s-13.233-29.5-29.5-29.5H96.27c-5.514,0-10-4.486-10-10s4.486-10,10-10h49.086    c27.294,0,49.5,22.206,49.5,49.5s-22.206,49.5-49.5,49.5h-20.687c-16.267,0-29.5,13.234-29.5,29.5s13.233,29.5,29.5,29.5h60.187    c5.514,0,10,4.486,10,10C194.856,281.514,190.37,286,184.856,286z" fill="#333333"/><path d="M299.669,131.465c-5.144-5.994-12.608-9.777-20.479-10.378c-7.877-0.596-15.824,2.004-21.821,7.149    c-5.993,5.145-9.775,12.609-10.376,20.479c-0.602,7.872,2.004,15.825,7.148,21.82c5.146,5.995,12.61,9.777,20.48,10.378h-0.001    c0.745,0.057,1.491,0.085,2.236,0.085c7.123,0,14.155-2.577,19.582-7.234c5.995-5.145,9.778-12.609,10.379-20.48    C307.419,145.413,304.813,137.461,299.669,131.465z M286.877,151.761c-0.197,2.583-1.491,5.134-3.461,6.825    c-1.971,1.69-4.689,2.58-7.271,2.384h-0.001c-2.582-0.197-5.135-1.491-6.825-3.461c-1.715-1.999-2.584-4.649-2.384-7.271    c0.2-2.623,1.462-5.111,3.46-6.825c1.811-1.554,4.154-2.413,6.528-2.413c0.248,0,0.497,0.009,0.744,0.028    c2.584,0.199,5.135,1.492,6.824,3.46C286.182,146.459,287.074,149.178,286.877,151.761z" fill="#333333"/><path d="M298.116,226.915c-5.585-5.585-13.316-8.788-21.211-8.788c-7.894,0-15.625,3.203-21.213,8.789    c-5.584,5.586-8.787,13.317-8.787,21.211c0,7.895,3.203,15.625,8.789,21.211c5.587,5.585,13.317,8.789,21.211,8.789    c7.894,0,15.625-3.204,21.211-8.789c5.586-5.586,8.789-13.317,8.789-21.211C306.905,240.234,303.702,232.503,298.116,226.915z     M283.974,255.195c-1.835,1.836-4.478,2.932-7.068,2.932c-2.59,0-5.233-1.096-7.069-2.932c-1.862-1.862-2.931-4.438-2.931-7.068    s1.068-5.207,2.93-7.069c1.863-1.863,4.44-2.931,7.07-2.931c2.591,0,5.233,1.096,7.067,2.93c1.836,1.836,2.933,4.479,2.933,7.07    C286.905,250.717,285.81,253.36,283.974,255.195z" fill="#333333"/><path d="M426.585,90.284c-11.247-4.658-24.08-2.108-32.694,6.502l-53.83,53.831c-11.695,11.697-11.695,30.729,0,42.427    c11.698,11.697,30.731,11.697,42.428-0.001l2.616-2.616v86.406c0,16.542,13.458,30,30,30s30-13.458,30-30V118    C445.105,105.823,437.835,94.944,426.585,90.284z M425.105,276.834c0,5.514-4.486,10-10,10c-5.514,0-10-4.486-10-10v-110.55    c0-4.044-2.437-7.691-6.173-9.239c-1.237-0.513-2.537-0.762-3.825-0.762c-2.603,0-5.16,1.017-7.073,2.93l-19.688,19.688    c-1.889,1.889-4.4,2.929-7.071,2.929s-5.183-1.04-7.071-2.929c-3.898-3.899-3.898-10.243,0-14.142l53.829-53.829    c2.87-2.871,7.148-3.722,10.898-2.168c3.751,1.553,6.174,5.18,6.174,9.239V276.834z" fill="#333333"/><path d="M263.976,49.93c-1.86-1.86-4.44-2.93-7.07-2.93s-5.21,1.07-7.07,2.93c-1.859,1.86-2.93,4.44-2.93,7.07    s1.07,5.21,2.93,7.07s4.44,2.93,7.07,2.93s5.21-1.07,7.07-2.93c1.859-1.86,2.93-4.44,2.93-7.07S265.836,51.79,263.976,49.93z" fill="#333333"/></g><g transform="matrix(0.07195966295695594 -0.011070717573407739 0.011070717573407739 0.07195966295695594 20.72835720635875 191.3846219349866)" id="L1_17"><path d="M324.126,185.554c-1.86-1.86-4.429-2.929-7.069-2.929c-2.629,0-5.209,1.069-7.069,2.929    c-1.86,1.86-2.929,4.429-2.929,7.069c0,2.63,1.07,5.209,2.929,7.068c1.86,1.86,4.439,2.93,7.069,2.93    c2.64,0,5.209-1.07,7.069-2.93c1.87-1.859,2.929-4.438,2.929-7.068C327.055,189.982,325.996,187.414,324.126,185.554z" fill="#333333"/><path d="M489.781,72.765c-4.786-2.756-10.898-1.112-13.654,3.672l-45.351,78.713c-4.125-0.521-8.269-0.515-12.337,0.015    c-0.017,0.003-0.033,0.003-0.05,0.006c-2.809,0.37-5.583,0.978-8.281,1.86l-5.249,1.714l-12.033,3.224    c-6.124,0.558-12.701-0.899-18.453-4.219l-53.309-30.796c-6.726-3.885-9.037-12.518-5.154-19.244l9.859-17.077    c0.001-0.001,0.002-0.002,0.002-0.004l43.783-75.619c2.766-4.778,1.136-10.895-3.643-13.662    c-4.778-2.765-10.895-1.136-13.662,3.643l-38.779,66.977l-4.556-2.63C289.396,58.068,128.052,28.038,95.905,22.134    c-0.068-0.013-0.136-0.024-0.204-0.036c-19.19-3.111-37.358,4.853-46.276,20.3l-16.452,28.5    c-11.425,19.787-3.592,45.937,17.371,59.493l-3.932,6.812c-3.39,5.872-4.291,12.712-2.536,19.262    c1.755,6.55,5.956,12.023,11.828,15.413l2.083,1.203c3.912,2.259,8.252,3.412,12.652,3.412c2.205,0,4.424-0.29,6.612-0.877    c6.549-1.755,12.023-5.955,15.413-11.827l3.896-6.749l23.551,13.597c-31.831,10.621-60.379,30.438-81.519,56.849    c-5.053,6.313-9.633,12.961-13.736,19.877c-0.266,0.381-0.5,0.782-0.711,1.196c-12.003,20.602-19.721,43.557-22.607,67.275    c-0.053,0.319-0.091,0.639-0.113,0.961c-0.773,6.641-1.174,13.338-1.174,20.061c0,45.47,17.422,86.945,45.935,118.111    c0.487,0.671,1.052,1.284,1.692,1.817c18.547,19.71,41.594,35.14,67.489,44.616c0.409,0.175,0.826,0.323,1.252,0.442    c18.381,6.568,38.166,10.157,58.776,10.157c22.974,0,44.924-4.454,65.044-12.531c0.52-0.167,1.028-0.37,1.516-0.621    c24.689-10.182,46.558-25.848,64.081-45.476c0.606-0.537,1.144-1.143,1.603-1.806c26.71-30.752,42.899-70.876,42.899-114.71    c0-6.463-0.378-12.957-1.082-19.361c-0.012-0.141-0.029-0.281-0.047-0.421c-0.095-0.843-0.174-1.689-0.281-2.528    c-0.012-0.098-0.026-0.194-0.041-0.291l-1.149-7.312l2.687-4.655c5.446,1.927,11.033,2.878,16.5,2.878    c15.078,0,29.205-7.113,36.715-20.12l16.455-28.501l38.677-66.991c5.468-9.473,1.683-21.933-8.439-27.776    c-0.075-0.043-0.152-0.081-0.228-0.124l43.347-75.235C496.21,81.635,494.566,75.522,489.781,72.765z M250.925,73.598l8.382,31.286    l-14.312-2.484l-8.577-32.013C241.452,71.483,246.302,72.556,250.925,73.598z M178.009,58.257l8.996,33.575l-14.312-2.484    l-9.098-33.954C168.4,56.343,173.213,57.299,178.009,58.257z M75.143,153.792c-0.72,1.247-1.882,2.139-3.271,2.51    c-1.39,0.374-2.841,0.182-4.088-0.538l-2.083-1.203c0,0,0,0-0.001,0c-1.246-0.72-2.138-1.882-2.509-3.271    c-0.373-1.39-0.182-2.842,0.538-4.088l3.896-6.75l11.416,6.591L75.143,153.792z M122.288,190.941l-22.755,39.449l-44.816,8.417    C72.118,217.407,95.264,200.663,122.288,190.941z M155.968,225.858c8.779,0,17.33-4.553,22.027-12.687l3.896-6.75l23.111,13.345    c7.984,4.61,17.146,6.196,25.795,4.47c3.86-0.771,8.226,0.028,11.978,2.195l27.649,15.963    c9.224,5.326,16.332,13.749,19.502,23.111c0.779,2.301,2.368,4.238,4.471,5.452l9.538,5.507l-4.079,7.065    c-6.999,12.122-2.83,27.678,9.291,34.676l0.001,0.001l2.082,1.201c3.087,1.783,6.398,2.832,9.732,3.219l-36.951,37.275    l-49.284-11.065l-5.246-16.146l-11.227-34.551l17.076-25.948c3.035-4.612,1.757-10.812-2.855-13.848    c-4.61-3.033-10.812-1.757-13.848,2.855l-16.755,25.461h-53.318l-30.935-47.605l14.991-25.989    c2.156,3.341,5.085,6.149,8.627,8.194l2.083,1.202C147.306,224.766,151.664,225.858,155.968,225.858z M149.261,196.584    l3.896-6.749l6.962,4.019l4.454,2.572l-3.895,6.749c-1.486,2.573-4.787,3.458-7.36,1.974l-2.083-1.203    c0-0.001-0.001-0.001-0.002-0.001c-1.247-0.72-2.138-1.882-2.51-3.271S148.541,197.831,149.261,196.584z M215.225,353.525    l-19.934,14.483l-19.934,14.483l-39.868-28.966l15.228-46.869h49.28L215.225,353.525z M39.065,262.093l62.096-11.663    l30.982,47.677l-16.484,50.73l-40.473,9.087l-8.754,1.966l-44.719-45.922C24.425,295.472,30.383,277.961,39.065,262.093z     M46.92,424.03c-16.228-23.802-26.014-52.331-26.818-83.058l32.587,33.463L46.92,424.03z M64.553,445.501l7.727-66.431    l46.633-10.471l2.275-0.511l43.843,31.855v47.061l-47.355,33.941C97.554,472.884,79.502,460.722,64.553,445.501z M175.194,492.003    c-11.507,0.001-22.721-1.269-33.518-3.657l33.941-24.326l37.901,23.189C201.256,490.336,188.417,492.003,175.194,492.003z     M237.964,478.724l-52.609-32.188v-46.593l32.277-23.45l11.568-8.404l3.152,0.708l46.065,10.343l10.158,63.499    C274.392,457.83,257.203,470.178,237.964,478.724z M305.387,421.145l-7.493-46.843l32.367-32.651    C329.367,370.889,320.348,398.114,305.387,421.145z M328.588,300.119c-1.486,2.573-4.788,3.459-7.363,1.972l-2.082-1.201    c-2.571-1.487-3.456-4.789-1.972-7.362l3.896-6.75l11.416,6.591L328.588,300.119z M351.805,281.013l-44.318-25.587    c-5.195-12.523-14.687-23.202-27.064-30.348l-27.648-15.963c-8.014-4.627-17.21-6.222-25.892-4.487    c-3.829,0.768-8.158-0.028-11.881-2.178l-31.769-18.341c-0.001,0-0.001-0.001-0.002-0.001l-9.873-5.7L97.707,134.73    c-0.003-0.002-0.005-0.004-0.008-0.005l-28.732-16.589c-0.002-0.001-0.005-0.002-0.007-0.003l-6.336-3.658    c-12.372-7.144-17.99-20.947-13.289-31.674c4.225,8.154,10.933,15.4,19.746,20.488l152.381,87.977    c7.985,4.61,17.147,6.196,25.796,4.47c3.857-0.776,8.224,0.027,11.977,2.194l27.648,15.963    c9.224,5.326,16.332,13.749,19.502,23.111c0.779,2.301,2.368,4.238,4.471,5.452l47.408,27.372    c7.845,4.529,16.528,6.873,25.15,6.873c0.622,0,1.243-0.021,1.864-0.045C378.524,286.004,363.983,288.045,351.805,281.013z     M402.779,246.547c-2.871,4.973-7.888,8.397-14.125,9.644c-6.716,1.343-13.959,0.036-20.393-3.68l-44.318-25.588    c-5.196-12.523-14.687-23.202-27.064-30.348l-27.65-15.963c-8.015-4.627-17.21-6.219-25.891-4.486    c-3.828,0.769-8.158-0.028-11.881-2.178L79.076,85.972C65.96,78.399,60.428,63.336,66.746,52.395    c4.713-8.163,14.778-12.307,25.659-10.575c14.912,2.739,31.8,5.921,49.345,9.311l13.28,49.563    c1.008,3.763,4.109,6.598,7.947,7.264l36.024,6.253c0.57,0.1,1.142,0.147,1.71,0.147c2.781,0,5.469-1.162,7.38-3.253    c2.302-2.519,3.16-6.037,2.277-9.332l-10.472-39.081c4.927,1.011,9.794,2.019,14.566,3.017l12.871,48.039    c1.008,3.763,4.109,6.598,7.947,7.264l36.024,6.253c0.57,0.1,1.142,0.147,1.71,0.147c2.781,0,5.469-1.162,7.38-3.253    c2.302-2.519,3.16-6.037,2.277-9.332l-9.654-36.031c13.453,3.334,22.822,6.083,25.899,7.859l4.546,2.624l-4.869,8.433    c-9.395,16.272-3.802,37.158,12.469,46.557l46.84,27.058l-14.317,3.836c-5.333,1.43-8.498,6.912-7.07,12.245    c1.197,4.467,5.236,7.414,9.651,7.414c0.856,0,1.728-0.111,2.594-0.344l47.774-12.801c2.771-0.373,5.508-0.978,8.172-1.849    l5.837-1.906l11.218-3.006c6.155-0.608,12.783,0.837,18.573,4.18c0.514,0.297,0.772,0.646,0.887,0.865L402.779,246.547z" fill="#333333"/><path d="M509.02,44.572c-1.86-1.86-4.439-2.93-7.069-2.93c-2.63,0-5.209,1.07-7.069,2.93c-1.86,1.859-2.929,4.438-2.929,7.068    c0,2.64,1.07,5.209,2.929,7.069c1.86,1.86,4.439,2.929,7.069,2.929c2.629,0,5.209-1.069,7.069-2.929    c1.86-1.861,2.929-4.438,2.929-7.069C511.949,49.011,510.879,46.431,509.02,44.572z" fill="#333333"/></g><g transform="matrix(0.07607708126306534 0 0 0.07607708126306534 29.69638192653656 34.132882952690125)" id="L1_18"><path d="m432 95.054688c0-31.664063-20.304688-59.277344-50.527344-68.71875l-83.089844-25.96875-162.382812-.367188-85.472656 26.335938c-30.222656 9.441406-50.527344 37.054687-50.527344 68.71875v160.945312h64v240h304v-240h64zm-64 80.945312v-25.9375c0-17.453125 6.328125-34.285156 17.824219-47.421875l25.65625-29.320313c2.824219 6.742188 4.519531 14.046876 4.519531 21.734376v96.945312h-48zm-96-160-56 74.664062-56-74.664062zm-134.785156 0h2.785156l76 101.335938 76-101.335938h2.785156l18.175782 5.679688-96.960938 117.734374-96.960938-117.734374zm-73.214844 160v16h-48v-96.945312c0-7.6875 1.695312-14.992188 4.527344-21.734376l25.65625 29.320313c11.488281 13.136719 17.816406 29.96875 17.816406 47.421875zm-48 64v-32h48v32zm64 89.089844 34.871094 29.0625 10.25-12.296875-45.121094-37.609375v-43.15625l130.871094 109.0625 10.25-12.296875-141.121094-117.609375v-43.15625l272 226.664062v43.15625l-114.871094-95.726562-10.25 12.296875 111.015625 92.519531h-51.789062l-144.976563-120.816406-10.25 12.296875 130.21875 108.519531h-181.097656zm272 77.820312-272-226.664062v-30.183594c0-21.328125-7.734375-41.910156-21.777344-57.949219l-28.949218-33.089843c6.703124-7.945313 15.527343-14.144532 26.023437-17.421876l47.261719-14.769531 113.441406 137.753907 113.441406-137.753907 47.261719 14.769531c10.496094 3.277344 19.320313 9.476563 26.023437 17.414063l-28.949218 33.089844c-14.042969 16.046875-21.777344 36.628906-21.777344 57.957031zm16-166.910156v-32h48v32zm0 0" fill="#333333"/><path d="m280 244.496094 57.078125-68.496094h-114.15625zm0-24.992188-22.921875-27.503906h45.84375zm0 0" fill="#333333"/><path d="m96 416v48h64v-48zm48 32h-32v-16h32zm0 0" fill="#333333"/></g><path d="m463.265625 202.4375 36.398437-127.394531-150.863281-47.640625c1.101563-10-4.097656-19.804688-13.609375-24.519532-3.382812-1.664062-7.175781-2.550781-10.945312-2.550781-10.863282 0-20.300782 6.9375-23.484375 17.246094l-41.699219 135.21875c-3.0625-.183594-6.109375-.464844-9.230469-.464844-3.121093 0-6.167969.28125-9.238281.464844l-41.691406-135.21875c-3.183594-10.308594-12.613282-17.246094-23.488282-17.246094-3.773437 0-7.558593.886719-11.109374 2.640625-9.375 4.640625-14.5625 14.4375-13.457032 24.4375l-150.847656 47.632813 36.398438 127.394531 153.042968-48.328125 2.949219 9.574219c-55.398437 22.703125-94.558594 77.160156-94.558594 140.648437 0 55.40625 29.902344 103.847657 74.320313 130.40625l-9.242188 29.984375c-3.527344 11.449219 1.746094 23.632813 12.691406 29.050782 3.382813 1.671874 7.167969 2.558593 10.949219 2.558593 10.863281 0 20.304688-6.9375 23.488281-17.246093l8.058594-26.136719c10.238282 2.183593 20.847656 3.382812 31.734375 3.382812s21.496094-1.199219 31.734375-3.390625l8.058594 26.132813c3.183594 10.320312 12.621094 17.257812 23.488281 17.257812 3.78125 0 7.566407-.886719 11.109375-2.640625 10.792969-5.335937 16.066406-17.519531 12.53125-28.96875l-9.242187-29.984375c44.417969-26.558593 74.320312-75 74.320312-130.40625 0-63.488281-39.160156-117.945312-94.566406-140.648437l2.949219-9.574219zm-118.746094-159.601562 135.480469 42.785156-27.601562 96.605468-137.46875-43.40625zm-48.832031 133.625-45.855469 22.925781-45.855469-22.925781c14.351563-5.167969 29.742188-8.128907 45.855469-8.128907s31.503907 2.960938 45.855469 8.128907zm15.089844 199.871093-12.464844-24.929687 14.390625-57.558594 23.953125-11.976562 47.769531 40.945312c-2.664062 19.457031-9.425781 37.582031-19.425781 53.527344h-54.222656zm-121.890625 0h-54.222657c-10.007812-15.945312-16.769531-34.070312-19.425781-53.527343l47.769531-40.945313 23.953126 11.976563 14.390624 57.558593zm52.945312-124.640625-48.246093 27.578125-24.882813-12.441406-14.71875-58.855469c9.144531-9.097656 19.558594-16.90625 30.96875-23.128906l56.878906 28.433594zm-88.960937 17.785156-38.96875 33.398438c.320312-30.023438 10.472656-57.664062 27.304687-80.039062zm63.207031 74.855469-13.015625-52.0625 46.769531-26.722656 46.769531 26.722656-13.015624 52.0625zm130.714844-74.855469 11.65625-46.640624c16.832031 22.375 26.984375 50.023437 27.304687 80.039062zm-15.832031-2.65625-24.882813 12.441407-48.246094-27.570313v-38.40625l56.878907-28.441406c11.410156 6.214844 21.824218 14.03125 30.96875 23.128906zm-283.695313-84.59375-27.601563-96.605468 135.480469-42.785156 29.589844 95.984374zm119.796875-155.007812c-1.199219-3.902344.625-8.070312 4.496094-9.984375 4.609375-2.285156 10.5625.25 12.042968 5.058594l40.804688 132.34375c-5.734375.976562-11.375 2.207031-16.878906 3.808593zm-20.734375 365.113281h41.960937l14.839844 39.558594c-22.21875-8.160156-41.738281-21.863281-56.800781-39.558594zm36.207031 87.015625c-3.710937-1.832031-5.535156-6-4.328125-9.910156l8.34375-27.089844c5.226563 2.398438 10.570313 4.566406 16.082031 6.382813l-7.898437 25.632812c-1.46875 4.824219-7 7.5625-12.199219 4.984375zm39.792969-41.816406-19.777344-52.742188 12.226563-24.457031h70.109375l12.226562 24.457031-19.777343 52.742188c-8.886719 1.832031-18.078126 2.800781-27.503907 2.800781s-18.617187-.96875-27.503906-2.800781zm99.128906 31.914062c1.207031 3.902344-.617187 8.070313-4.488281 9.984376-4.59375 2.269531-10.5625-.242188-12.046875-5.058594l-7.90625-25.632813c5.519531-1.804687 10.863281-3.972656 16.089844-6.382812zm-24.914062-37.554687 14.832031-39.558594h41.960938c-15.0625 17.695313-34.582032 31.398438-56.792969 39.558594zm-21.285157-277.253906 40.804688-132.34375c1.480469-4.816407 6.960938-7.554688 12.203125-4.984375 3.710937 1.839844 5.535156 6.007812 4.328125 9.910156l-40.457031 131.21875c-5.503907-1.59375-11.144531-2.832031-16.878907-3.800781zm0 0" transform="matrix(0.0823013186454773 0 0 0.0823013186454773 108.79740224369897 189.08453791221189)" id="L1_19" fill="#333333"/><g transform="matrix(0.08938561379909515 0 0 0.08938561379909515 -1.1995170712471008 327.83236688375473)" id="L1_20"><path d="m131.097656 186.214844c-4.273437-6.390625-11.410156-10.214844-19.097656-10.214844s-14.824219 3.824219-19.097656 10.214844l-21.375 32.066406c-4.917969 7.390625-7.527344 15.992188-7.527344 24.878906 0 24.71875 20.121094 44.839844 44.839844 44.839844h6.3125c24.726562 0 44.847656-20.121094 44.847656-44.839844 0-8.878906-2.609375-17.488281-7.527344-24.871094zm-15.9375 85.785156h-6.3125c-15.910156 0-28.847656-12.9375-28.847656-28.839844 0-5.710937 1.671875-11.238281 4.839844-16l21.375-32.0625c1.296875-1.9375 3.457031-3.097656 5.785156-3.097656s4.488281 1.160156 5.785156 3.097656l21.375 32.0625c3.167969 4.761719 4.839844 10.289063 4.839844 16 0 15.902344-12.9375 28.839844-28.839844 28.839844zm0 0" fill="#333333"/><path d="m232 32h-96v-16h16v-16h-80v16h16v48h-24v32.472656c-35.945312 3.992188-64 34.527344-64 71.527344v56h8c13.230469 0 24 10.769531 24 24s-10.769531 24-24 24h-8v168c0 30.871094 25.121094 56 56 56h112c30.878906 0 56-25.128906 56-56v-168h-8c-13.230469 0-24-10.769531-24-24s10.769531-24 24-24h8v-48h8c39.695312 0 72-32.296875 72-72s-32.304688-72-72-72zm-128-16h16v48h-16zm40 64v16h-64v-16zm-72 32h80c22.28125 0 41.511719 13.113281 50.519531 32h-181.039062c9.007812-18.886719 28.238281-32 50.519531-32zm-56 320v-112h192v112zm152 48h-112c-19.3125 0-35.472656-13.769531-39.191406-32h190.382812c-3.71875 18.230469-19.878906 32-39.191406 32zm40-271.191406c-18.230469 3.71875-32 19.871094-32 39.191406s13.769531 35.480469 32 39.191406v16.808594h-192v-16.808594c18.230469-3.71875 32-19.871094 32-39.191406s-13.769531-35.480469-32-39.191406v-40.808594c0-2.71875.265625-5.375.640625-8h190.71875c.375 2.625.640625 5.28125.640625 8zm24-48.808594h-8.472656c-3.703125-33.320312-30.214844-59.824219-63.527344-63.527344v-32.472656h-24v-16h96c30.878906 0 56 25.128906 56 56s-25.121094 56-56 56zm0 0" fill="#333333"/><path d="m32 336h16v16h-16zm0 0" fill="#333333"/><path d="m32 400h16v16h-16zm0 0" fill="#333333"/><path d="m176 336h16v16h-16zm0 0" fill="#333333"/><path d="m176 400h16v16h-16zm0 0" fill="#333333"/></g></defs><g fi:class="KUsePattern"><pattern id="pattern_L1_0" width="350" height="350" patternUnits="userSpaceOnUse"><use xlink:href="#L1_0" x="-350" y="-350"/><use xlink:href="#L1_0" x="0" y="-350"/><use xlink:href="#L1_0" x="350" y="-350"/><use xlink:href="#L1_0" x="-350" y="0"/><use xlink:href="#L1_0" x="0" y="0"/><use xlink:href="#L1_0" x="350" y="0"/><use xlink:href="#L1_0" x="-350" y="350"/><use xlink:href="#L1_0" x="0" y="350"/><use xlink:href="#L1_0" x="350" y="350"/></pattern><rect x="0" y="0" width="100%" height="100%" fill="url(#pattern_L1_0)"/></g><g fi:class="KUsePattern"><pattern id="pattern_L1_2" width="350" height="350" patternUnits="userSpaceOnUse"><use xlink:href="#L1_2" x="-350" y="-350"/><use xlink:href="#L1_2" x="0" y="-350"/><use xlink:href="#L1_2" x="350" y="-350"/><use xlink:href="#L1_2" x="-350" y="0"/><use xlink:href="#L1_2" x="0" y="0"/><use xlink:href="#L1_2" x="350" y="0"/><use xlink:href="#L1_2" x="-350" y="350"/><use xlink:href="#L1_2" x="0" y="350"/><use xlink:href="#L1_2" x="350" y="350"/></pattern><rect x="0" y="0" width="100%" height="100%" fill="url(#pattern_L1_2)"/></g><g fi:class="KUsePattern"><pattern id="pattern_L1_3" width="350" height="350" patternUnits="userSpaceOnUse"><use xlink:href="#L1_3" x="-350" y="-350"/><use xlink:href="#L1_3" x="0" y="-350"/><use xlink:href="#L1_3" x="350" y="-350"/><use xlink:href="#L1_3" x="-350" y="0"/><use xlink:href="#L1_3" x="0" y="0"/><use xlink:href="#L1_3" x="350" y="0"/><use xlink:href="#L1_3" x="-350" y="350"/><use xlink:href="#L1_3" x="0" y="350"/><use xlink:href="#L1_3" x="350" y="350"/></pattern><rect x="0" y="0" width="100%" height="100%" fill="url(#pattern_L1_3)"/></g><g fi:class="KUsePattern"><pattern id="pattern_L1_4" width="350" height="350" patternUnits="userSpaceOnUse"><use xlink:href="#L1_4" x="-350" y="-350"/><use xlink:href="#L1_4" x="0" y="-350"/><use xlink:href="#L1_4" x="350" y="-350"/><use xlink:href="#L1_4" x="-350" y="0"/><use xlink:href="#L1_4" x="0" y="0"/><use xlink:href="#L1_4" x="350" y="0"/><use xlink:href="#L1_4" x="-350" y="350"/><use xlink:href="#L1_4" x="0" y="350"/><use xlink:href="#L1_4" x="350" y="350"/></pattern><rect x="0" y="0" width="100%" height="100%" fill="url(#pattern_L1_4)"/></g><g fi:class="KUsePattern"><pattern id="pattern_L1_5" width="350" height="350" patternUnits="userSpaceOnUse"><use xlink:href="#L1_5" x="-350" y="-350"/><use xlink:href="#L1_5" x="0" y="-350"/><use xlink:href="#L1_5" x="350" y="-350"/><use xlink:href="#L1_5" x="-350" y="0"/><use xlink:href="#L1_5" x="0" y="0"/><use xlink:href="#L1_5" x="350" y="0"/><use xlink:href="#L1_5" x="-350" y="350"/><use xlink:href="#L1_5" x="0" y="350"/><use xlink:href="#L1_5" x="350" y="350"/></pattern><rect x="0" y="0" width="100%" height="100%" fill="url(#pattern_L1_5)"/></g><g fi:class="KUsePattern"><pattern id="pattern_L1_6" width="350" height="350" patternUnits="userSpaceOnUse"><use xlink:href="#L1_6" x="-350" y="-350"/><use xlink:href="#L1_6" x="0" y="-350"/><use xlink:href="#L1_6" x="350" y="-350"/><use xlink:href="#L1_6" x="-350" y="0"/><use xlink:href="#L1_6" x="0" y="0"/><use xlink:href="#L1_6" x="350" y="0"/><use xlink:href="#L1_6" x="-350" y="350"/><use xlink:href="#L1_6" x="0" y="350"/><use xlink:href="#L1_6" x="350" y="350"/></pattern><rect x="0" y="0" width="100%" height="100%" fill="url(#pattern_L1_6)"/></g><g fi:class="KUsePattern"><pattern id="pattern_L1_7" width="350" height="350" patternUnits="userSpaceOnUse"><use xlink:href="#L1_7" x="-350" y="-350"/><use xlink:href="#L1_7" x="0" y="-350"/><use xlink:href="#L1_7" x="350" y="-350"/><use xlink:href="#L1_7" x="-350" y="0"/><use xlink:href="#L1_7" x="0" y="0"/><use xlink:href="#L1_7" x="350" y="0"/><use xlink:href="#L1_7" x="-350" y="350"/><use xlink:href="#L1_7" x="0" y="350"/><use xlink:href="#L1_7" x="350" y="350"/></pattern><rect x="0" y="0" width="100%" height="100%" fill="url(#pattern_L1_7)"/></g><g fi:class="KUsePattern"><pattern id="pattern_L1_8" width="350" height="350" patternUnits="userSpaceOnUse"><use xlink:href="#L1_8" x="-350" y="-350"/><use xlink:href="#L1_8" x="0" y="-350"/><use xlink:href="#L1_8" x="350" y="-350"/><use xlink:href="#L1_8" x="-350" y="0"/><use xlink:href="#L1_8" x="0" y="0"/><use xlink:href="#L1_8" x="350" y="0"/><use xlink:href="#L1_8" x="-350" y="350"/><use xlink:href="#L1_8" x="0" y="350"/><use xlink:href="#L1_8" x="350" y="350"/></pattern><rect x="0" y="0" width="100%" height="100%" fill="url(#pattern_L1_8)"/></g><g fi:class="KUsePattern"><pattern id="pattern_L1_9" width="350" height="350" patternUnits="userSpaceOnUse"><use xlink:href="#L1_9" x="-350" y="-350"/><use xlink:href="#L1_9" x="0" y="-350"/><use xlink:href="#L1_9" x="350" y="-350"/><use xlink:href="#L1_9" x="-350" y="0"/><use xlink:href="#L1_9" x="0" y="0"/><use xlink:href="#L1_9" x="350" y="0"/><use xlink:href="#L1_9" x="-350" y="350"/><use xlink:href="#L1_9" x="0" y="350"/><use xlink:href="#L1_9" x="350" y="350"/></pattern><rect x="0" y="0" width="100%" height="100%" fill="url(#pattern_L1_9)"/></g><g fi:class="KUsePattern"><pattern id="pattern_L1_11" width="350" height="350" patternUnits="userSpaceOnUse"><use xlink:href="#L1_11" x="-350" y="-350"/><use xlink:href="#L1_11" x="0" y="-350"/><use xlink:href="#L1_11" x="350" y="-350"/><use xlink:href="#L1_11" x="-350" y="0"/><use xlink:href="#L1_11" x="0" y="0"/><use xlink:href="#L1_11" x="350" y="0"/><use xlink:href="#L1_11" x="-350" y="350"/><use xlink:href="#L1_11" x="0" y="350"/><use xlink:href="#L1_11" x="350" y="350"/></pattern><rect x="0" y="0" width="100%" height="100%" fill="url(#pattern_L1_11)"/></g><g fi:class="KUsePattern"><pattern id="pattern_L1_12" width="350" height="350" patternUnits="userSpaceOnUse"><use xlink:href="#L1_12" x="-350" y="-350"/><use xlink:href="#L1_12" x="0" y="-350"/><use xlink:href="#L1_12" x="350" y="-350"/><use xlink:href="#L1_12" x="-350" y="0"/><use xlink:href="#L1_12" x="0" y="0"/><use xlink:href="#L1_12" x="350" y="0"/><use xlink:href="#L1_12" x="-350" y="350"/><use xlink:href="#L1_12" x="0" y="350"/><use xlink:href="#L1_12" x="350" y="350"/></pattern><rect x="0" y="0" width="100%" height="100%" fill="url(#pattern_L1_12)"/></g><g fi:class="KUsePattern"><pattern id="pattern_L1_13" width="350" height="350" patternUnits="userSpaceOnUse"><use xlink:href="#L1_13" x="-350" y="-350"/><use xlink:href="#L1_13" x="0" y="-350"/><use xlink:href="#L1_13" x="350" y="-350"/><use xlink:href="#L1_13" x="-350" y="0"/><use xlink:href="#L1_13" x="0" y="0"/><use xlink:href="#L1_13" x="350" y="0"/><use xlink:href="#L1_13" x="-350" y="350"/><use xlink:href="#L1_13" x="0" y="350"/><use xlink:href="#L1_13" x="350" y="350"/></pattern><rect x="0" y="0" width="100%" height="100%" fill="url(#pattern_L1_13)"/></g><g fi:class="KUsePattern"><pattern id="pattern_L1_14" width="350" height="350" patternUnits="userSpaceOnUse"><use xlink:href="#L1_14" x="-350" y="-350"/><use xlink:href="#L1_14" x="0" y="-350"/><use xlink:href="#L1_14" x="350" y="-350"/><use xlink:href="#L1_14" x="-350" y="0"/><use xlink:href="#L1_14" x="0" y="0"/><use xlink:href="#L1_14" x="350" y="0"/><use xlink:href="#L1_14" x="-350" y="350"/><use xlink:href="#L1_14" x="0" y="350"/><use xlink:href="#L1_14" x="350" y="350"/></pattern><rect x="0" y="0" width="100%" height="100%" fill="url(#pattern_L1_14)"/></g><g fi:class="KUsePattern"><pattern id="pattern_L1_15" width="350" height="350" patternUnits="userSpaceOnUse"><use xlink:href="#L1_15" x="-350" y="-350"/><use xlink:href="#L1_15" x="0" y="-350"/><use xlink:href="#L1_15" x="350" y="-350"/><use xlink:href="#L1_15" x="-350" y="0"/><use xlink:href="#L1_15" x="0" y="0"/><use xlink:href="#L1_15" x="350" y="0"/><use xlink:href="#L1_15" x="-350" y="350"/><use xlink:href="#L1_15" x="0" y="350"/><use xlink:href="#L1_15" x="350" y="350"/></pattern><rect x="0" y="0" width="100%" height="100%" fill="url(#pattern_L1_15)"/></g><g fi:class="KUsePattern"><pattern id="pattern_L1_16" width="350" height="350" patternUnits="userSpaceOnUse"><use xlink:href="#L1_16" x="-350" y="-350"/><use xlink:href="#L1_16" x="0" y="-350"/><use xlink:href="#L1_16" x="350" y="-350"/><use xlink:href="#L1_16" x="-350" y="0"/><use xlink:href="#L1_16" x="0" y="0"/><use xlink:href="#L1_16" x="350" y="0"/><use xlink:href="#L1_16" x="-350" y="350"/><use xlink:href="#L1_16" x="0" y="350"/><use xlink:href="#L1_16" x="350" y="350"/></pattern><rect x="0" y="0" width="100%" height="100%" fill="url(#pattern_L1_16)"/></g><g fi:class="KUsePattern"><pattern id="pattern_L1_17" width="350" height="350" patternUnits="userSpaceOnUse"><use xlink:href="#L1_17" x="-350" y="-350"/><use xlink:href="#L1_17" x="0" y="-350"/><use xlink:href="#L1_17" x="350" y="-350"/><use xlink:href="#L1_17" x="-350" y="0"/><use xlink:href="#L1_17" x="0" y="0"/><use xlink:href="#L1_17" x="350" y="0"/><use xlink:href="#L1_17" x="-350" y="350"/><use xlink:href="#L1_17" x="0" y="350"/><use xlink:href="#L1_17" x="350" y="350"/></pattern><rect x="0" y="0" width="100%" height="100%" fill="url(#pattern_L1_17)"/></g><g fi:class="KUsePattern"><pattern id="pattern_L1_18" width="350" height="350" patternUnits="userSpaceOnUse"><use xlink:href="#L1_18" x="-350" y="-350"/><use xlink:href="#L1_18" x="0" y="-350"/><use xlink:href="#L1_18" x="350" y="-350"/><use xlink:href="#L1_18" x="-350" y="0"/><use xlink:href="#L1_18" x="0" y="0"/><use xlink:href="#L1_18" x="350" y="0"/><use xlink:href="#L1_18" x="-350" y="350"/><use xlink:href="#L1_18" x="0" y="350"/><use xlink:href="#L1_18" x="350" y="350"/></pattern><rect x="0" y="0" width="100%" height="100%" fill="url(#pattern_L1_18)"/></g><g fi:class="KUsePattern"><pattern id="pattern_L1_19" width="350" height="350" patternUnits="userSpaceOnUse"><use xlink:href="#L1_19" x="-350" y="-350"/><use xlink:href="#L1_19" x="0" y="-350"/><use xlink:href="#L1_19" x="350" y="-350"/><use xlink:href="#L1_19" x="-350" y="0"/><use xlink:href="#L1_19" x="0" y="0"/><use xlink:href="#L1_19" x="350" y="0"/><use xlink:href="#L1_19" x="-350" y="350"/><use xlink:href="#L1_19" x="0" y="350"/><use xlink:href="#L1_19" x="350" y="350"/></pattern><rect x="0" y="0" width="100%" height="100%" fill="url(#pattern_L1_19)"/></g><g fi:class="KUsePattern"><pattern id="pattern_L1_20" width="350" height="350" patternUnits="userSpaceOnUse"><use xlink:href="#L1_20" x="-350" y="-350"/><use xlink:href="#L1_20" x="0" y="-350"/><use xlink:href="#L1_20" x="350" y="-350"/><use xlink:href="#L1_20" x="-350" y="0"/><use xlink:href="#L1_20" x="0" y="0"/><use xlink:href="#L1_20" x="350" y="0"/><use xlink:href="#L1_20" x="-350" y="350"/><use xlink:href="#L1_20" x="0" y="350"/><use xlink:href="#L1_20" x="350" y="350"/></pattern><rect x="0" y="0" width="100%" height="100%" fill="url(#pattern_L1_20)"/></g></svg>