<svg xmlns="http://www.w3.org/2000/svg" viewBox="0 0 138.73 138.73"><defs><style>.a{fill:#f9f9f9;opacity:0.999;}</style></defs><path class="a" d="M138.73,125.724a13.006,13.006,0,0,1-13.006,13.006H13.006A13.006,13.006,0,0,1,0,125.724V54.388A13.006,13.006,0,0,1,4.982,44.152c6.75-5.292,12.329-9.583,44.491-32.924C54.032,7.9,63.078-.094,69.365,0c6.286-.1,15.335,7.9,19.892,11.227C121.416,34.567,127,38.864,133.748,44.152a13.006,13.006,0,0,1,4.982,10.236ZM120.938,72.453a2.166,2.166,0,0,0-3.072-.517c-6.19,4.572-15.028,11.029-28.608,20.885-4.559,3.324-13.6,11.321-19.892,11.226-6.289.093-15.325-7.9-19.892-11.226C35.895,82.966,27.056,76.508,20.865,71.936a2.166,2.166,0,0,0-3.072.517l-2.458,3.576a2.167,2.167,0,0,0,.5,2.972c6.2,4.579,15.026,11.025,28.533,20.828,5.493,4.005,15.316,12.955,25,12.89,9.68.066,19.5-8.88,25-12.89C107.872,90.025,116.7,83.578,122.9,79a2.167,2.167,0,0,0,.5-2.972Z" transform="translate(0 0)"/></svg>