<svg xmlns="http://www.w3.org/2000/svg" viewBox="0 0 98.712 138.664"><defs><style>.a{fill:#f9f9f9;}</style></defs><g transform="translate(-3.189)"><path class="a" d="M7.1,88.793c-7.89,12.276-2.3,22.693,3.332,31.6,4.537,7.147,3.047,9.2-3.86,12.945,5.208,1.1,10.016.986,13.477,3.057,8.011,4.778,14.235.807,21.962-1.019,17.655-4.176,31.87-17.921,51.116-16.9,4.625.251,6.115-3.766,8.011-6.459,2.716-3.838-2.54-4.957-4.124-6.029-4.781-3.21-8.607-7.816-8.187-12.534.779-8.65-.135-17.213.352-25.783.149-2.727,3.847-4.93,1.253-8.061-7.68-9.186-2.966-20.7-5.838-30.925-1.442-5.1-.237-10.569-5.777-14.215-2.445-1.615-4.95-3.23-3.379-7.855C77.71-.02,72.861-1.35,67.8,1.231,63.38,3.475,59.087,3.448,54.475,3.4c-11.987-.113-23.973.338-35.933-.086-6.637-.225-9.264,3.666-7.605,8.246,5.025,13.851,1.524,28.841,6.8,42.6,1.219,3.17,2.228,8.352.535,10.331C12.034,71.758,11.756,81.546,7.1,88.793Z" transform="translate(0 0)"/></g></svg>