<?xml version="1.0" encoding="UTF-8" standalone="no"?><!DOCTYPE svg PUBLIC "-//W3C//DTD SVG 1.1//EN" "http://www.w3.org/Graphics/SVG/1.1/DTD/svg11.dtd"><svg width="100%" height="100%" viewBox="0 0 482 142" version="1.1" xmlns="http://www.w3.org/2000/svg" xmlns:xlink="http://www.w3.org/1999/xlink" xml:space="preserve" xmlns:serif="http://www.serif.com/" style="fill-rule:evenodd;clip-rule:evenodd;stroke-linejoin:round;stroke-miterlimit:1.41421;"><g id="Group_192"><path id="Subtraction_38" d="M284.106,118.179c-6.984,0.092 -13.955,-0.644 -20.766,-2.192c-4.932,-1.187 -9.701,-2.973 -14.2,-5.316l-1.1,5.316l-28.416,0l6.557,-30.685l-26.23,0l-6.557,30.685l-28.416,0l1.49,-7.188c-4.306,2.9 -9.162,4.474 -14.6,6.092c-5.349,1.591 -11.638,3.288 -18.58,3.288c-4.129,-0.009 -8.241,-0.53 -12.242,-1.549c-3.694,-0.942 -7.282,-2.259 -10.709,-3.93c-3.145,-1.501 -6.088,-3.391 -8.762,-5.626c-2.554,-2.157 -4.759,-4.695 -6.539,-7.525c-1.735,-2.833 -2.929,-5.962 -3.523,-9.23c-0.624,-3.462 -0.91,-6.977 -0.853,-10.495c-0.033,-4.701 0.493,-9.389 1.566,-13.965c1.035,-4.34 2.717,-8.499 4.991,-12.337c4.386,-7.503 10.836,-13.59 18.58,-17.534c4.208,-2.194 8.68,-3.841 13.306,-4.9c4.957,-1.131 10.026,-1.693 15.11,-1.675c7.102,-0.134 14.171,1.006 20.871,3.366c2.905,1.081 5.673,2.498 8.248,4.224c2.499,1.688 4.778,3.681 6.785,5.933l2.343,-11.331l28.42,0l-6.557,29.589l26.231,0l6.557,-29.589l28.416,0l-2.959,14.281c0.264,-0.4 0.525,-0.783 0.773,-1.13c3.548,-4.977 8.494,-8.792 14.208,-10.959c3.426,-1.388 6.975,-2.45 10.6,-3.171c4.067,-0.81 8.204,-1.216 12.351,-1.213c5.894,0.055 11.762,0.79 17.487,2.191c4.601,1.023 9.039,2.671 13.192,4.9l1.015,-4.9l89.619,0l18.736,30.742l-48.058,0l1.829,-8.825l-39.174,0l-1.956,8.825l-27.367,0l4.494,-21.687l-9.052,17.247l-0.047,-0.03c-3.251,-2.067 -6.934,-4.41 -10.882,-5.449c-3.855,-1.015 -7.569,-1.1 -12.022,-1.1c-3.053,-0.029 -6.064,0.725 -8.743,2.191c-2.215,1.151 -3.28,1.772 -3.28,3.288c0.225,1.942 1.48,3.62 3.28,4.384c1.49,0.553 3.037,0.94 4.612,1.153l-118.089,0l2.839,-13.7l-17.233,13.646c-0.326,-0.416 -0.653,-0.839 -0.941,-1.212c-2.166,-2.8 -4.036,-5.225 -6.71,-6.459c-3.444,-1.503 -7.171,-2.251 -10.929,-2.191c-4.586,-0.098 -9.116,1.037 -13.115,3.286c-1.883,1.154 -3.571,2.6 -5,4.284c-1.472,1.699 -2.73,3.574 -3.745,5.58c-2.019,4.007 -2.186,8.507 -2.186,13.151c-0.054,2.292 0.268,4.578 0.953,6.766c0.664,2.028 1.842,3.85 3.418,5.289c1.779,1.562 3.89,2.698 6.173,3.322c2.616,0.738 5.325,1.095 8.042,1.061c2.593,0.044 5.175,-0.327 7.65,-1.1l3.961,-20.849l107.632,0l-5.9,28.463l6.871,-13.092c4.362,2.531 9.038,4.479 13.907,5.794c4.734,1.254 9.611,1.885 14.508,1.877c2.961,0 6.631,-0.125 8.743,-1.1c1.839,-0.845 3.279,-2.771 3.279,-4.384c0,-1.27 -0.981,-2.253 -3.279,-3.288c-1.577,-0.564 -3.211,-0.957 -4.872,-1.174c-1.489,-0.267 -3.174,-0.57 -4.965,-1.01c-4.47,-1.15 -8.852,-2.615 -13.115,-4.384c-3.137,-1.265 -6.355,-3.774 -9.836,-7.671l-0.012,-0.014l-0.012,-0.014l59.059,0c0.372,0.362 0.734,0.739 1.076,1.123c0.268,0.3 0.531,0.617 0.784,0.944l0.428,-2.067l63.276,0l-2.189,9.893l-34.973,0l-2.186,10.958l38.422,0l4.32,-20.849l83.062,0l-8.863,42.767l-22.951,0l-24.044,-39.453l-7.65,39.451l-95.083,0l1.682,-8.119c-3.175,2.464 -6.688,4.461 -10.43,5.928c-6.913,2.925 -14.348,4.416 -21.854,4.383Zm191.446,-55.831l-28.006,0l5.962,-30.742l28.416,0l-6.371,30.742l-0.001,0Z" style="fill:#fff;fill-rule:nonzero;"/><g id="GHANA"><text x="34.807px" y="140.868px" style="font-family:'Arial-BoldItalicMT', 'Arial', sans-serif;font-weight:700;font-style:italic;font-size:22px;fill:#f01d1d;">GHANA</text></g><g id="SOCCER"><text x="122.56px" y="140.868px" style="font-family:'Arial-BoldItalicMT', 'Arial', sans-serif;font-weight:700;font-style:italic;font-size:22px;fill:#f01d1d;">SOCCER</text></g><g id="EDUCATION"><text x="220.992px" y="140.868px" style="font-family:'Arial-BoldItalicMT', 'Arial', sans-serif;font-weight:700;font-style:italic;font-size:22px;fill:#f01d1d;">EDUCA<tspan x="297.518px 310.943px " y="140.868px 140.868px ">TI</tspan>ON</text></g><g id="NETWORK"><text x="356.134px" y="140.868px" style="font-family:'Arial-BoldItalicMT', 'Arial', sans-serif;font-weight:700;font-style:italic;font-size:22px;fill:#f01d1d;">NETWORK</text></g><g id="futbol-solid-2"><path d="M46.655,119.69c-5.196,0.364 -10.308,-0.301 -15.195,-1.977c-4.719,-1.618 -9.03,-4.105 -12.812,-7.392c-3.781,-3.287 -6.845,-7.209 -9.104,-11.656c-2.34,-4.606 -3.711,-9.576 -4.074,-14.771c-0.364,-5.196 0.301,-10.308 1.976,-15.195c1.618,-4.719 4.105,-9.03 7.392,-12.812c3.287,-3.782 7.209,-6.845 11.657,-9.104c4.606,-2.34 9.575,-3.711 14.771,-4.075c5.196,-0.363 10.308,0.302 15.195,1.977c4.719,1.618 9.029,4.105 12.811,7.392c3.782,3.287 6.845,7.209 9.105,11.657c2.34,4.606 3.71,9.575 4.074,14.771c0.364,5.195 -0.301,10.308 -1.977,15.194c-1.617,4.72 -4.104,9.03 -7.391,12.812c-3.287,3.782 -7.209,6.845 -11.657,9.105c-4.606,2.339 -9.576,3.71 -14.771,4.074Zm-6.182,-10.296c1.805,0.219 3.635,0.266 5.471,0.137c1.836,-0.128 3.641,-0.429 5.397,-0.898l-1.427,-0.72l-1.215,-0.611l0.487,-1.27l4.602,-11.988l0.299,-0.778l0.818,-0.159l12.59,-2.447l1.334,-0.259l0.861,2.853c1.565,-3.322 2.457,-6.901 2.638,-10.589l-1.125,1.129l-0.957,0.962l-1.055,-0.855l-9.959,-8.071l-0.648,-0.525l0.102,-0.827l1.573,-12.754l0.166,-1.346l1.356,0.027l1.557,0.03c-1.333,-1.244 -2.78,-2.358 -4.327,-3.328c-1.566,-0.982 -3.214,-1.803 -4.924,-2.457l0.736,1.435l0.619,1.208l-1.138,0.74l-10.746,6.976l-0.699,0.454l-0.755,-0.352l-11.614,-5.411l-1.23,-0.574l0.445,-1.282l0.529,-1.524c-1.601,0.885 -3.115,1.926 -4.528,3.115c-1.4,1.178 -2.681,2.484 -3.83,3.905l1.58,-0.253l1.342,-0.214l0.349,1.313l3.296,12.413l0.213,0.803l-0.566,0.608l-8.738,9.38l-0.925,0.993l-1.082,-0.819l-1.272,-0.961c0.693,3.626 2.075,7.047 4.088,10.118l0.248,-1.603l0.208,-1.342l14.164,0.74l0.832,0.044l0.405,0.728l6.227,11.23l0.659,1.189l-1.117,0.775l-1.314,0.912Zm12.624,-16.899l-1.09,0.076l-14.39,1.007l-1.087,0.076l-0.411,-1.009l-5.412,-13.308l-0.413,-1.015l0.84,-0.704l11.044,-9.246l0.835,-0.699l0.925,0.576l12.224,7.617l0.928,0.578l-0.264,1.061l-3.465,13.929l-0.264,1.061Z" style="fill:#f01d1d;fill-rule:nonzero;"/><path d="M41.371,44.208c-20.43,1.431 -35.832,19.151 -34.401,39.581c1.43,20.429 19.15,35.831 39.58,34.401c20.429,-1.43 35.831,-19.151 34.401,-39.58c-1.43,-20.43 -19.151,-35.832 -39.58,-34.402m9.744,7.942c6.208,1.522 11.716,5.014 15.785,9.858l-5.148,-0.1l-1.574,12.754l9.96,8.071l3.65,-3.664l0.004,0.042c0.449,6.416 -1.137,12.663 -4.507,18.001l-1.503,-4.976l-12.59,2.447l-4.602,11.988l4.646,2.34c-2.934,1.191 -6.044,1.9 -9.187,2.12c-3.146,0.22 -6.325,-0.05 -9.394,-0.819l4.275,-2.965l-6.227,-11.229l-12.808,-0.67l-0.796,5.137c-4.08,-4.817 -6.521,-10.782 -6.97,-17.198l-0.002,-0.042l4.125,3.12l8.738,-9.38l-3.296,-12.413l-5.124,0.819c3.361,-5.372 8.334,-9.593 14.258,-11.961l-1.703,4.907l11.614,5.411l10.746,-6.977l-2.37,-4.621m-7.972,17.375l-11.043,9.246l5.412,13.307l14.39,-1.007l3.465,-13.929l-12.224,-7.617m-1.982,-28.317c5.397,-0.377 10.709,0.314 15.787,2.055c4.904,1.681 9.382,4.264 13.311,7.679c3.928,3.415 7.111,7.489 9.458,12.111c2.432,4.786 3.856,9.949 4.234,15.347c0.378,5.397 -0.313,10.709 -2.054,15.787c-1.681,4.903 -4.265,9.382 -7.679,13.31c-3.415,3.929 -7.49,7.112 -12.111,9.459c-4.786,2.432 -9.95,3.856 -15.347,4.234c-5.398,0.378 -10.709,-0.313 -15.788,-2.054c-4.903,-1.681 -9.381,-4.265 -13.31,-7.68c-3.929,-3.414 -7.111,-7.489 -9.459,-12.11c-2.431,-4.787 -3.856,-9.95 -4.233,-15.347c-0.378,-5.398 0.313,-10.709 2.054,-15.788c1.681,-4.903 4.264,-9.381 7.679,-13.31c3.415,-3.929 7.489,-7.111 12.111,-9.459c4.786,-2.431 9.95,-3.856 15.347,-4.234Zm18.744,18.326c-0.549,-0.405 -1.113,-0.789 -1.693,-1.153c-0.581,-0.364 -1.174,-0.705 -1.778,-1.022c-0.153,0.77 -0.607,1.478 -1.312,1.935l-10.746,6.976c-0.198,0.129 -0.407,0.232 -0.625,0.31c0.342,0.07 0.675,0.201 0.983,0.393l12.223,7.617c0.074,0.046 0.146,0.095 0.215,0.146c-0.004,-0.146 0.003,-0.294 0.022,-0.442l1.573,-12.754c0.101,-0.821 0.527,-1.53 1.138,-2.006Zm-17.775,7.159c-0.225,-0.046 -0.448,-0.119 -0.661,-0.219l-11.614,-5.411c-0.761,-0.355 -1.309,-0.992 -1.568,-1.734c-0.552,0.397 -1.09,0.816 -1.613,1.256c-0.519,0.437 -1.021,0.893 -1.505,1.366c0.685,0.386 1.216,1.037 1.432,1.849l3.295,12.413c0.038,0.142 0.065,0.284 0.081,0.427c0.061,-0.061 0.125,-0.119 0.192,-0.175l11.044,-9.246c0.278,-0.233 0.589,-0.409 0.917,-0.526Zm28.218,19.04c-0.736,0.052 -1.49,-0.167 -2.103,-0.663l-9.871,-8c0.006,0.264 -0.023,0.533 -0.089,0.798l-3.411,13.714l12.334,-2.398c0.123,-0.024 0.245,-0.04 0.367,-0.048c0.701,-0.049 1.379,0.15 1.931,0.536c0.428,-1.289 0.756,-2.609 0.982,-3.952c-0.046,0.005 -0.093,0.01 -0.14,0.013Zm-35.706,7.27l-5.328,-13.099c-0.104,-0.256 -0.171,-0.52 -0.202,-0.785l-8.66,9.296c-0.537,0.577 -1.254,0.899 -1.99,0.95c-0.047,0.003 -0.094,0.006 -0.141,0.007c0.411,1.298 0.919,2.559 1.523,3.777c0.493,-0.459 1.137,-0.752 1.838,-0.801c0.122,-0.008 0.245,-0.009 0.37,-0.003l12.59,0.658Zm17.47,1.068l-14.39,1.007c-0.033,0.003 -0.066,0.004 -0.099,0.006l5.937,10.704c0.404,0.73 0.475,1.561 0.254,2.31c0.673,0.003 1.349,-0.02 2.025,-0.067c0.676,-0.047 1.347,-0.119 2.014,-0.216c-0.323,-0.71 -0.369,-1.543 -0.07,-2.322l4.386,-11.427c-0.019,0.002 -0.038,0.004 -0.057,0.005Z" style="fill:#fff;fill-rule:nonzero;"/></g><path id="graduation-cap-solid" d="M110.297,27.398l-42.25,-25.465c-2.31,-1.39 -4.984,-2.057 -7.675,-1.914l-49.263,2.649c-1.808,0.015 -3.39,1.262 -3.828,3.017c-0.437,1.755 0.374,3.598 1.964,4.461l7.366,4.44c-2.333,1.729 -4.037,4.175 -4.852,6.962c-1.872,0.464 -3.339,1.93 -3.806,3.802c-0.424,1.698 0.035,3.501 1.22,4.791l-8.887,17.8c-0.089,0.177 -0.158,0.365 -0.207,0.558c-0.358,1.437 0.53,2.915 1.967,3.273c0.002,0 0.003,0.001 0.005,0.001l9.204,2.295c0.001,0 0.003,0.001 0.004,0.001c1.438,0.359 2.915,-0.529 3.273,-1.966c0.049,-0.194 0.075,-0.392 0.08,-0.591l0.511,-19.888c1.653,-0.577 2.907,-1.952 3.331,-3.651c0.453,-1.819 -0.111,-3.748 -1.474,-5.037c0.728,-2.397 2.544,-4.317 4.898,-5.176l29.617,17.854c2.31,1.388 4.983,2.055 7.675,1.913l49.262,-2.649c1.809,-0.015 3.391,-1.262 3.829,-3.018c0.438,-1.755 -0.374,-3.599 -1.964,-4.462Zm-50.836,15.531c-3.774,0.2 -7.522,-0.734 -10.759,-2.682l-21.967,-13.239l-6.967,18.034c-1.445,5.798 11.483,14.014 28.878,18.351c17.394,4.337 32.666,3.15 34.111,-2.647l2.312,-19.193l-25.608,1.376Z" style="fill:#f01d1d;fill-rule:nonzero;"/></g></svg>