<svg xmlns="http://www.w3.org/2000/svg" viewBox="0 0 42.248 42.239"><defs><style>.a{fill:#fff;}</style></defs><path class="a" d="M21.054,42.115A10.829,10.829,0,1,0,31.883,52.944,10.812,10.812,0,0,0,21.054,42.115Zm0,17.87a7.041,7.041,0,1,1,7.041-7.041,7.053,7.053,0,0,1-7.041,7.041Zm13.8-18.313a2.526,2.526,0,1,1-2.526-2.526A2.52,2.52,0,0,1,34.852,41.672Zm7.172,2.564c-.16-3.384-.933-6.381-3.412-8.85s-5.467-3.242-8.85-3.412c-3.487-.2-13.94-.2-17.427,0-3.374.16-6.371.933-8.85,3.4S.243,40.842.073,44.226c-.2,3.487-.2,13.94,0,17.427.16,3.384.933,6.381,3.412,8.85s5.467,3.242,8.85,3.412c3.487.2,13.94.2,17.427,0,3.384-.16,6.381-.933,8.85-3.412s3.242-5.467,3.412-8.85C42.222,58.166,42.222,47.723,42.024,44.235ZM37.519,65.395A7.128,7.128,0,0,1,33.5,69.41c-2.78,1.1-9.378.848-12.45.848s-9.68.245-12.45-.848a7.128,7.128,0,0,1-4.015-4.015c-1.1-2.78-.848-9.378-.848-12.45s-.245-9.68.848-12.45A7.128,7.128,0,0,1,8.6,36.479c2.78-1.1,9.378-.848,12.45-.848s9.68-.245,12.45.848a7.128,7.128,0,0,1,4.015,4.015c1.1,2.78.848,9.378.848,12.45S38.622,62.624,37.519,65.395Z" transform="translate(0.075 -31.825)"/></svg>