<svg xmlns="http://www.w3.org/2000/svg" xmlns:xlink="http://www.w3.org/1999/xlink" width="502.652" height="252.781" viewBox="0 0 502.652 252.781"><defs><filter id="a" x="0" y="22.799" width="229.982" height="229.981" filterUnits="userSpaceOnUse"><feOffset dy="42" input="SourceAlpha"/><feGaussianBlur stdDeviation="25" result="b"/><feFlood flood-color="#edc1c1" flood-opacity="0.161"/><feComposite operator="in" in2="b"/><feComposite in="SourceGraphic"/></filter></defs><g transform="translate(-1814.106 189.605)"><path d="M-30.03.2A6.11,6.11,0,0,1-33.91-.88,3.749,3.749,0,0,1-35.27-4a6.949,6.949,0,0,1,.12-1.24q.3-1.64.78-3.66a6.518,6.518,0,0,1,2.58-3.91,8.119,8.119,0,0,1,4.82-1.39,7.749,7.749,0,0,1,3,.52,4.2,4.2,0,0,1,1.85,1.37,3.022,3.022,0,0,1,.61,1.79,2.383,2.383,0,0,1-.04.52.457.457,0,0,1-.18.31.531.531,0,0,1-.34.13h-3.1a.525.525,0,0,1-.3-.07.477.477,0,0,1-.16-.21,1.751,1.751,0,0,0-.57-.96,2.083,2.083,0,0,0-1.41-.4,2.781,2.781,0,0,0-2.9,2.4q-.36,1.5-.74,3.46a5.615,5.615,0,0,0-.08.74q0,1.8,2,1.8a3.261,3.261,0,0,0,1.95-.58,2.728,2.728,0,0,0,1.05-1.76l.08-.36h-1.8a.383.383,0,0,1-.33-.15.413.413,0,0,1-.05-.37l.32-1.56a.613.613,0,0,1,.22-.37.61.61,0,0,1,.4-.15h5.1a.383.383,0,0,1,.33.15.461.461,0,0,1,.07.37l-.5,2.32A6.5,6.5,0,0,1-23.9-2.33,6.8,6.8,0,0,1-26.53-.45,9.116,9.116,0,0,1-30.03.2Zm8.78-.2a.423.423,0,0,1-.34-.14.412.412,0,0,1-.08-.36l2.76-12.98a.613.613,0,0,1,.22-.37.61.61,0,0,1,.4-.15h2.72a.41.41,0,0,1,.34.15.439.439,0,0,1,.08.37l-1.02,4.74h4.74l1.02-4.74a.632.632,0,0,1,.21-.37A.572.572,0,0,1-9.81-14h2.74a.383.383,0,0,1,.33.15.461.461,0,0,1,.07.37L-9.43-.5a.572.572,0,0,1-.22.36.61.61,0,0,1-.38.14h-2.74a.41.41,0,0,1-.34-.15.406.406,0,0,1-.08-.35l1.06-4.9h-4.74L-17.91-.5a.572.572,0,0,1-.22.36.636.636,0,0,1-.4.14Zm13.6,0a.359.359,0,0,1-.28-.11.387.387,0,0,1-.1-.27A.5.5,0,0,1-7.97-.6L-.59-13.42A1.031,1.031,0,0,1,.33-14H3.57a.61.61,0,0,1,.68.58L6.19-.6a.579.579,0,0,1-.12.44A.457.457,0,0,1,5.71,0H3.17a.547.547,0,0,1-.62-.48l-.32-1.9H-2.99L-4.15-.44A.861.861,0,0,1-4.91,0Zm6.12-5.38H2.03l-.7-5.1ZM8.01,0a.423.423,0,0,1-.34-.14A.412.412,0,0,1,7.59-.5l2.76-12.98a.632.632,0,0,1,.21-.37.572.572,0,0,1,.39-.15h2.24a.568.568,0,0,1,.62.38l3.14,7.5,1.58-7.36a.632.632,0,0,1,.21-.37.572.572,0,0,1,.39-.15h2.54a.383.383,0,0,1,.33.15.461.461,0,0,1,.07.37L19.31-.52a.632.632,0,0,1-.21.37.572.572,0,0,1-.39.15H16.47a.586.586,0,0,1-.4-.11,1.292,1.292,0,0,1-.22-.27l-3.18-7.2L11.15-.5a.572.572,0,0,1-.22.36.61.61,0,0,1-.38.14ZM21.09,0a.359.359,0,0,1-.28-.11.387.387,0,0,1-.1-.27.5.5,0,0,1,.06-.22l7.38-12.82a1.031,1.031,0,0,1,.92-.58h3.24a.61.61,0,0,1,.68.58L34.93-.6a.579.579,0,0,1-.12.44.457.457,0,0,1-.36.16H31.91a.547.547,0,0,1-.62-.48l-.32-1.9H25.75L24.59-.44a.861.861,0,0,1-.76.44Zm6.12-5.38h3.56l-.7-5.1Z" transform="translate(1944 -32.825)" fill="#f01d1d"/><path d="M-35.36.2A8.557,8.557,0,0,1-38.4-.28a4.3,4.3,0,0,1-1.9-1.29,2.82,2.82,0,0,1-.64-1.79,4.244,4.244,0,0,1,.04-.48.434.434,0,0,1,.17-.3.516.516,0,0,1,.33-.12h2.68a.757.757,0,0,1,.39.08.99.99,0,0,1,.27.28,1.486,1.486,0,0,0,.65.79,2.514,2.514,0,0,0,1.35.31,3.976,3.976,0,0,0,1.75-.33,1.385,1.385,0,0,0,.81-.91.949.949,0,0,0,.02-.22.868.868,0,0,0-.62-.78,13.135,13.135,0,0,0-2.24-.64q-3.98-.82-3.98-3.52a4.191,4.191,0,0,1,.12-.98,4.558,4.558,0,0,1,2.01-2.95,7.362,7.362,0,0,1,4.15-1.07,6.56,6.56,0,0,1,2.72.54,4.964,4.964,0,0,1,1.87,1.37,2.655,2.655,0,0,1,.67,1.67,2.4,2.4,0,0,1-.04.34.659.659,0,0,1-.16.31.391.391,0,0,1-.3.13h-2.84a.6.6,0,0,1-.6-.36.96.96,0,0,0-.47-.71,1.987,1.987,0,0,0-1.13-.29,2.809,2.809,0,0,0-1.39.3,1.334,1.334,0,0,0-.67.88.949.949,0,0,0-.02.22.867.867,0,0,0,.55.77,8.478,8.478,0,0,0,1.97.59,7.5,7.5,0,0,1,3.3,1.26,2.713,2.713,0,0,1,1.04,2.22,4.263,4.263,0,0,1-.1.98A4.651,4.651,0,0,1-30.79-.86,8.6,8.6,0,0,1-35.36.2Zm13.74,0a7.355,7.355,0,0,1-2.79-.5,4.422,4.422,0,0,1-1.95-1.48,3.942,3.942,0,0,1-.72-2.4,7.112,7.112,0,0,1,.1-1.06q.34-1.94.74-3.46a7.359,7.359,0,0,1,2.41-4.11,7.212,7.212,0,0,1,4.65-1.39,7.125,7.125,0,0,1,2.78.52,4.463,4.463,0,0,1,1.96,1.53,4.076,4.076,0,0,1,.72,2.43,6.364,6.364,0,0,1-.1,1.02q-.28,1.62-.74,3.46a7.167,7.167,0,0,1-2.41,4.09A7.36,7.36,0,0,1-21.62.2Zm.3-3a2.75,2.75,0,0,0,1.83-.63,3.537,3.537,0,0,0,1.07-1.93q.44-1.82.7-3.28a4.171,4.171,0,0,0,.08-.82q0-1.74-1.82-1.74a2.75,2.75,0,0,0-1.83.63,3.537,3.537,0,0,0-1.07,1.93q-.34,1.26-.72,3.28a4.171,4.171,0,0,0-.08.82Q-23.16-2.8-21.32-2.8ZM-7.4.2A6.527,6.527,0,0,1-11.39-.91a3.758,3.758,0,0,1-1.49-3.21,7.281,7.281,0,0,1,.1-1.1q.24-1.44.76-3.56a7.08,7.08,0,0,1,2.43-4.04A7.317,7.317,0,0,1-4.96-14.2a8.116,8.116,0,0,1,2.85.48A4.7,4.7,0,0,1-.07-12.33a3.3,3.3,0,0,1,.75,2.17,3.979,3.979,0,0,1-.08.82.564.564,0,0,1-.17.3.441.441,0,0,1-.31.12H-2.76a.628.628,0,0,1-.41-.11.573.573,0,0,1-.15-.41,1.584,1.584,0,0,0-.49-1.36,2.3,2.3,0,0,0-1.45-.4,2.819,2.819,0,0,0-2.9,2.52q-.42,1.66-.72,3.36a4.07,4.07,0,0,0-.08.8A1.672,1.672,0,0,0-8.5-3.21a2.02,2.02,0,0,0,1.38.41,3.194,3.194,0,0,0,1.63-.4A2.894,2.894,0,0,0-4.36-4.56a1,1,0,0,1,.3-.41.767.767,0,0,1,.44-.11H-.74a.344.344,0,0,1,.28.12.332.332,0,0,1,.06.3A6.011,6.011,0,0,1-2.8-1.08,7.807,7.807,0,0,1-7.4.2ZM6.58.2A6.527,6.527,0,0,1,2.59-.91,3.758,3.758,0,0,1,1.1-4.12a7.281,7.281,0,0,1,.1-1.1q.24-1.44.76-3.56a7.08,7.08,0,0,1,2.43-4.04A7.317,7.317,0,0,1,9.02-14.2a8.116,8.116,0,0,1,2.85.48,4.7,4.7,0,0,1,2.04,1.39,3.3,3.3,0,0,1,.75,2.17,3.979,3.979,0,0,1-.08.82.564.564,0,0,1-.17.3.441.441,0,0,1-.31.12H11.22a.628.628,0,0,1-.41-.11.573.573,0,0,1-.15-.41,1.584,1.584,0,0,0-.49-1.36,2.3,2.3,0,0,0-1.45-.4,2.819,2.819,0,0,0-2.9,2.52Q5.4-7.02,5.1-5.32a4.07,4.07,0,0,0-.08.8,1.672,1.672,0,0,0,.46,1.31,2.02,2.02,0,0,0,1.38.41,3.194,3.194,0,0,0,1.63-.4A2.894,2.894,0,0,0,9.62-4.56a1,1,0,0,1,.3-.41.767.767,0,0,1,.44-.11h2.88a.344.344,0,0,1,.28.12.332.332,0,0,1,.06.3,6.011,6.011,0,0,1-2.4,3.58A7.807,7.807,0,0,1,6.58.2ZM15,0a.423.423,0,0,1-.34-.14.412.412,0,0,1-.08-.36l2.76-12.98a.613.613,0,0,1,.22-.37.61.61,0,0,1,.4-.15H27.4a.383.383,0,0,1,.33.15.461.461,0,0,1,.07.37l-.42,1.98a.572.572,0,0,1-.22.36.636.636,0,0,1-.4.14H20.44l-.56,2.54h5.9a.383.383,0,0,1,.33.15.461.461,0,0,1,.07.37L25.8-6.12a.613.613,0,0,1-.22.37.61.61,0,0,1-.4.15h-5.9L18.74-3h6.48a.383.383,0,0,1,.33.15.461.461,0,0,1,.07.37L25.2-.5a.572.572,0,0,1-.22.36A.61.61,0,0,1,24.6,0ZM27.98,0a.372.372,0,0,1-.31-.14A.432.432,0,0,1,27.6-.5l2.74-12.98a.613.613,0,0,1,.22-.37.61.61,0,0,1,.4-.15h5.5a5.919,5.919,0,0,1,3.52.9,3,3,0,0,1,1.24,2.58,5.436,5.436,0,0,1-.12,1.1,5.028,5.028,0,0,1-1.14,2.38,5.833,5.833,0,0,1-2.12,1.52L39.5-.64a.447.447,0,0,1,.02.22.52.52,0,0,1-.19.3A.516.516,0,0,1,39,0H36.18a.657.657,0,0,1-.7-.54L34.2-4.88H32.28L31.34-.5a.572.572,0,0,1-.22.36.636.636,0,0,1-.4.14Zm7.14-7.82a2.179,2.179,0,0,0,1.4-.43,1.986,1.986,0,0,0,.7-1.19,2.013,2.013,0,0,0,.04-.46,1.148,1.148,0,0,0-.36-.89,1.551,1.551,0,0,0-1.08-.33H33.6l-.7,3.3Z" transform="translate(2030 -32.825)" fill="#f01d1d"/><path d="M-57.26,0a.423.423,0,0,1-.34-.14.412.412,0,0,1-.08-.36l2.76-12.98a.613.613,0,0,1,.22-.37.61.61,0,0,1,.4-.15h9.44a.383.383,0,0,1,.33.15.461.461,0,0,1,.07.37l-.42,1.98a.572.572,0,0,1-.22.36.636.636,0,0,1-.4.14h-6.32l-.56,2.54h5.9a.383.383,0,0,1,.33.15.461.461,0,0,1,.07.37l-.38,1.82a.613.613,0,0,1-.22.37.61.61,0,0,1-.4.15h-5.9L-53.52-3h6.48a.383.383,0,0,1,.33.15.461.461,0,0,1,.07.37L-47.06-.5a.572.572,0,0,1-.22.36.61.61,0,0,1-.38.14Zm12.72,0a.423.423,0,0,1-.34-.14.412.412,0,0,1-.08-.36l2.76-12.98a.613.613,0,0,1,.22-.37.61.61,0,0,1,.4-.15h4.92a7.384,7.384,0,0,1,2.84.52,4.613,4.613,0,0,1,2,1.52,3.922,3.922,0,0,1,.74,2.4,6.364,6.364,0,0,1-.1,1.02q-.28,1.62-.64,3.06a7.5,7.5,0,0,1-2.35,4.17A7.332,7.332,0,0,1-38.86,0Zm5.88-3a3.05,3.05,0,0,0,1.98-.6,3.42,3.42,0,0,0,1.06-1.92q.42-1.78.64-2.98a4.9,4.9,0,0,0,.06-.72,1.642,1.642,0,0,0-.53-1.34A2.482,2.482,0,0,0-37.06-11h-1.9l-1.72,8ZM-24.64.2A6.48,6.48,0,0,1-28.49-.85a3.575,3.575,0,0,1-1.47-3.11,6.677,6.677,0,0,1,.16-1.36l1.74-8.16a.632.632,0,0,1,.21-.37.572.572,0,0,1,.39-.15h2.74a.383.383,0,0,1,.33.15.461.461,0,0,1,.07.37l-1.74,8.12a5.046,5.046,0,0,0-.1.88,1.536,1.536,0,0,0,.44,1.21,2.043,2.043,0,0,0,1.38.39,2.735,2.735,0,0,0,2.86-2.48l1.74-8.12a.632.632,0,0,1,.21-.37.572.572,0,0,1,.39-.15h2.74a.383.383,0,0,1,.33.15.461.461,0,0,1,.07.37l-1.72,8.16a7.045,7.045,0,0,1-2.29,4.19A7.248,7.248,0,0,1-24.64.2Zm14.36,0A6.527,6.527,0,0,1-14.27-.91a3.758,3.758,0,0,1-1.49-3.21,7.281,7.281,0,0,1,.1-1.1q.24-1.44.76-3.56a7.08,7.08,0,0,1,2.43-4.04A7.317,7.317,0,0,1-7.84-14.2a8.116,8.116,0,0,1,2.85.48,4.7,4.7,0,0,1,2.04,1.39,3.3,3.3,0,0,1,.75,2.17,3.979,3.979,0,0,1-.08.82.564.564,0,0,1-.17.3.441.441,0,0,1-.31.12H-5.64a.628.628,0,0,1-.41-.11.573.573,0,0,1-.15-.41,1.584,1.584,0,0,0-.49-1.36,2.3,2.3,0,0,0-1.45-.4,2.819,2.819,0,0,0-2.9,2.52q-.42,1.66-.72,3.36a4.07,4.07,0,0,0-.08.8,1.672,1.672,0,0,0,.46,1.31A2.02,2.02,0,0,0-10-2.8a3.194,3.194,0,0,0,1.63-.4A2.894,2.894,0,0,0-7.24-4.56a1,1,0,0,1,.3-.41.767.767,0,0,1,.44-.11h2.88a.344.344,0,0,1,.28.12.332.332,0,0,1,.06.3,6.011,6.011,0,0,1-2.4,3.58A7.807,7.807,0,0,1-10.28.2ZM-3.32,0A.359.359,0,0,1-3.6-.11a.387.387,0,0,1-.1-.27A.5.5,0,0,1-3.64-.6L3.74-13.42A1.031,1.031,0,0,1,4.66-14H7.9a.61.61,0,0,1,.68.58L10.52-.6a.579.579,0,0,1-.12.44.457.457,0,0,1-.36.16H7.5a.547.547,0,0,1-.62-.48l-.32-1.9H1.34L.18-.44A.861.861,0,0,1-.58,0ZM2.8-5.38H6.36l-.7-5.1ZM13.9,0a.423.423,0,0,1-.34-.14.412.412,0,0,1-.08-.36l2.18-10.24H12.14a.423.423,0,0,1-.34-.14.412.412,0,0,1-.08-.36l.48-2.24a.613.613,0,0,1,.22-.37.61.61,0,0,1,.4-.15H23.68a.41.41,0,0,1,.34.15.439.439,0,0,1,.08.37l-.5,2.24a.588.588,0,0,1-.21.36.6.6,0,0,1-.39.14H19.48L17.28-.5a.588.588,0,0,1-.21.36.6.6,0,0,1-.39.14Zm9.46,0a.383.383,0,0,1-.33-.15.425.425,0,0,1-.07-.35l2.78-13a.588.588,0,0,1,.21-.36.6.6,0,0,1,.39-.14h2.84a.431.431,0,0,1,.33.14.4.4,0,0,1,.09.36L26.82-.5a.572.572,0,0,1-.22.36.61.61,0,0,1-.38.14ZM35.4.2a7.355,7.355,0,0,1-2.79-.5,4.422,4.422,0,0,1-1.95-1.48,3.942,3.942,0,0,1-.72-2.4,7.112,7.112,0,0,1,.1-1.06q.34-1.94.74-3.46a7.359,7.359,0,0,1,2.41-4.11,7.212,7.212,0,0,1,4.65-1.39,7.125,7.125,0,0,1,2.78.52,4.463,4.463,0,0,1,1.96,1.53,4.076,4.076,0,0,1,.72,2.43,6.364,6.364,0,0,1-.1,1.02q-.28,1.62-.74,3.46a7.167,7.167,0,0,1-2.41,4.09A7.36,7.36,0,0,1,35.4.2Zm.3-3a2.75,2.75,0,0,0,1.83-.63A3.537,3.537,0,0,0,38.6-5.36q.44-1.82.7-3.28a4.171,4.171,0,0,0,.08-.82q0-1.74-1.82-1.74a2.75,2.75,0,0,0-1.83.63,3.537,3.537,0,0,0-1.07,1.93q-.34,1.26-.72,3.28a4.171,4.171,0,0,0-.08.82Q33.86-2.8,35.7-2.8ZM44.06,0a.423.423,0,0,1-.34-.14.412.412,0,0,1-.08-.36L46.4-13.48a.632.632,0,0,1,.21-.37A.572.572,0,0,1,47-14h2.24a.568.568,0,0,1,.62.38L53-6.12l1.58-7.36a.632.632,0,0,1,.21-.37.572.572,0,0,1,.39-.15h2.54a.383.383,0,0,1,.33.15.461.461,0,0,1,.07.37L55.36-.52a.632.632,0,0,1-.21.37.572.572,0,0,1-.39.15H52.52a.586.586,0,0,1-.4-.11,1.292,1.292,0,0,1-.22-.27l-3.18-7.2L47.2-.5a.572.572,0,0,1-.22.36A.61.61,0,0,1,46.6,0Z" transform="translate(2138 -31.825)" fill="#f01d1d"/><path d="M-48.04,0a.423.423,0,0,1-.34-.14.412.412,0,0,1-.08-.36l2.76-12.98a.632.632,0,0,1,.21-.37A.572.572,0,0,1-45.1-14h2.24a.568.568,0,0,1,.62.38l3.14,7.5,1.58-7.36a.632.632,0,0,1,.21-.37.572.572,0,0,1,.39-.15h2.54a.383.383,0,0,1,.33.15.461.461,0,0,1,.07.37L-36.74-.52a.632.632,0,0,1-.21.37.572.572,0,0,1-.39.15h-2.24a.586.586,0,0,1-.4-.11,1.292,1.292,0,0,1-.22-.27l-3.18-7.2L-44.9-.5a.572.572,0,0,1-.22.36A.61.61,0,0,1-45.5,0ZM-33.7,0a.423.423,0,0,1-.34-.14.412.412,0,0,1-.08-.36l2.76-12.98a.613.613,0,0,1,.22-.37.61.61,0,0,1,.4-.15h9.44a.383.383,0,0,1,.33.15.461.461,0,0,1,.07.37l-.42,1.98a.572.572,0,0,1-.22.36.636.636,0,0,1-.4.14h-6.32l-.56,2.54h5.9a.383.383,0,0,1,.33.15.461.461,0,0,1,.07.37l-.38,1.82a.613.613,0,0,1-.22.37.61.61,0,0,1-.4.15h-5.9L-29.96-3h6.48a.383.383,0,0,1,.33.15.461.461,0,0,1,.07.37L-23.5-.5a.572.572,0,0,1-.22.36A.61.61,0,0,1-24.1,0Zm15.78,0a.423.423,0,0,1-.34-.14.412.412,0,0,1-.08-.36l2.18-10.24h-3.52a.423.423,0,0,1-.34-.14.412.412,0,0,1-.08-.36l.48-2.24a.613.613,0,0,1,.22-.37A.61.61,0,0,1-19-14H-8.14a.41.41,0,0,1,.34.15.439.439,0,0,1,.08.37l-.5,2.24a.588.588,0,0,1-.21.36.6.6,0,0,1-.39.14h-3.52L-14.54-.5a.588.588,0,0,1-.21.36.6.6,0,0,1-.39.14ZM-6.7,0a.656.656,0,0,1-.5-.19.592.592,0,0,1-.16-.47l.44-12.88a.508.508,0,0,1,.17-.32A.5.5,0,0,1-6.4-14h2.54q.58,0,.52.5l-.34,7.44,2.28-4.3a.847.847,0,0,1,.76-.54H.86a.522.522,0,0,1,.56.54L1.9-6l2.84-7.54a.6.6,0,0,1,.25-.36.929.929,0,0,1,.47-.1h2.7a.338.338,0,0,1,.25.09.311.311,0,0,1,.09.23.635.635,0,0,1-.04.18L3.76-.66a1.153,1.153,0,0,1-.37.47A.917.917,0,0,1,2.82,0H.76A.617.617,0,0,1,.29-.16.605.605,0,0,1,.12-.52l-1-5.54L-3.82-.52A.916.916,0,0,1-4.68,0ZM13.58.2a7.355,7.355,0,0,1-2.79-.5A4.422,4.422,0,0,1,8.84-1.78a3.942,3.942,0,0,1-.72-2.4,7.112,7.112,0,0,1,.1-1.06q.34-1.94.74-3.46a7.359,7.359,0,0,1,2.41-4.11,7.212,7.212,0,0,1,4.65-1.39,7.125,7.125,0,0,1,2.78.52,4.463,4.463,0,0,1,1.96,1.53,4.076,4.076,0,0,1,.72,2.43,6.364,6.364,0,0,1-.1,1.02q-.28,1.62-.74,3.46a7.167,7.167,0,0,1-2.41,4.09A7.36,7.36,0,0,1,13.58.2Zm.3-3a2.75,2.75,0,0,0,1.83-.63,3.537,3.537,0,0,0,1.07-1.93q.44-1.82.7-3.28a4.171,4.171,0,0,0,.08-.82q0-1.74-1.82-1.74a2.75,2.75,0,0,0-1.83.63,3.537,3.537,0,0,0-1.07,1.93q-.34,1.26-.72,3.28a4.171,4.171,0,0,0-.08.82Q12.04-2.8,13.88-2.8ZM22.5,0a.372.372,0,0,1-.31-.14.432.432,0,0,1-.07-.36l2.74-12.98a.613.613,0,0,1,.22-.37.61.61,0,0,1,.4-.15h5.5a5.919,5.919,0,0,1,3.52.9,3,3,0,0,1,1.24,2.58,5.436,5.436,0,0,1-.12,1.1,5.028,5.028,0,0,1-1.14,2.38,5.833,5.833,0,0,1-2.12,1.52L34.02-.64a.446.446,0,0,1,.02.22.52.52,0,0,1-.19.3.516.516,0,0,1-.33.12H30.7A.657.657,0,0,1,30-.54L28.72-4.88H26.8L25.86-.5a.572.572,0,0,1-.22.36.636.636,0,0,1-.4.14Zm7.14-7.82a2.179,2.179,0,0,0,1.4-.43,1.986,1.986,0,0,0,.7-1.19,2.013,2.013,0,0,0,.04-.46,1.148,1.148,0,0,0-.36-.89,1.551,1.551,0,0,0-1.08-.33H28.12l-.7,3.3ZM36.04,0a.423.423,0,0,1-.34-.14.412.412,0,0,1-.08-.36l2.76-12.98a.632.632,0,0,1,.21-.37.572.572,0,0,1,.39-.15h2.68a.41.41,0,0,1,.34.15.439.439,0,0,1,.08.37l-.92,4.3,4.28-4.42a1.044,1.044,0,0,1,.86-.4h3.14a.328.328,0,0,1,.27.11.412.412,0,0,1,.09.27.384.384,0,0,1-.12.28L43.66-7.02,47.32-.66a.472.472,0,0,1,.06.2.417.417,0,0,1-.16.32.509.509,0,0,1-.34.14H43.92a.733.733,0,0,1-.72-.4L40.34-5.34,39.3-.5a.588.588,0,0,1-.21.36.57.57,0,0,1-.37.14Z" transform="translate(2254 -31.825)" fill="#f01d1d"/><path d="M117.478,95.975a94.831,94.831,0,0,1-22.42-2.558A64.929,64.929,0,0,1,79.91,87.9a58.9,58.9,0,0,1-12.452,5.251,71.721,71.721,0,0,1-20.388,2.82c-9.309,0-17.624-1.743-24.715-5.18a42.331,42.331,0,0,1-9.473-6.211A37.336,37.336,0,0,1,1.459,66.311,43.221,43.221,0,0,1,0,54.937,59.547,59.547,0,0,1,1.869,39.826,51.294,51.294,0,0,1,16.422,15.389a54.455,54.455,0,0,1,11.9-8.375A59.4,59.4,0,0,1,42.677,1.753,73.436,73.436,0,0,1,59,0,65.369,65.369,0,0,1,80.9,3.386a41.615,41.615,0,0,1,16.07,10.157A37.4,37.4,0,0,1,110.79,4.262C117.752,1.434,126.089,0,135.571,0a85.515,85.515,0,0,1,19.078,2.032,53.783,53.783,0,0,1,15.063,5.71L170.841,2.1h98.99l20,32.433H237.909l1.819-9.095H196.539l-1.775,9.095h-30.41l5.173-25.863L158.779,30.418A42.034,42.034,0,0,0,146.913,25.3,52.4,52.4,0,0,0,133.6,23.6c-4.262,0-7.615.618-9.964,1.836s-3.54,2.673-3.54,4.326,1.081,2.977,3.212,3.934c.6.27,1.322.551,2.142.835h-36.3v-.048a33.748,33.748,0,0,1,1.011-8.36L79.321,34.531H78.05a25.4,25.4,0,0,0-8.823-7.194,27.791,27.791,0,0,0-11.669-2.294,26.973,26.973,0,0,0-13.964,3.54,23.747,23.747,0,0,0-9.178,9.9A31.835,31.835,0,0,0,31.2,52.969,19.157,19.157,0,0,0,32.549,60.3a15.955,15.955,0,0,0,4.032,5.72A17.586,17.586,0,0,0,42.972,69.7a26.815,26.815,0,0,0,8.424,1.23,31.152,31.152,0,0,0,9.046-1.312l4.7-23.359h26.88l-4.2,21.154,1.863-3.563a65.173,65.173,0,0,0,15.144,6.392,59.5,59.5,0,0,0,15.8,2.131c3.916,0,6.959-.485,9.046-1.442s3.148-2.281,3.148-3.934c0-1.566-1.081-2.845-3.212-3.8a64.664,64.664,0,0,0-10.162-3.148,125.669,125.669,0,0,1-15.209-4.785A28.283,28.283,0,0,1,93.68,47.791a16.525,16.525,0,0,1-1.215-1.529h64.577a28.945,28.945,0,0,1,2.393,2.381,16.292,16.292,0,0,1,1.657,2.2l.917-4.583h69.227l-2.443,12.215H189.852l-2.36,12.062h43.216l4.855-24.277h90.468l-9.523,47.616H291.071L264.718,51.135,256.2,93.877H152.485l1.97-9.85a39.36,39.36,0,0,1-12.328,7.687C135.166,94.542,126.873,95.975,117.478,95.975Zm210.9-61.444H298.241L304.707,2.1h30.156L328.377,34.53Z" transform="translate(1981.895 -147.455)" fill="#fff"/><g transform="matrix(1, 0, 0, 1, 1814.11, -189.61)" filter="url(#a)"><g transform="translate(70 50.8)" fill="#f01d1d" stroke-linejoin="round"><path d="M 44.99077224731445 83.48142242431641 C 39.79519271850586 83.48142242431641 34.75424957275391 82.46353912353516 30.00793838500977 80.45602416992188 C 25.4243049621582 78.51732635498047 21.30810546875 75.74220275878906 17.77367210388184 72.20777130126953 C 14.23922824859619 68.67334747314453 11.4641170501709 64.55713653564453 9.525405883789062 59.97351455688477 C 7.517894268035889 55.22721481323242 6.500005722045898 50.18627166748047 6.500005722045898 44.99070358276367 C 6.500005722045898 39.79513549804688 7.517894268035889 34.75419235229492 9.525405883789062 30.00790405273438 C 11.4641170501709 25.42427062988281 14.23922824859619 21.30808258056641 17.77367210388184 17.77364921569824 C 21.30810546875 14.23921489715576 25.4243049621582 11.46410369873047 30.00793838500977 9.52540397644043 C 34.75424957275391 7.517892837524414 39.79519271850586 6.500003814697266 44.99077224731445 6.500003814697266 C 50.18635177612305 6.500003814697266 55.227294921875 7.517892837524414 59.97359466552734 9.52540397644043 C 64.55723571777344 11.46410369873047 68.67343902587891 14.23921489715576 72.2078857421875 17.77364921569824 C 75.74231719970703 21.30808258056641 78.51744079589844 25.42427062988281 80.45614624023438 30.00790405273438 C 82.46366119384766 34.75419235229492 83.48155212402344 39.79513549804688 83.48155212402344 44.99070358276367 C 83.48155212402344 50.18627166748047 82.46366119384766 55.22721481323242 80.45614624023438 59.97351455688477 C 78.51744079589844 64.55713653564453 75.74231719970703 68.67334747314453 72.2078857421875 72.20777130126953 C 68.67343902587891 75.74220275878906 64.55723571777344 78.51732635498047 59.97359466552734 80.45602416992188 C 55.227294921875 82.46353912353516 50.18635177612305 83.48142242431641 44.99077224731445 83.48142242431641 Z M 39.55680465698242 72.80465698242188 C 41.33721923828125 73.14891815185547 43.15495300292969 73.32256317138672 44.99096298217773 73.32256317138672 C 46.8267936706543 73.32256317138672 48.64437866210938 73.14892578125 50.42473983764648 72.80466461181641 L 49.05421829223633 71.98945617675781 L 47.88809585571289 71.29583740234375 L 48.46165084838867 70.06620025634766 L 53.87617111206055 58.45799255371094 L 54.22762680053711 57.70450210571289 L 55.05287170410156 57.60323715209961 L 67.75176239013672 56.04500579833984 L 69.09681701660156 55.87995910644531 L 69.39714813232422 57.2014045715332 L 69.75565338134766 58.77880859375 C 71.5443115234375 55.58254623413086 72.68124389648438 52.08265686035156 73.11846923828125 48.42531585693359 L 71.92012786865234 49.47087097167969 L 70.90011596679688 50.36082458496094 L 69.91049194335938 49.43719100952148 L 60.56152725219727 40.7115592956543 L 59.95352935791016 40.14409255981445 L 60.11275100708008 39.32779312133789 L 62.56697082519531 26.74573707580566 L 62.82590484619141 25.41824913024902 L 64.17302703857422 25.53889274597168 L 65.72075653076172 25.67749977111816 C 64.48088073730469 24.3466625213623 63.11808013916016 23.1378173828125 61.64608383178711 22.06474876403809 C 60.15600967407227 20.97850799560547 58.57397079467773 20.04619598388672 56.91749954223633 19.27671051025391 L 57.5497932434082 20.75608253479004 L 58.08203887939453 22.00138092041016 L 56.89742660522461 22.65769195556641 L 45.71770477294922 28.85153770446777 L 44.99078369140625 29.25427055358887 L 44.26385116577148 28.85153770446777 L 33.08412933349609 22.6578254699707 L 31.89949417114258 22.00152587890625 L 32.4317512512207 20.7562141418457 L 33.06400299072266 19.27694892883301 C 31.40996170043945 20.04537582397461 29.82999229431152 20.97624588012695 28.34151649475098 22.06071472167969 C 26.86609840393066 23.13566780090332 25.50071716308594 24.34653091430664 24.25849914550781 25.68016815185547 L 25.84856033325195 25.53880310058594 L 27.19893836975098 25.41874885559082 L 27.45450592041016 26.75014877319336 L 29.86964988708496 39.33220291137695 L 30.0258731842041 40.14608001708984 L 29.42001724243164 40.7115478515625 L 20.07119369506836 49.43718338012695 L 19.08157157897949 50.36083602905273 L 18.06156158447266 49.47087097167969 L 16.86322021484375 48.42531204223633 C 17.30043029785156 52.08263397216797 18.43729209899902 55.58242797851562 20.22590827941895 58.77872467041016 L 20.58439445495605 57.2014045715332 L 20.88472747802734 55.87995910644531 L 22.22978401184082 56.04500579833984 L 34.92866134643555 57.60323715209961 L 35.75390625 57.70450210571289 L 36.10536193847656 58.45799255371094 L 41.51988220214844 70.06620025634766 L 42.09343719482422 71.29583740234375 L 40.92731857299805 71.98945617675781 L 39.55680465698242 72.80465698242188 Z M 53.29640579223633 56.86763763427734 L 52.20606231689453 56.86763763427734 L 37.8160514831543 56.86763763427734 L 36.72878265380859 56.86763763427734 L 36.39050674438477 55.8343391418457 L 31.93162727355957 42.21460342407227 L 31.59132766723633 41.1751708984375 L 32.4769287109375 40.5333366394043 L 44.11052703857422 32.10199356079102 L 44.99077224731445 31.46404838562012 L 45.87101745605469 32.10199356079102 L 57.50460433959961 40.5333366394043 L 58.3877067565918 41.17335891723633 L 58.05116271972656 42.21075820922852 L 53.63286209106445 55.83049392700195 L 53.29640579223633 56.86763763427734 Z" stroke="none"/><path d="M 44.99077224731445 8 C 24.56127166748047 8 8 24.56124877929688 8 44.99070358276367 C 8 65.420166015625 24.56127166748047 81.98143005371094 44.99077224731445 81.98143005371094 C 65.42025756835938 81.98143005371094 81.98154449462891 65.420166015625 81.98154449462891 44.99070358276367 C 81.98154449462891 24.56124877929688 65.42025756835938 8 44.99077224731445 8 M 54.13436126708984 16.58168792724609 C 60.20575714111328 18.52848052978516 65.44339752197266 22.38758850097656 69.15573120117188 27.49111557006836 L 64.03923034667969 27.03291320800781 L 61.58501052856445 39.61496353149414 L 70.93397521972656 48.34060287475586 L 74.82159423828125 44.94863891601562 L 74.82203674316406 44.99070358276367 C 74.82203674316406 51.40663909912109 72.80886840820312 57.51265335083008 69.08352661132812 62.58977508544922 L 67.9344482421875 57.53384017944336 L 55.23556137084961 59.09206390380859 L 49.8210334777832 70.70027923583984 L 54.28110885620117 73.35318756103516 C 51.27841567993164 74.333251953125 48.13399887084961 74.82255554199219 44.99094772338867 74.82255554199219 C 41.84482955932617 74.82255554199219 38.7000732421875 74.332275390625 35.70042037963867 73.35318756103516 L 40.16049575805664 70.70027923583984 L 34.7459716796875 59.09206390380859 L 22.04709625244141 57.53384017944336 L 20.89799499511719 62.58977508544922 C 17.17281341552734 57.51265335083008 15.15964508056641 51.40663909912109 15.15964508056641 44.99070358276367 L 15.16009521484375 44.94865417480469 L 19.04770660400391 48.34060287475586 L 28.39653396606445 39.61496353149414 L 25.98139953613281 27.03291320800781 L 20.82581329345703 27.49126434326172 C 24.54412078857422 22.37953948974609 29.78682327270508 18.52503967285156 35.84718322753906 16.58184051513672 L 33.81105804443359 21.34574127197266 L 44.99077224731445 27.5394401550293 L 56.17049789428711 21.34558868408203 L 54.13436126708984 16.58168792724609 M 44.99077224731445 33.31655120849609 L 33.35717391967773 41.74790191650391 L 37.81604766845703 55.36762619018555 L 52.20605850219727 55.36762619018555 L 56.62435913085938 41.74790191650391 L 44.99077224731445 33.31655120849609 M 44.99077224731445 5 C 50.38818359375 5 55.6257209777832 6.057762145996094 60.55792236328125 8.143890380859375 C 65.32035827636719 10.15822601318359 69.59682464599609 13.04127502441406 73.26853942871094 16.71298980712891 C 76.94024658203125 20.38468933105469 79.82331085205078 24.66115570068359 81.837646484375 29.42357635498047 C 83.92378234863281 34.35576629638672 84.98154449462891 39.59330368041992 84.98154449462891 44.99070358276367 C 84.98154449462891 50.38810348510742 83.92378234863281 55.62565231323242 81.837646484375 60.55783843994141 C 79.82331085205078 65.32026672363281 76.94024658203125 69.59672546386719 73.26853942871094 73.26844024658203 C 69.59682464599609 76.94013977050781 65.32035827636719 79.82320404052734 60.55792236328125 81.83753967285156 C 55.6257209777832 83.92366790771484 50.38818359375 84.98143005371094 44.99077224731445 84.98143005371094 C 39.59336090087891 84.98143005371094 34.35580825805664 83.92366790771484 29.42362213134766 81.83753967285156 C 24.66118621826172 79.82320404052734 20.38471221923828 76.94013977050781 16.71299743652344 73.26844024658203 C 13.04129791259766 69.59672546386719 10.15822601318359 65.32026672363281 8.143898010253906 60.55783843994141 C 6.057762145996094 55.62565231323242 5 50.38810348510742 5 44.99070358276367 C 5 39.59330368041992 6.057762145996094 34.35576629638672 8.143898010253906 29.42357635498047 C 10.15822601318359 24.66115570068359 13.04129791259766 20.38468933105469 16.7130126953125 16.71298980712891 C 20.38471221923828 13.04127502441406 24.66118621826172 10.15822601318359 29.42362213134766 8.143890380859375 C 34.35580825805664 6.057762145996094 39.59336090087891 5 44.99077224731445 5 Z M 62.36714935302734 24.54209899902344 C 61.84895324707031 24.10077667236328 61.31379699707031 23.67877197265625 60.76245880126953 23.27685546875 C 60.20947265625 22.87373352050781 59.64335632324219 22.49314880371094 59.0647087097168 22.13535308837891 C 58.85805511474609 22.89169311523438 58.35714721679688 23.56378173828125 57.62435913085938 23.96976470947266 L 46.44463348388672 30.16361618041992 C 46.23872375488281 30.27769470214844 46.02276229858398 30.36579895019531 45.80129623413086 30.42793655395508 C 46.1360969543457 30.52178573608398 46.45805740356445 30.67493057250977 46.75125885009766 30.88742828369141 L 58.38484954833984 39.31877899169922 C 58.45535278320312 39.369873046875 58.52305603027344 39.42357635498047 58.58800506591797 39.47976303100586 C 58.59461975097656 39.3335075378418 58.61199951171875 39.18671417236328 58.64049530029297 39.04061508178711 L 61.09472274780273 26.45856475830078 C 61.25274658203125 25.64845275878906 61.72588348388672 24.97282409667969 62.36714935302734 24.54209899902344 Z M 44.18025207519531 30.42793273925781 C 43.95878601074219 30.36579895019531 43.74284744262695 30.27770614624023 43.53693389892578 30.16362762451172 L 32.35722351074219 23.96992492675781 C 31.62442779541016 23.56394958496094 31.12355422973633 22.89201354980469 30.91689682006836 22.13566589355469 C 30.34029006958008 22.49221801757812 29.7760009765625 22.87148284912109 29.22481155395508 23.27306365966797 C 28.67759704589844 23.6717529296875 28.14635848999023 24.09017944335938 27.63178634643555 24.52764129638672 C 28.28657913208008 24.95925903320312 28.76963424682617 25.64440155029297 28.92760848999023 26.46738815307617 L 31.34274673461914 39.0494384765625 C 31.37023544311523 39.19263458251953 31.38705062866211 39.33644485473633 31.39353179931641 39.47975540161133 C 31.45845413208008 39.42359924316406 31.52621078491211 39.36985015869141 31.59668350219727 39.31877899169922 L 43.23028564453125 30.88742828369141 C 43.52348709106445 30.67493057250977 43.84545135498047 30.52178192138672 44.18025207519531 30.42793273925781 Z M 70.9342041015625 51.34060668945312 C 70.19783020019531 51.34060668945312 69.46240234375 51.07079315185547 68.88702392578125 50.53377914428711 L 59.62139511108398 41.88591766357422 C 59.6092643737793 42.1493034362793 59.56216430664062 42.41405487060547 59.47795867919922 42.67362594604492 L 55.12797164916992 56.08277130126953 L 67.56907653808594 54.55617904663086 C 67.692626953125 54.541015625 67.81550598144531 54.53361511230469 67.93716430664062 54.53361511230469 C 68.63845062255859 54.53361129760742 69.29961395263672 54.77952575683594 69.82180786132812 55.20187377929688 C 70.33774566650391 53.94855880737305 70.75592803955078 52.6581916809082 71.07421875 51.33735275268555 C 71.02761077880859 51.33951950073242 70.98085021972656 51.34060668945312 70.9342041015625 51.34060668945312 Z M 34.89516448974609 56.08787536621094 L 30.50607299804688 42.68130111694336 C 30.42030334472656 42.4193229675293 30.37238693237305 42.15190887451172 30.36013031005859 41.88593673706055 L 21.09467315673828 50.53376388549805 C 20.51936340332031 51.07072448730469 19.78377532958984 51.34060287475586 19.04747772216797 51.34060287475586 C 19.00074768066406 51.34060287475586 18.95414733886719 51.33951950073242 18.90745544433594 51.33734893798828 C 19.22573089599609 52.6581916809082 19.64389801025391 53.94853973388672 20.15982818603516 55.20186233520508 C 20.68195343017578 54.77957534790039 21.34319305419922 54.53367614746094 22.04438018798828 54.53361511230469 C 22.16612243652344 54.53360366821289 22.288818359375 54.5410041809082 22.4124755859375 54.55617904663086 L 34.89516448974609 56.08787536621094 Z M 52.20605850219727 58.36763000488281 L 37.81604766845703 58.36763000488281 C 37.78311157226562 58.36763000488281 37.75035858154297 58.36709213256836 37.71762084960938 58.36602401733398 L 42.8792839050293 69.43212890625 C 43.23111724853516 70.18642425537109 43.24340438842773 71.01840209960938 42.97154235839844 71.74821472167969 C 43.64123153686523 71.79771423339844 44.31482315063477 71.82255554199219 44.99094772338867 71.82255554199219 C 45.6670036315918 71.82255554199219 46.34035491943359 71.7977294921875 47.00999450683594 71.74822998046875 C 46.73813247680664 71.01841735839844 46.75041580200195 70.18642425537109 47.10224914550781 69.43212890625 L 52.2634162902832 58.36708068847656 C 52.24435806274414 58.36744689941406 52.22518539428711 58.36763000488281 52.20605850219727 58.36763000488281 Z" stroke="none" fill="#fff"/></g></g><path d="M105.209,15.08,58.053.592a13.5,13.5,0,0,0-7.91,0L2.985,15.08a3.98,3.98,0,0,0,0,7.707l8.221,2.526a13.322,13.322,0,0,0-3.023,7.929,5.217,5.217,0,0,0-.431,8.963L3.436,61.626a2.7,2.7,0,0,0,2.639,3.292h9.486A2.7,2.7,0,0,0,18.2,61.626L13.885,42.205a5.2,5.2,0,0,0-.3-8.879,7.975,7.975,0,0,1,3.5-6.208L50.141,37.277a13.52,13.52,0,0,0,7.91,0l47.158-14.488A3.981,3.981,0,0,0,105.209,15.08ZM59.64,42.448a18.925,18.925,0,0,1-11.088,0L24.035,34.917,21.638,54.1c0,5.976,14.532,10.82,32.459,10.82S86.555,60.074,86.555,54.1l-2.4-19.183Z" transform="translate(1903.731 -189.605) rotate(18)" fill="#f01d1d"/></g></svg>