<?xml version="1.0" encoding="UTF-8" standalone="no"?><!DOCTYPE svg PUBLIC "-//W3C//DTD SVG 1.1//EN" "http://www.w3.org/Graphics/SVG/1.1/DTD/svg11.dtd"><svg width="100%" height="100%" viewBox="0 0 430 143" version="1.1" xmlns="http://www.w3.org/2000/svg" xmlns:xlink="http://www.w3.org/1999/xlink" xml:space="preserve" xmlns:serif="http://www.serif.com/" style="fill-rule:evenodd;clip-rule:evenodd;stroke-linejoin:round;stroke-miterlimit:1.41421;"><g><path d="M26.391,141.723c-1.378,0.089 -2.746,-0.292 -3.88,-1.08c-0.926,-0.762 -1.432,-1.923 -1.36,-3.12c0.003,-0.416 0.043,-0.831 0.12,-1.24c0.2,-1.093 0.46,-2.313 0.78,-3.66c0.346,-1.577 1.265,-2.972 2.58,-3.91c1.419,-0.96 3.107,-1.447 4.82,-1.39c1.024,-0.027 2.044,0.15 3,0.52c0.732,0.276 1.373,0.75 1.85,1.37c0.389,0.516 0.603,1.144 0.61,1.79c0.006,0.174 -0.008,0.349 -0.04,0.52c-0.015,0.124 -0.08,0.236 -0.18,0.31c-0.095,0.082 -0.215,0.128 -0.34,0.13l-3.1,0c-0.105,0.007 -0.209,-0.017 -0.3,-0.07c-0.072,-0.053 -0.128,-0.126 -0.16,-0.21c-0.08,-0.373 -0.28,-0.711 -0.57,-0.96c-0.406,-0.3 -0.907,-0.442 -1.41,-0.4c-1.436,-0.075 -2.705,0.976 -2.9,2.4c-0.24,1 -0.487,2.153 -0.74,3.46c-0.043,0.245 -0.07,0.492 -0.08,0.74c0,1.2 0.667,1.8 2,1.8c0.695,0.02 1.378,-0.184 1.95,-0.58c0.565,-0.428 0.942,-1.059 1.05,-1.76l0.08,-0.36l-1.8,0c-0.128,0.009 -0.252,-0.048 -0.33,-0.15c-0.075,-0.108 -0.093,-0.246 -0.05,-0.37l0.32,-1.56c0.026,-0.146 0.104,-0.277 0.22,-0.37c0.111,-0.096 0.253,-0.15 0.4,-0.15l5.1,0c0.128,-0.008 0.252,0.048 0.33,0.15c0.075,0.108 0.1,0.243 0.07,0.37l-0.5,2.32c-0.214,1.08 -0.699,2.089 -1.41,2.93c-0.713,0.829 -1.615,1.474 -2.63,1.88c-1.113,0.445 -2.302,0.666 -3.5,0.65Zm8.78,-0.2c-0.129,0.008 -0.254,-0.044 -0.34,-0.14c-0.082,-0.1 -0.112,-0.234 -0.08,-0.36l2.76,-12.98c0.026,-0.146 0.104,-0.277 0.22,-0.37c0.111,-0.096 0.253,-0.15 0.4,-0.15l2.72,0c0.131,-0.007 0.257,0.049 0.34,0.15c0.081,0.105 0.111,0.241 0.08,0.37l-1.02,4.74l4.74,0l1.02,-4.74c0.025,-0.144 0.099,-0.275 0.21,-0.37c0.106,-0.097 0.246,-0.151 0.39,-0.15l2.74,0c0.128,-0.008 0.252,0.048 0.33,0.15c0.075,0.108 0.1,0.243 0.07,0.37l-2.76,12.98c-0.025,0.144 -0.104,0.273 -0.22,0.36c-0.107,0.089 -0.241,0.138 -0.38,0.14l-2.74,0c-0.131,0.007 -0.257,-0.049 -0.34,-0.15c-0.08,-0.098 -0.109,-0.227 -0.08,-0.35l1.06,-4.9l-4.74,0l-1.04,4.9c-0.025,0.144 -0.104,0.273 -0.22,0.36c-0.113,0.091 -0.255,0.141 -0.4,0.14l-2.72,0Zm13.6,0c-0.105,0.006 -0.207,-0.034 -0.28,-0.11c-0.067,-0.074 -0.103,-0.17 -0.1,-0.27c0.003,-0.077 0.023,-0.152 0.06,-0.22l7.38,-12.82c0.171,-0.352 0.529,-0.577 0.92,-0.58l3.24,0c0.023,-0.003 0.047,-0.004 0.07,-0.004c0.325,0 0.596,0.26 0.61,0.584l1.94,12.82c0.022,0.157 -0.022,0.316 -0.12,0.44c-0.09,0.105 -0.222,0.164 -0.36,0.16l-2.54,0c-0.025,0.004 -0.051,0.006 -0.077,0.006c-0.276,0 -0.512,-0.211 -0.543,-0.486l-0.32,-1.9l-5.22,0l-1.16,1.94c-0.154,0.274 -0.446,0.443 -0.76,0.44l-2.74,0Zm6.12,-5.38l3.56,0l-0.7,-5.1l-2.86,5.1Zm9.54,5.38c-0.129,0.008 -0.254,-0.044 -0.34,-0.14c-0.082,-0.1 -0.112,-0.234 -0.08,-0.36l2.76,-12.98c0.025,-0.144 0.099,-0.275 0.21,-0.37c0.106,-0.097 0.246,-0.151 0.39,-0.15l2.24,0c0.27,-0.039 0.532,0.121 0.62,0.38l3.14,7.5l1.58,-7.36c0.025,-0.144 0.099,-0.275 0.21,-0.37c0.106,-0.097 0.246,-0.151 0.39,-0.15l2.54,0c0.128,-0.008 0.252,0.048 0.33,0.15c0.075,0.108 0.1,0.243 0.07,0.37l-2.76,12.96c-0.025,0.144 -0.099,0.275 -0.21,0.37c-0.106,0.097 -0.246,0.151 -0.39,0.15l-2.24,0c-0.142,0.013 -0.285,-0.026 -0.4,-0.11c-0.085,-0.08 -0.159,-0.17 -0.22,-0.27l-3.18,-7.2l-1.52,7.08c-0.025,0.144 -0.104,0.273 -0.22,0.36c-0.107,0.089 -0.241,0.138 -0.38,0.14l-2.54,0Zm13.08,0c-0.105,0.006 -0.207,-0.034 -0.28,-0.11c-0.067,-0.074 -0.103,-0.17 -0.1,-0.27c0.003,-0.077 0.023,-0.152 0.06,-0.22l7.38,-12.82c0.171,-0.352 0.529,-0.577 0.92,-0.58l3.24,0c0.023,-0.003 0.047,-0.004 0.07,-0.004c0.325,0 0.596,0.26 0.61,0.584l1.94,12.82c0.022,0.157 -0.022,0.316 -0.12,0.44c-0.09,0.105 -0.222,0.164 -0.36,0.16l-2.54,0c-0.025,0.004 -0.051,0.006 -0.077,0.006c-0.276,0 -0.512,-0.211 -0.543,-0.486l-0.32,-1.9l-5.22,0l-1.16,1.94c-0.154,0.274 -0.446,0.443 -0.76,0.44l-2.74,0Zm6.12,-5.38l3.56,0l-0.7,-5.1l-2.86,5.1Z" style="fill:#f01d1d;fill-rule:nonzero;"/><path d="M107.061,141.723c-1.034,0.025 -2.064,-0.137 -3.04,-0.48c-0.739,-0.25 -1.395,-0.696 -1.9,-1.29c-0.414,-0.504 -0.64,-1.137 -0.64,-1.79c0.004,-0.16 0.018,-0.321 0.04,-0.48c0.013,-0.119 0.074,-0.228 0.17,-0.3c0.092,-0.077 0.209,-0.12 0.33,-0.12l2.68,0c0.135,-0.008 0.269,0.019 0.39,0.08c0.108,0.075 0.199,0.17 0.27,0.28c0.116,0.332 0.347,0.612 0.65,0.79c0.412,0.228 0.88,0.335 1.35,0.31c0.601,0.024 1.199,-0.089 1.75,-0.33c0.396,-0.162 0.695,-0.498 0.81,-0.91c0.015,-0.072 0.022,-0.146 0.02,-0.22c-0.022,-0.364 -0.271,-0.676 -0.62,-0.78c-0.726,-0.279 -1.476,-0.493 -2.24,-0.64c-2.653,-0.547 -3.98,-1.72 -3.98,-3.52c0.001,-0.33 0.041,-0.659 0.12,-0.98c0.241,-1.215 0.967,-2.281 2.01,-2.95c1.246,-0.76 2.691,-1.133 4.15,-1.07c0.935,-0.016 1.862,0.168 2.72,0.54c0.723,0.303 1.363,0.772 1.87,1.37c0.411,0.462 0.648,1.053 0.67,1.67c-0.005,0.114 -0.019,0.228 -0.04,0.34c-0.025,0.116 -0.08,0.223 -0.16,0.31c-0.076,0.085 -0.186,0.133 -0.3,0.13l-2.84,0c-0.256,0.021 -0.498,-0.124 -0.6,-0.36c-0.037,-0.297 -0.211,-0.56 -0.47,-0.71c-0.339,-0.207 -0.733,-0.308 -1.13,-0.29c-0.481,-0.021 -0.96,0.083 -1.39,0.3c-0.34,0.183 -0.585,0.504 -0.67,0.88c-0.015,0.072 -0.022,0.146 -0.02,0.22c0.015,0.342 0.231,0.645 0.55,0.77c0.63,0.276 1.292,0.474 1.97,0.59c1.184,0.151 2.316,0.583 3.3,1.26c0.68,0.532 1.066,1.357 1.04,2.22c0.005,0.33 -0.029,0.658 -0.1,0.98c-0.241,1.297 -1.024,2.433 -2.15,3.12c-1.396,0.77 -2.978,1.137 -4.57,1.06Zm13.74,0c-0.954,0.016 -1.901,-0.154 -2.79,-0.5c-0.776,-0.3 -1.452,-0.813 -1.95,-1.48c-0.495,-0.7 -0.747,-1.543 -0.72,-2.4c0.007,-0.355 0.04,-0.71 0.1,-1.06c0.227,-1.293 0.473,-2.447 0.74,-3.46c0.325,-1.599 1.173,-3.045 2.41,-4.11c1.342,-0.986 2.986,-1.478 4.65,-1.39c0.952,-0.014 1.897,0.163 2.78,0.52c0.785,0.314 1.465,0.845 1.96,1.53c0.492,0.713 0.744,1.564 0.72,2.43c-0.006,0.342 -0.039,0.683 -0.1,1.02c-0.187,1.08 -0.433,2.233 -0.74,3.46c-0.315,1.597 -1.166,3.04 -2.41,4.09c-1.353,0.962 -2.993,1.437 -4.65,1.35Zm0.3,-3c0.666,0.019 1.317,-0.205 1.83,-0.63c0.553,-0.513 0.928,-1.189 1.07,-1.93c0.293,-1.213 0.527,-2.307 0.7,-3.28c0.054,-0.27 0.08,-0.545 0.08,-0.82c0,-1.16 -0.607,-1.74 -1.82,-1.74c-0.666,-0.019 -1.317,0.205 -1.83,0.63c-0.553,0.513 -0.928,1.189 -1.07,1.93c-0.227,0.84 -0.467,1.933 -0.72,3.28c-0.054,0.27 -0.081,0.545 -0.08,0.82c0,1.16 0.613,1.74 1.84,1.74Zm13.92,3c-1.415,0.073 -2.816,-0.317 -3.99,-1.11c-1,-0.754 -1.56,-1.96 -1.49,-3.21c0.005,-0.369 0.039,-0.736 0.1,-1.1c0.16,-0.96 0.413,-2.147 0.76,-3.56c0.325,-1.584 1.182,-3.011 2.43,-4.04c1.342,-0.971 2.975,-1.457 4.63,-1.38c0.971,-0.012 1.936,0.151 2.85,0.48c0.792,0.273 1.496,0.753 2.04,1.39c0.501,0.61 0.768,1.381 0.75,2.17c0.002,0.275 -0.025,0.55 -0.08,0.82c-0.024,0.115 -0.084,0.22 -0.17,0.3c-0.084,0.079 -0.195,0.122 -0.31,0.12l-2.88,0c-0.145,0.012 -0.29,-0.027 -0.41,-0.11c-0.102,-0.111 -0.156,-0.259 -0.15,-0.41c0.065,-0.505 -0.118,-1.012 -0.49,-1.36c-0.425,-0.292 -0.936,-0.433 -1.45,-0.4c-1.47,-0.05 -2.745,1.058 -2.9,2.52c-0.28,1.107 -0.52,2.227 -0.72,3.36c-0.053,0.264 -0.08,0.531 -0.08,0.8c-0.044,0.483 0.124,0.961 0.46,1.31c0.394,0.302 0.885,0.448 1.38,0.41c0.569,0.014 1.132,-0.124 1.63,-0.4c0.509,-0.324 0.904,-0.8 1.13,-1.36c0.063,-0.16 0.166,-0.301 0.3,-0.41c0.132,-0.08 0.286,-0.118 0.44,-0.11l2.88,0c0.107,-0.006 0.21,0.039 0.28,0.12c0.067,0.084 0.09,0.196 0.06,0.3c-0.33,1.449 -1.185,2.725 -2.4,3.58c-1.362,0.897 -2.971,1.344 -4.6,1.28Zm13.98,0c-1.415,0.073 -2.816,-0.317 -3.99,-1.11c-1,-0.754 -1.56,-1.96 -1.49,-3.21c0.005,-0.369 0.039,-0.736 0.1,-1.1c0.16,-0.96 0.413,-2.147 0.76,-3.56c0.325,-1.584 1.182,-3.011 2.43,-4.04c1.342,-0.971 2.975,-1.457 4.63,-1.38c0.971,-0.012 1.936,0.151 2.85,0.48c0.792,0.273 1.496,0.753 2.04,1.39c0.501,0.61 0.768,1.381 0.75,2.17c0.002,0.275 -0.025,0.55 -0.08,0.82c-0.024,0.115 -0.084,0.22 -0.17,0.3c-0.084,0.079 -0.195,0.122 -0.31,0.12l-2.88,0c-0.145,0.012 -0.29,-0.027 -0.41,-0.11c-0.102,-0.111 -0.156,-0.259 -0.15,-0.41c0.065,-0.505 -0.118,-1.012 -0.49,-1.36c-0.425,-0.292 -0.936,-0.433 -1.45,-0.4c-1.47,-0.05 -2.745,1.058 -2.9,2.52c-0.28,1.107 -0.52,2.227 -0.72,3.36c-0.053,0.264 -0.08,0.531 -0.08,0.8c-0.044,0.483 0.124,0.961 0.46,1.31c0.394,0.302 0.885,0.448 1.38,0.41c0.569,0.014 1.132,-0.124 1.63,-0.4c0.509,-0.324 0.904,-0.8 1.13,-1.36c0.063,-0.16 0.166,-0.301 0.3,-0.41c0.132,-0.08 0.286,-0.118 0.44,-0.11l2.88,0c0.107,-0.006 0.21,0.039 0.28,0.12c0.067,0.084 0.09,0.196 0.06,0.3c-0.33,1.449 -1.185,2.725 -2.4,3.58c-1.362,0.897 -2.971,1.344 -4.6,1.28Zm8.42,-0.2c-0.129,0.008 -0.254,-0.044 -0.34,-0.14c-0.082,-0.1 -0.112,-0.234 -0.08,-0.36l2.76,-12.98c0.026,-0.146 0.104,-0.277 0.22,-0.37c0.111,-0.096 0.253,-0.15 0.4,-0.15l9.44,0c0.128,-0.008 0.252,0.048 0.33,0.15c0.075,0.108 0.1,0.243 0.07,0.37l-0.42,1.98c-0.025,0.144 -0.104,0.273 -0.22,0.36c-0.113,0.091 -0.255,0.141 -0.4,0.14l-6.32,0l-0.56,2.54l5.9,0c0.128,-0.008 0.252,0.048 0.33,0.15c0.075,0.108 0.1,0.243 0.07,0.37l-0.38,1.82c-0.026,0.146 -0.104,0.277 -0.22,0.37c-0.111,0.097 -0.253,0.15 -0.4,0.15l-5.9,0l-0.54,2.6l6.48,0c0.128,-0.008 0.252,0.048 0.33,0.15c0.075,0.108 0.1,0.243 0.07,0.37l-0.42,1.98c-0.025,0.144 -0.104,0.273 -0.22,0.36c-0.107,0.089 -0.241,0.138 -0.38,0.14l-9.6,0Zm12.98,0c-0.12,0.006 -0.235,-0.046 -0.31,-0.14c-0.076,-0.103 -0.101,-0.236 -0.07,-0.36l2.74,-12.98c0.026,-0.146 0.104,-0.277 0.22,-0.37c0.111,-0.096 0.253,-0.15 0.4,-0.15l5.5,0c1.238,-0.076 2.47,0.239 3.52,0.9c0.823,0.594 1.29,1.567 1.24,2.58c-0.003,0.37 -0.043,0.738 -0.12,1.1c-0.161,0.881 -0.555,1.702 -1.14,2.38c-0.583,0.66 -1.308,1.18 -2.12,1.52l1.66,4.88c0.025,0.071 0.032,0.146 0.02,0.22c-0.026,0.119 -0.094,0.226 -0.19,0.3c-0.093,0.077 -0.209,0.12 -0.33,0.12l-2.82,0c-0.336,0.027 -0.641,-0.208 -0.7,-0.54l-1.28,-4.34l-1.92,0l-0.94,4.38c-0.025,0.144 -0.104,0.273 -0.22,0.36c-0.113,0.091 -0.255,0.141 -0.4,0.14l-2.74,0Zm7.14,-7.82c0.502,0.023 0.997,-0.129 1.4,-0.43c0.368,-0.3 0.616,-0.722 0.7,-1.19c0.031,-0.151 0.044,-0.306 0.04,-0.46c0.016,-0.335 -0.116,-0.66 -0.36,-0.89c-0.306,-0.242 -0.692,-0.359 -1.08,-0.33l-2.22,0l-0.7,3.3l2.22,0Z" style="fill:#f01d1d;fill-rule:nonzero;"/><path d="M193.161,142.523c-0.129,0.008 -0.254,-0.044 -0.34,-0.14c-0.082,-0.1 -0.112,-0.234 -0.08,-0.36l2.76,-12.98c0.026,-0.146 0.104,-0.277 0.22,-0.37c0.111,-0.096 0.253,-0.15 0.4,-0.15l9.44,0c0.128,-0.008 0.252,0.048 0.33,0.15c0.075,0.108 0.1,0.243 0.07,0.37l-0.42,1.98c-0.025,0.144 -0.104,0.273 -0.22,0.36c-0.113,0.091 -0.255,0.141 -0.4,0.14l-6.32,0l-0.56,2.54l5.9,0c0.128,-0.008 0.252,0.048 0.33,0.15c0.075,0.108 0.1,0.243 0.07,0.37l-0.38,1.82c-0.026,0.146 -0.104,0.277 -0.22,0.37c-0.111,0.097 -0.253,0.15 -0.4,0.15l-5.9,0l-0.54,2.6l6.48,0c0.128,-0.008 0.252,0.048 0.33,0.15c0.075,0.108 0.1,0.243 0.07,0.37l-0.42,1.98c-0.025,0.144 -0.104,0.273 -0.22,0.36c-0.107,0.089 -0.241,0.138 -0.38,0.14l-9.6,0Zm12.72,0c-0.129,0.008 -0.254,-0.044 -0.34,-0.14c-0.082,-0.1 -0.112,-0.234 -0.08,-0.36l2.76,-12.98c0.026,-0.146 0.104,-0.277 0.22,-0.37c0.111,-0.096 0.253,-0.15 0.4,-0.15l4.92,0c0.972,-0.015 1.937,0.162 2.84,0.52c0.794,0.312 1.487,0.838 2,1.52c0.503,0.697 0.763,1.541 0.74,2.4c-0.006,0.342 -0.039,0.683 -0.1,1.02c-0.187,1.08 -0.4,2.1 -0.64,3.06c-0.307,1.609 -1.133,3.074 -2.35,4.17c-1.368,0.958 -3.024,1.42 -4.69,1.31l-5.68,0Zm5.88,-3c0.709,0.037 1.41,-0.175 1.98,-0.6c0.554,-0.506 0.927,-1.181 1.06,-1.92c0.28,-1.187 0.493,-2.18 0.64,-2.98c0.038,-0.238 0.058,-0.479 0.06,-0.72c0.039,-0.504 -0.157,-0.999 -0.53,-1.34c-0.47,-0.328 -1.039,-0.483 -1.61,-0.44l-1.9,0l-1.72,8l2.02,0Zm14.02,3.2c-1.362,0.064 -2.709,-0.304 -3.85,-1.05c-0.988,-0.716 -1.544,-1.891 -1.47,-3.11c0.006,-0.457 0.06,-0.913 0.16,-1.36l1.74,-8.16c0.025,-0.144 0.099,-0.275 0.21,-0.37c0.106,-0.097 0.246,-0.151 0.39,-0.15l2.74,0c0.128,-0.008 0.252,0.048 0.33,0.15c0.075,0.108 0.1,0.243 0.07,0.37l-1.74,8.12c-0.059,0.29 -0.093,0.584 -0.1,0.88c-0.038,0.448 0.123,0.891 0.44,1.21c0.398,0.293 0.888,0.431 1.38,0.39c1.455,0.073 2.726,-1.029 2.86,-2.48l1.74,-8.12c0.025,-0.144 0.099,-0.275 0.21,-0.37c0.106,-0.097 0.246,-0.151 0.39,-0.15l2.74,0c0.128,-0.008 0.252,0.048 0.33,0.15c0.075,0.108 0.1,0.243 0.07,0.37l-1.72,8.16c-0.252,1.62 -1.063,3.103 -2.29,4.19c-1.346,0.958 -2.981,1.428 -4.63,1.33Zm14.36,0c-1.415,0.073 -2.816,-0.317 -3.99,-1.11c-1,-0.754 -1.56,-1.96 -1.49,-3.21c0.005,-0.369 0.039,-0.736 0.1,-1.1c0.16,-0.96 0.413,-2.147 0.76,-3.56c0.325,-1.584 1.182,-3.011 2.43,-4.04c1.342,-0.971 2.975,-1.457 4.63,-1.38c0.971,-0.012 1.936,0.151 2.85,0.48c0.792,0.273 1.496,0.753 2.04,1.39c0.501,0.61 0.768,1.381 0.75,2.17c0.002,0.275 -0.025,0.55 -0.08,0.82c-0.024,0.115 -0.084,0.22 -0.17,0.3c-0.084,0.079 -0.195,0.122 -0.31,0.12l-2.88,0c-0.145,0.012 -0.29,-0.027 -0.41,-0.11c-0.102,-0.111 -0.156,-0.259 -0.15,-0.41c0.065,-0.505 -0.118,-1.012 -0.49,-1.36c-0.425,-0.292 -0.936,-0.433 -1.45,-0.4c-1.47,-0.05 -2.745,1.058 -2.9,2.52c-0.28,1.107 -0.52,2.227 -0.72,3.36c-0.053,0.264 -0.08,0.531 -0.08,0.8c-0.044,0.483 0.124,0.961 0.46,1.31c0.394,0.302 0.885,0.448 1.38,0.41c0.569,0.014 1.132,-0.124 1.63,-0.4c0.509,-0.324 0.904,-0.8 1.13,-1.36c0.063,-0.16 0.166,-0.301 0.3,-0.41c0.132,-0.08 0.286,-0.118 0.44,-0.11l2.88,0c0.107,-0.006 0.21,0.039 0.28,0.12c0.067,0.084 0.09,0.196 0.06,0.3c-0.33,1.449 -1.185,2.725 -2.4,3.58c-1.362,0.897 -2.971,1.344 -4.6,1.28Zm6.96,-0.2c-0.105,0.006 -0.207,-0.034 -0.28,-0.11c-0.067,-0.074 -0.103,-0.17 -0.1,-0.27c0.003,-0.077 0.023,-0.152 0.06,-0.22l7.38,-12.82c0.171,-0.352 0.529,-0.577 0.92,-0.58l3.24,0c0.023,-0.003 0.047,-0.004 0.07,-0.004c0.325,0 0.596,0.26 0.61,0.584l1.94,12.82c0.022,0.157 -0.022,0.316 -0.12,0.44c-0.09,0.105 -0.222,0.164 -0.36,0.16l-2.54,0c-0.025,0.004 -0.051,0.006 -0.077,0.006c-0.276,0 -0.512,-0.211 -0.543,-0.486l-0.32,-1.9l-5.22,0l-1.16,1.94c-0.154,0.274 -0.446,0.443 -0.76,0.44l-2.74,0Zm6.12,-5.38l3.56,0l-0.7,-5.1l-2.86,5.1Zm11.1,5.38c-0.129,0.008 -0.254,-0.044 -0.34,-0.14c-0.082,-0.1 -0.112,-0.234 -0.08,-0.36l2.18,-10.24l-3.52,0c-0.129,0.008 -0.254,-0.044 -0.34,-0.14c-0.082,-0.1 -0.112,-0.234 -0.08,-0.36l0.48,-2.24c0.026,-0.146 0.104,-0.277 0.22,-0.37c0.111,-0.096 0.253,-0.15 0.4,-0.15l10.86,0c0.131,-0.007 0.257,0.049 0.34,0.15c0.081,0.105 0.111,0.241 0.08,0.37l-0.5,2.24c-0.024,0.142 -0.099,0.27 -0.21,0.36c-0.109,0.092 -0.248,0.141 -0.39,0.14l-3.52,0l-2.2,10.24c-0.024,0.142 -0.099,0.27 -0.21,0.36c-0.109,0.092 -0.248,0.141 -0.39,0.14l-2.78,0Zm9.46,0c-0.128,0.009 -0.252,-0.048 -0.33,-0.15c-0.074,-0.101 -0.099,-0.229 -0.07,-0.35l2.78,-13c0.024,-0.141 0.098,-0.27 0.21,-0.36c0.109,-0.091 0.247,-0.141 0.39,-0.14l2.84,0c0.125,-0.003 0.246,0.048 0.33,0.14c0.087,0.098 0.121,0.233 0.09,0.36l-2.78,13c-0.025,0.144 -0.104,0.273 -0.22,0.36c-0.107,0.089 -0.241,0.138 -0.38,0.14l-2.86,0Zm12.04,0.2c-0.954,0.016 -1.901,-0.154 -2.79,-0.5c-0.776,-0.3 -1.452,-0.813 -1.95,-1.48c-0.495,-0.7 -0.747,-1.543 -0.72,-2.4c0.007,-0.355 0.04,-0.71 0.1,-1.06c0.227,-1.293 0.473,-2.447 0.74,-3.46c0.325,-1.599 1.173,-3.045 2.41,-4.11c1.342,-0.986 2.986,-1.478 4.65,-1.39c0.952,-0.014 1.897,0.163 2.78,0.52c0.785,0.314 1.465,0.845 1.96,1.53c0.492,0.713 0.744,1.564 0.72,2.43c-0.006,0.342 -0.039,0.683 -0.1,1.02c-0.187,1.08 -0.433,2.233 -0.74,3.46c-0.315,1.597 -1.166,3.04 -2.41,4.09c-1.353,0.962 -2.993,1.437 -4.65,1.35Zm0.3,-3c0.666,0.019 1.317,-0.205 1.83,-0.63c0.553,-0.513 0.928,-1.189 1.07,-1.93c0.293,-1.213 0.527,-2.307 0.7,-3.28c0.054,-0.27 0.08,-0.545 0.08,-0.82c0,-1.16 -0.607,-1.74 -1.82,-1.74c-0.666,-0.019 -1.317,0.205 -1.83,0.63c-0.553,0.513 -0.928,1.189 -1.07,1.93c-0.227,0.84 -0.467,1.933 -0.72,3.28c-0.054,0.27 -0.081,0.545 -0.08,0.82c0,1.16 0.613,1.74 1.84,1.74Zm8.36,2.8c-0.129,0.008 -0.254,-0.044 -0.34,-0.14c-0.082,-0.1 -0.112,-0.234 -0.08,-0.36l2.76,-12.98c0.025,-0.144 0.099,-0.275 0.21,-0.37c0.106,-0.097 0.246,-0.151 0.39,-0.15l2.24,0c0.27,-0.039 0.532,0.121 0.62,0.38l3.14,7.5l1.58,-7.36c0.025,-0.144 0.099,-0.275 0.21,-0.37c0.106,-0.097 0.246,-0.151 0.39,-0.15l2.54,0c0.128,-0.008 0.252,0.048 0.33,0.15c0.075,0.108 0.1,0.243 0.07,0.37l-2.76,12.96c-0.025,0.144 -0.099,0.275 -0.21,0.37c-0.106,0.097 -0.246,0.151 -0.39,0.15l-2.24,0c-0.142,0.013 -0.285,-0.026 -0.4,-0.11c-0.085,-0.08 -0.159,-0.17 -0.22,-0.27l-3.18,-7.2l-1.52,7.08c-0.025,0.144 -0.104,0.273 -0.22,0.36c-0.107,0.089 -0.241,0.138 -0.38,0.14l-2.54,0Z" style="fill:#f01d1d;fill-rule:nonzero;"/><path d="M318.381,142.523c-0.129,0.008 -0.254,-0.044 -0.34,-0.14c-0.082,-0.1 -0.112,-0.234 -0.08,-0.36l2.76,-12.98c0.025,-0.144 0.099,-0.275 0.21,-0.37c0.106,-0.097 0.246,-0.151 0.39,-0.15l2.24,0c0.27,-0.039 0.532,0.121 0.62,0.38l3.14,7.5l1.58,-7.36c0.025,-0.144 0.099,-0.275 0.21,-0.37c0.106,-0.097 0.246,-0.151 0.39,-0.15l2.54,0c0.128,-0.008 0.252,0.048 0.33,0.15c0.075,0.108 0.1,0.243 0.07,0.37l-2.76,12.96c-0.025,0.144 -0.099,0.275 -0.21,0.37c-0.106,0.097 -0.246,0.151 -0.39,0.15l-2.24,0c-0.142,0.013 -0.285,-0.026 -0.4,-0.11c-0.085,-0.08 -0.159,-0.17 -0.22,-0.27l-3.18,-7.2l-1.52,7.08c-0.025,0.144 -0.104,0.273 -0.22,0.36c-0.107,0.089 -0.241,0.138 -0.38,0.14l-2.54,0Zm14.34,0c-0.129,0.008 -0.254,-0.044 -0.34,-0.14c-0.082,-0.1 -0.112,-0.234 -0.08,-0.36l2.76,-12.98c0.026,-0.146 0.104,-0.277 0.22,-0.37c0.111,-0.096 0.253,-0.15 0.4,-0.15l9.44,0c0.128,-0.008 0.252,0.048 0.33,0.15c0.075,0.108 0.1,0.243 0.07,0.37l-0.42,1.98c-0.025,0.144 -0.104,0.273 -0.22,0.36c-0.113,0.091 -0.255,0.141 -0.4,0.14l-6.32,0l-0.56,2.54l5.9,0c0.128,-0.008 0.252,0.048 0.33,0.15c0.075,0.108 0.1,0.243 0.07,0.37l-0.38,1.82c-0.026,0.146 -0.104,0.277 -0.22,0.37c-0.111,0.097 -0.253,0.15 -0.4,0.15l-5.9,0l-0.54,2.6l6.48,0c0.128,-0.008 0.252,0.048 0.33,0.15c0.075,0.108 0.1,0.243 0.07,0.37l-0.42,1.98c-0.025,0.144 -0.104,0.273 -0.22,0.36c-0.107,0.089 -0.241,0.138 -0.38,0.14l-9.6,0Zm15.78,0c-0.129,0.008 -0.254,-0.044 -0.34,-0.14c-0.082,-0.1 -0.112,-0.234 -0.08,-0.36l2.18,-10.24l-3.52,0c-0.129,0.008 -0.254,-0.044 -0.34,-0.14c-0.082,-0.1 -0.112,-0.234 -0.08,-0.36l0.48,-2.24c0.026,-0.146 0.104,-0.277 0.22,-0.37c0.111,-0.096 0.253,-0.15 0.4,-0.15l10.86,0c0.131,-0.007 0.257,0.049 0.34,0.15c0.081,0.105 0.111,0.241 0.08,0.37l-0.5,2.24c-0.024,0.142 -0.099,0.27 -0.21,0.36c-0.109,0.092 -0.248,0.141 -0.39,0.14l-3.52,0l-2.2,10.24c-0.024,0.142 -0.099,0.27 -0.21,0.36c-0.109,0.092 -0.248,0.141 -0.39,0.14l-2.78,0Zm11.22,0c-0.186,0.011 -0.368,-0.058 -0.5,-0.19c-0.12,-0.125 -0.178,-0.297 -0.16,-0.47l0.44,-12.88c0.015,-0.124 0.076,-0.238 0.17,-0.32c0.094,-0.09 0.219,-0.141 0.35,-0.14l2.54,0c0.387,0 0.56,0.167 0.52,0.5l-0.34,7.44l2.28,-4.3c0.122,-0.315 0.422,-0.528 0.76,-0.54l1.5,0c0.013,-0.001 0.025,-0.001 0.038,-0.001c0.287,0 0.522,0.235 0.522,0.522c0,0.006 0,0.013 0,0.019l0.48,4.36l2.84,-7.54c0.035,-0.147 0.124,-0.276 0.25,-0.36c0.145,-0.074 0.307,-0.108 0.47,-0.1l2.7,0c0.092,-0.005 0.182,0.027 0.25,0.09c0.06,0.061 0.093,0.144 0.09,0.23c-0.005,0.062 -0.018,0.122 -0.04,0.18l-4.7,12.84c-0.08,0.187 -0.208,0.349 -0.37,0.47c-0.163,0.126 -0.364,0.193 -0.57,0.19l-2.06,0c-0.172,0.015 -0.343,-0.043 -0.47,-0.16c-0.096,-0.097 -0.156,-0.224 -0.17,-0.36l-1,-5.54l-2.94,5.54c-0.157,0.329 -0.496,0.534 -0.86,0.52l-2.02,0Zm20.28,0.2c-0.954,0.016 -1.901,-0.154 -2.79,-0.5c-0.776,-0.3 -1.452,-0.813 -1.95,-1.48c-0.495,-0.7 -0.747,-1.543 -0.72,-2.4c0.007,-0.355 0.04,-0.71 0.1,-1.06c0.227,-1.293 0.473,-2.447 0.74,-3.46c0.325,-1.599 1.173,-3.045 2.41,-4.11c1.342,-0.986 2.986,-1.478 4.65,-1.39c0.952,-0.014 1.897,0.163 2.78,0.52c0.785,0.314 1.465,0.845 1.96,1.53c0.492,0.713 0.744,1.564 0.72,2.43c-0.006,0.342 -0.039,0.683 -0.1,1.02c-0.187,1.08 -0.433,2.233 -0.74,3.46c-0.315,1.597 -1.166,3.04 -2.41,4.09c-1.353,0.962 -2.993,1.437 -4.65,1.35Zm0.3,-3c0.666,0.019 1.317,-0.205 1.83,-0.63c0.553,-0.513 0.928,-1.189 1.07,-1.93c0.293,-1.213 0.527,-2.307 0.7,-3.28c0.054,-0.27 0.08,-0.545 0.08,-0.82c0,-1.16 -0.607,-1.74 -1.82,-1.74c-0.666,-0.019 -1.317,0.205 -1.83,0.63c-0.553,0.513 -0.928,1.189 -1.07,1.93c-0.227,0.84 -0.467,1.933 -0.72,3.28c-0.054,0.27 -0.081,0.545 -0.08,0.82c0,1.16 0.613,1.74 1.84,1.74Zm8.62,2.8c-0.12,0.006 -0.235,-0.046 -0.31,-0.14c-0.076,-0.103 -0.101,-0.236 -0.07,-0.36l2.74,-12.98c0.026,-0.146 0.104,-0.277 0.22,-0.37c0.111,-0.096 0.253,-0.15 0.4,-0.15l5.5,0c1.238,-0.076 2.47,0.239 3.52,0.9c0.823,0.594 1.29,1.567 1.24,2.58c-0.003,0.37 -0.043,0.738 -0.12,1.1c-0.161,0.881 -0.555,1.702 -1.14,2.38c-0.583,0.66 -1.308,1.18 -2.12,1.52l1.66,4.88c0.025,0.071 0.032,0.146 0.02,0.22c-0.026,0.119 -0.094,0.226 -0.19,0.3c-0.093,0.077 -0.209,0.12 -0.33,0.12l-2.82,0c-0.336,0.027 -0.641,-0.208 -0.7,-0.54l-1.28,-4.34l-1.92,0l-0.94,4.38c-0.025,0.144 -0.104,0.273 -0.22,0.36c-0.113,0.091 -0.255,0.141 -0.4,0.14l-2.74,0Zm7.14,-7.82c0.502,0.023 0.997,-0.129 1.4,-0.43c0.368,-0.3 0.616,-0.722 0.7,-1.19c0.031,-0.151 0.044,-0.306 0.04,-0.46c0.016,-0.335 -0.116,-0.66 -0.36,-0.89c-0.306,-0.242 -0.692,-0.359 -1.08,-0.33l-2.22,0l-0.7,3.3l2.22,0Zm6.4,7.82c-0.129,0.008 -0.254,-0.044 -0.34,-0.14c-0.082,-0.1 -0.112,-0.234 -0.08,-0.36l2.76,-12.98c0.025,-0.144 0.099,-0.275 0.21,-0.37c0.106,-0.097 0.246,-0.151 0.39,-0.15l2.68,0c0.131,-0.007 0.257,0.049 0.34,0.15c0.081,0.105 0.111,0.241 0.08,0.37l-0.92,4.3l4.28,-4.42c0.206,-0.263 0.526,-0.412 0.86,-0.4l3.14,0c0.102,-0.007 0.202,0.033 0.27,0.11c0.061,0.077 0.093,0.172 0.09,0.27c0,0.106 -0.043,0.207 -0.12,0.28l-6.02,6.32l3.66,6.36c0.035,0.061 0.055,0.13 0.06,0.2c-0.003,0.125 -0.061,0.243 -0.16,0.32c-0.092,0.088 -0.213,0.137 -0.34,0.14l-2.96,0c-0.299,0.027 -0.585,-0.132 -0.72,-0.4l-2.86,-4.94l-1.04,4.84c-0.024,0.142 -0.099,0.27 -0.21,0.36c-0.103,0.089 -0.234,0.139 -0.37,0.14l-2.68,0Z" style="fill:#f01d1d;fill-rule:nonzero;"/><path d="M211.794,122.868c-7.549,0.043 -15.075,-0.816 -22.42,-2.558c-5.259,-1.202 -10.348,-3.056 -15.148,-5.517c-3.936,2.222 -8.114,3.984 -12.452,5.251c-6.625,1.915 -13.492,2.865 -20.388,2.82c-9.309,0 -17.624,-1.743 -24.715,-5.18c-3.422,-1.636 -6.608,-3.726 -9.473,-6.211c-5.52,-4.834 -9.494,-11.19 -11.423,-18.269c-0.989,-3.71 -1.48,-7.535 -1.459,-11.374c-0.026,-5.096 0.602,-10.175 1.869,-15.111c2.45,-9.354 7.496,-17.827 14.553,-24.437c3.574,-3.311 7.576,-6.128 11.9,-8.375c4.538,-2.365 9.363,-4.133 14.355,-5.261c5.358,-1.192 10.834,-1.78 16.323,-1.753c7.439,-0.126 14.846,1.019 21.9,3.386c6.068,2.1 11.569,5.577 16.07,10.157c3.851,-4.092 8.575,-7.265 13.82,-9.281c6.962,-2.828 15.299,-4.262 24.781,-4.262c6.415,-0.04 12.815,0.641 19.078,2.032c5.279,1.136 10.357,3.061 15.063,5.71l1.129,-5.642l98.99,0l20,32.433l-51.922,0l1.819,-9.095l-43.189,0l-1.775,9.095l-30.41,0l5.173,-25.863l-10.748,21.748c-3.668,-2.307 -7.671,-4.034 -11.866,-5.118c-4.347,-1.135 -8.821,-1.706 -13.313,-1.7c-4.262,0 -7.615,0.618 -9.964,1.836c-2.349,1.218 -3.54,2.673 -3.54,4.326c0,1.653 1.081,2.977 3.212,3.934c0.6,0.27 1.322,0.551 2.142,0.835l-36.3,0l0,-0.048c-0.013,-2.818 0.326,-5.626 1.011,-8.36l-10.84,8.408l-1.271,0c-2.359,-3.034 -5.376,-5.494 -8.823,-7.194c-3.679,-1.598 -7.66,-2.38 -11.669,-2.294c-4.889,-0.108 -9.717,1.116 -13.964,3.54c-3.952,2.342 -7.141,5.782 -9.178,9.9c-2.198,4.508 -3.3,9.472 -3.216,14.486c-0.035,2.508 0.424,4.999 1.349,7.331c0.904,2.182 2.281,4.135 4.032,5.72c1.846,1.665 4.025,2.919 6.391,3.68c2.724,0.856 5.568,1.271 8.424,1.23c3.063,0.01 6.112,-0.432 9.046,-1.312l4.7,-23.359l26.88,0l-4.2,21.154l1.863,-3.563c4.758,2.761 9.846,4.909 15.144,6.392c5.147,1.416 10.462,2.133 15.8,2.131c3.916,0 6.959,-0.485 9.046,-1.442c2.087,-0.957 3.148,-2.281 3.148,-3.934c0,-1.566 -1.081,-2.845 -3.212,-3.8c-3.295,-1.327 -6.694,-2.379 -10.162,-3.148c-5.166,-1.271 -10.246,-2.87 -15.209,-4.785c-4.05,-1.642 -7.665,-4.2 -10.56,-7.473c-0.435,-0.485 -0.841,-0.996 -1.215,-1.529l64.577,0c0.843,0.747 1.642,1.542 2.393,2.381c0.613,0.685 1.168,1.421 1.657,2.2l0.917,-4.583l69.227,0l-2.443,12.215l-38.941,0l-2.36,12.062l43.216,0l4.855,-24.277l90.468,0l-9.523,47.616l-25.437,0l-26.353,-42.741l-8.518,42.742l-103.715,0l1.97,-9.85c-3.597,3.305 -7.777,5.912 -12.328,7.687c-6.961,2.828 -15.254,4.261 -24.649,4.261Zm210.9,-61.444l-30.137,0l6.466,-32.431l30.156,0l-6.486,32.43l0.001,0.001Z" style="fill:#fff;fill-rule:nonzero;"/><g><path d="M41.522,119.02c-5.196,0 -10.237,-1.018 -14.983,-3.026c-4.584,-1.939 -8.7,-4.714 -12.234,-8.248c-3.535,-3.535 -6.31,-7.651 -8.249,-12.234c-2.007,-4.747 -3.025,-9.788 -3.025,-14.983c0,-5.196 1.018,-10.237 3.025,-14.983c1.939,-4.584 4.714,-8.7 8.249,-12.234c3.534,-3.535 7.65,-6.31 12.234,-8.248c4.746,-2.008 9.787,-3.026 14.983,-3.026c5.195,0 10.236,1.018 14.983,3.026c4.583,1.938 8.699,4.713 12.234,8.248c3.534,3.534 6.309,7.65 8.248,12.234c2.008,4.746 3.025,9.787 3.025,14.983c0,5.195 -1.017,10.236 -3.025,14.983c-1.939,4.583 -4.714,8.699 -8.248,12.234c-3.535,3.534 -7.651,6.309 -12.234,8.248c-4.747,2.008 -9.788,3.026 -14.983,3.026Zm-5.434,-10.677c1.78,0.344 3.598,0.518 5.434,0.518c1.836,0 3.653,-0.174 5.434,-0.518l-1.371,-0.815l-1.166,-0.694l0.574,-1.23l5.414,-11.608l0.352,-0.753l0.825,-0.102l12.699,-1.558l1.345,-0.165l0.659,2.899c1.788,-3.196 2.925,-6.696 3.362,-10.354l-1.198,1.046l-1.02,0.89l-0.99,-0.924l-9.349,-8.725l-0.608,-0.568l0.16,-0.816l2.454,-12.582l0.259,-1.328l1.347,0.121l1.548,0.139c-1.24,-1.331 -2.603,-2.54 -4.075,-3.613c-1.49,-1.086 -3.072,-2.019 -4.729,-2.788l0.633,1.479l0.532,1.246l-1.185,0.656l-11.179,6.194l-0.727,0.402l-0.727,-0.402l-11.18,-6.194l-1.185,-0.656l0.533,-1.246l0.632,-1.479c-1.654,0.769 -3.234,1.699 -4.723,2.784c-1.475,1.075 -2.84,2.286 -4.083,3.619l1.59,-0.141l1.351,-0.12l0.255,1.331l2.416,12.582l0.156,0.814l-0.606,0.566l-9.349,8.725l-0.99,0.924l-1.02,-0.89l-1.198,-1.046c0.437,3.658 1.574,7.158 3.363,10.354l0.358,-1.577l0.301,-1.322l14.044,1.723l0.825,0.102l0.351,0.753l5.415,11.608l0.573,1.23l-1.166,0.694l-1.37,0.815Zm13.739,-15.937l-1.09,0l-14.39,0l-1.087,0l-0.339,-1.034l-4.458,-13.619l-0.341,-1.04l0.886,-0.642l11.633,-8.431l0.881,-0.638l0.88,0.638l11.634,8.431l0.883,0.64l-0.337,1.038l-4.418,13.62l-0.337,1.037Z" style="fill:#f01d1d;fill-rule:nonzero;"/><path d="M41.522,43.538c-20.43,0 -36.991,16.561 -36.991,36.991c0,20.429 16.561,36.991 36.991,36.991c20.429,0 36.99,-16.562 36.99,-36.991c0,-20.43 -16.561,-36.991 -36.99,-36.991m9.143,8.582c6.072,1.947 11.309,5.806 15.022,10.909l-5.117,-0.458l-2.454,12.582l9.349,8.726l3.888,-3.392l0,0.042c0,6.416 -2.013,12.522 -5.739,17.599l-1.149,-5.056l-12.699,1.558l-5.414,11.608l4.46,2.653c-3.003,0.98 -6.147,1.47 -9.29,1.47c-3.146,0 -6.291,-0.491 -9.291,-1.47l4.46,-2.653l-5.414,-11.608l-12.699,-1.558l-1.149,5.056c-3.725,-5.077 -5.738,-11.183 -5.738,-17.599l0,-0.042l3.888,3.392l9.348,-8.726l-2.415,-12.582l-5.155,0.458c3.718,-5.111 8.961,-8.966 15.021,-10.909l-2.036,4.764l11.18,6.194l11.179,-6.194l-2.036,-4.764m-9.143,16.735l-11.634,8.431l4.459,13.62l14.39,0l4.418,-13.62l-11.633,-8.431m0,-28.317c5.397,0 10.635,1.058 15.567,3.144c4.762,2.014 9.039,4.897 12.71,8.569c3.672,3.672 6.555,7.948 8.57,12.711c2.086,4.932 3.143,10.169 3.143,15.567c0,5.397 -1.057,10.635 -3.143,15.567c-2.015,4.762 -4.898,9.039 -8.57,12.711c-3.671,3.671 -7.948,6.554 -12.71,8.569c-4.932,2.086 -10.17,3.144 -15.567,3.144c-5.398,0 -10.635,-1.058 -15.567,-3.144c-4.763,-2.015 -9.039,-4.898 -12.711,-8.569c-3.672,-3.672 -6.555,-7.949 -8.569,-12.711c-2.086,-4.932 -3.144,-10.17 -3.144,-15.567c0,-5.398 1.058,-10.635 3.144,-15.567c2.014,-4.763 4.897,-9.039 8.569,-12.711c3.672,-3.672 7.948,-6.555 12.711,-8.569c4.932,-2.086 10.169,-3.144 15.567,-3.144Zm17.376,19.542c-0.518,-0.441 -1.053,-0.863 -1.605,-1.265c-0.553,-0.403 -1.119,-0.784 -1.697,-1.142c-0.207,0.757 -0.708,1.429 -1.441,1.835l-11.179,6.194c-0.206,0.114 -0.422,0.202 -0.644,0.264c0.335,0.094 0.657,0.247 0.95,0.46l11.634,8.431c0.07,0.051 0.138,0.105 0.203,0.161c0.007,-0.146 0.024,-0.293 0.052,-0.439l2.455,-12.582c0.158,-0.81 0.631,-1.486 1.272,-1.917Zm-18.187,5.886c-0.221,-0.062 -0.437,-0.15 -0.643,-0.264l-11.18,-6.194c-0.733,-0.406 -1.234,-1.078 -1.44,-1.834c-0.577,0.356 -1.141,0.736 -1.692,1.137c-0.547,0.399 -1.079,0.817 -1.593,1.255c0.654,0.431 1.138,1.117 1.296,1.94l2.415,12.582c0.027,0.143 0.044,0.287 0.05,0.43c0.065,-0.056 0.133,-0.11 0.204,-0.161l11.633,-8.431c0.293,-0.213 0.615,-0.366 0.95,-0.46Zm26.754,20.913c-0.736,0 -1.472,-0.27 -2.047,-0.807l-9.266,-8.648c-0.012,0.263 -0.059,0.528 -0.143,0.788l-4.35,13.409l12.441,-1.527c0.124,-0.015 0.246,-0.022 0.368,-0.022c0.701,0 1.363,0.246 1.885,0.668c0.516,-1.253 0.934,-2.544 1.252,-3.865c-0.046,0.003 -0.093,0.004 -0.14,0.004Zm-36.039,4.747l-4.389,-13.407c-0.086,-0.262 -0.134,-0.529 -0.146,-0.795l-9.265,8.648c-0.576,0.537 -1.311,0.807 -2.048,0.807c-0.046,0 -0.093,-0.001 -0.14,-0.004c0.319,1.321 0.737,2.612 1.253,3.865c0.522,-0.422 1.183,-0.668 1.884,-0.668c0.122,0 0.245,0.007 0.368,0.022l12.483,1.532Zm17.311,2.28l-14.39,0c-0.033,0 -0.066,-0.001 -0.098,-0.002l5.161,11.066c0.352,0.755 0.364,1.587 0.092,2.316c0.67,0.05 1.344,0.075 2.02,0.075c0.676,0 1.349,-0.025 2.019,-0.075c-0.272,-0.729 -0.26,-1.561 0.092,-2.316l5.161,-11.065c-0.019,0.001 -0.038,0.001 -0.057,0.001Z" style="fill:#fff;fill-rule:nonzero;"/></g><path d="M111.552,31.596l-40.371,-28.35c-2.207,-1.548 -4.828,-2.399 -7.523,-2.445l-49.327,-0.794c-1.806,-0.11 -3.47,1.023 -4.029,2.743c-0.559,1.72 0.121,3.616 1.647,4.587l7.038,4.943c-2.447,1.563 -4.318,3.883 -5.325,6.607c-1.9,0.332 -3.466,1.692 -4.062,3.527c-0.541,1.665 -0.209,3.495 0.882,4.864l-10.106,17.137c-0.101,0.171 -0.184,0.353 -0.245,0.542c-0.458,1.409 0.325,2.945 1.733,3.403c0.002,0 0.003,0.001 0.005,0.001l9.022,2.931c0.001,0.001 0.003,0.001 0.004,0.002c1.409,0.458 2.944,-0.325 3.402,-1.734c0.062,-0.189 0.102,-0.385 0.121,-0.583l1.897,-19.804c1.689,-0.461 3.036,-1.745 3.577,-3.41c0.58,-1.783 0.151,-3.747 -1.118,-5.127c0.893,-2.341 2.839,-4.13 5.247,-4.823l28.299,19.877c2.207,1.546 4.828,2.398 7.522,2.444l49.327,0.794c1.806,0.111 3.472,-1.022 4.031,-2.743c0.559,-1.721 -0.122,-3.617 -1.648,-4.589Zm-51.796,11.947c-3.778,-0.063 -7.452,-1.257 -10.546,-3.426l-20.989,-14.739l-8.208,17.504c-1.847,5.683 10.477,14.781 27.527,20.321c17.049,5.539 32.367,5.421 34.213,-0.261l3.645,-18.986l-25.642,-0.413Z" style="fill:#f01d1d;fill-rule:nonzero;"/></g></svg>