<svg xmlns="http://www.w3.org/2000/svg" xmlns:xlink="http://www.w3.org/1999/xlink" width="264.005" height="179.876" viewBox="0 0 264.005 179.876"><defs><filter id="a" x="0" y="0" width="180.791" height="179.876" filterUnits="userSpaceOnUse"><feOffset dy="42" input="SourceAlpha"/><feGaussianBlur stdDeviation="25" result="b"/><feFlood flood-color="#edc1c1" flood-opacity="0.161"/><feComposite operator="in" in2="b"/><feComposite in="SourceGraphic"/></filter></defs><g transform="translate(-68.528 5.932)"><text transform="translate(162.705 68)" fill="#f01d1d" font-size="9" font-family="Rubik-BoldItalic, Rubik" font-weight="700" font-style="italic" letter-spacing="-0.005em"><tspan x="-16.304" y="0">GHANA</tspan></text><text transform="translate(200.758 68)" fill="#f01d1d" font-size="9" font-family="Rubik-BoldItalic, Rubik" font-weight="700" font-style="italic" letter-spacing="-0.005em"><tspan x="-18.45" y="0">SOCCER</tspan></text><text transform="translate(249.147 68)" fill="#f01d1d" font-size="9" font-family="Rubik-BoldItalic, Rubik" font-weight="700" font-style="italic" letter-spacing="-0.005em"><tspan x="-26.046" y="0">EDUCATION</tspan></text><text transform="translate(300.819 68)" fill="#f01d1d" font-size="9" font-family="Rubik-BoldItalic, Rubik" font-weight="700" font-style="italic" letter-spacing="-0.005em"><tspan x="-21.897" y="0">NETWORK</tspan></text><path d="M53.6,36.682A51.291,51.291,0,0,1,43.369,35.7,33.467,33.467,0,0,1,36.458,33.6,29.9,29.9,0,0,1,30.776,35.6a38.669,38.669,0,0,1-9.3,1.078A29.943,29.943,0,0,1,10.2,34.7a20,20,0,0,1-4.322-2.374,15.35,15.35,0,0,1-3.215-3.164,13.209,13.209,0,0,1-2-3.821A14.008,14.008,0,0,1,0,21a19.284,19.284,0,0,1,.853-5.775,18.005,18.005,0,0,1,2.557-5.1A20.7,20.7,0,0,1,7.492,5.882a25.346,25.346,0,0,1,5.428-3.2A30.618,30.618,0,0,1,19.471.67,39.75,39.75,0,0,1,26.918,0a35.141,35.141,0,0,1,9.993,1.294,19.774,19.774,0,0,1,7.332,3.882,17.539,17.539,0,0,1,6.3-3.547A35.337,35.337,0,0,1,61.852,0a46.291,46.291,0,0,1,8.7.777,27.6,27.6,0,0,1,6.872,2.182L77.944.8h45.163l9.124,12.4H108.542l.83-3.476h-19.7l-.81,3.476H74.984l2.36-9.885-4.9,8.313a21.272,21.272,0,0,0-5.414-1.955,28.3,28.3,0,0,0-6.072-.651,11.807,11.807,0,0,0-4.546.7c-1.072.465-1.615,1.022-1.615,1.654s.493,1.138,1.465,1.5c.274.1.6.21.977.319H40.677v-.019a10.923,10.923,0,0,1,.461-3.2L36.189,13.2h-.58a11.442,11.442,0,0,0-4.025-2.75,14.826,14.826,0,0,0-5.324-.877,14.212,14.212,0,0,0-6.371,1.353A9.946,9.946,0,0,0,15.7,14.708a10.559,10.559,0,0,0-1.465,5.537,5.972,5.972,0,0,0,2.453,4.986,8.5,8.5,0,0,0,2.916,1.41,14.436,14.436,0,0,0,3.844.47,16.782,16.782,0,0,0,4.127-.5l2.143-8.928H41.983l-1.918,8.085.85-1.362a33.1,33.1,0,0,0,6.909,2.443,32.1,32.1,0,0,0,7.208.814,12.072,12.072,0,0,0,4.127-.551c.953-.366,1.436-.872,1.436-1.5,0-.6-.493-1.087-1.465-1.453a33.79,33.79,0,0,0-4.636-1.2,65.65,65.65,0,0,1-6.939-1.829,13.138,13.138,0,0,1-4.816-2.857,6.648,6.648,0,0,1-.554-.584H71.648a12.39,12.39,0,0,1,1.092.91,6.464,6.464,0,0,1,.756.842l.418-1.752H105.5l-1.115,4.669H86.617L85.54,26.96h19.717l2.215-9.279h41.275L144.4,35.88H132.8L120.774,19.544,116.886,35.88H69.569l.9-3.765a18.759,18.759,0,0,1-5.625,2.938A35.118,35.118,0,0,1,53.6,36.682ZM149.817,13.2H136.068L139.018.8h13.758l-2.959,12.4Z" transform="translate(179.757 21.505)" fill="#fff"/><g transform="matrix(1, 0, 0, 1, 68.53, -5.93)" filter="url(#a)"><g transform="translate(67.8 25.8)" fill="#f01d1d" stroke-linejoin="round"><path d="M 22.59563064575195 36.67565536499023 C 18.5925407409668 36.67565536499023 14.82842063903809 35.16504669189453 11.99665069580078 32.42209625244141 C 9.161430358886719 29.67580413818359 7.600000858306885 26.02344512939453 7.600000858306885 22.13782501220703 C 7.600000858306885 18.25220489501953 9.161430358886719 14.59984493255615 11.99665069580078 11.85354518890381 C 14.82842063903809 9.110605239868164 18.5925407409668 7.599995136260986 22.59563064575195 7.599995136260986 C 26.59872055053711 7.599995136260986 30.36284065246582 9.110605239868164 33.19461059570312 11.85354518890381 C 36.02983093261719 14.59984493255615 37.59125900268555 18.25220489501953 37.59125900268555 22.13782501220703 C 37.59125900268555 26.02344512939453 36.02983093261719 29.67580413818359 33.19461059570312 32.42209625244141 C 30.36284065246582 35.16504669189453 26.59872055053711 36.67565536499023 22.59563064575195 36.67565536499023 Z M 19.9627513885498 32.84449768066406 C 20.8206901550293 33.04050064086914 21.70279312133789 33.13953399658203 22.59570121765137 33.13953399658203 C 23.4885196685791 33.13953399658203 24.37057304382324 33.04050064086914 25.2284984588623 32.84449768066406 L 24.30183982849121 32.31059646606445 L 23.97997093200684 32.12514495849609 L 24.14113998413086 31.79046440124512 L 26.2775707244873 27.35381507873535 L 26.3727912902832 27.15605545043945 L 26.59074974060059 27.13015556335449 L 31.60142135620117 26.53459548950195 L 31.95639991760254 26.49239540100098 L 32.03805160522461 26.84042549133301 L 32.28664779663086 27.89996147155762 C 33.23142623901367 26.42078971862793 33.79109191894531 24.75774574279785 33.93130874633789 23.01294708251953 L 33.09037017822266 23.72365570068359 L 32.82329940795898 23.94935417175293 L 32.56391906738281 23.71486473083496 L 28.87505149841309 20.37993431091309 L 28.70625114440918 20.22732543945312 L 28.75117111206055 20.0042552947998 L 29.71954154968262 15.19540500640869 L 29.79011154174805 14.8449649810791 L 30.146240234375 14.87586498260498 L 31.2226390838623 14.96924018859863 C 30.04942512512207 13.64544773101807 28.59365463256836 12.62360858917236 26.94327354431152 11.96570301055908 L 27.3728199005127 12.93919467926025 L 27.52231979370117 13.27801513671875 L 27.19600105285645 13.453125 L 22.78477096557617 15.82041454315186 L 22.59563064575195 15.92192459106445 L 22.40649032592773 15.82042503356934 L 17.9952507019043 13.4531946182251 L 17.66893005371094 13.27807521820068 L 17.81842994689941 12.93925476074219 L 18.24798774719238 11.96575546264648 C 16.59734535217285 12.62375640869141 15.14137554168701 13.64580821990967 13.96805667877197 14.96992588043213 L 15.0606803894043 14.87583541870117 L 15.41771030426025 14.84509468078613 L 15.48737049102783 15.19660472869873 L 16.44033050537109 20.00545501708984 L 16.48441123962402 20.22787475585938 L 16.31620979309082 20.37993431091309 L 12.62740039825439 23.71486473083496 L 12.36802101135254 23.94936561584473 L 12.10095024108887 23.72365570068359 L 11.25973224639893 23.01270866394043 C 11.39956283569336 24.75600433349609 11.95932388305664 26.41998100280762 12.90460968017578 27.89995574951172 L 13.15321063995361 26.84042549133301 L 13.23486042022705 26.49239540100098 L 13.58984088897705 26.53459548950195 L 18.60050010681152 27.13015556335449 L 18.81846046447754 27.15605545043945 L 18.91368103027344 27.35381507873535 L 21.05010986328125 31.79046440124512 L 21.21128082275391 32.12514495849609 L 20.8894100189209 32.31059646606445 L 19.9627513885498 32.84449768066406 Z M 25.73047065734863 26.50387573242188 L 25.44260025024414 26.50387573242188 L 19.7646598815918 26.50387573242188 L 19.47762107849121 26.50387573242188 L 19.38572120666504 26.23195457458496 L 17.6263599395752 21.02650451660156 L 17.53054046630859 20.74299430847168 L 17.77547073364258 20.571044921875 L 22.36580085754395 17.34858512878418 L 22.59563064575195 17.1872444152832 L 22.82546043395996 17.34858512878418 L 27.41578102111816 20.571044921875 L 27.66001129150391 20.74249458312988 L 27.56524085998535 21.02545547485352 L 25.82188987731934 26.23090553283691 L 25.73047065734863 26.50387573242188 Z" stroke="none"/><path d="M 22.59563064575195 7.999996185302734 C 14.53466033935547 7.999996185302734 8 14.3296947479248 8 22.13782501220703 C 8 29.94594573974609 14.53466033935547 36.2756462097168 22.59563064575195 36.2756462097168 C 30.65658950805664 36.2756462097168 37.19126129150391 29.94594573974609 37.19126129150391 22.13782501220703 C 37.19126129150391 14.3296947479248 30.65658950805664 7.999996185302734 22.59563064575195 7.999996185302734 M 26.20346069335938 11.27991485595703 C 28.59908103942871 12.02397537231445 30.66572189331055 13.49892425537109 32.13051986694336 15.44949531555176 L 30.11167144775391 15.27436447143555 L 29.14330101013184 20.08321571350098 L 32.83216857910156 23.41814422607422 L 34.36611938476562 22.12174415588379 L 34.36630249023438 22.13782501220703 C 34.36630249023438 24.58998489379883 33.57195281982422 26.92370414733887 32.10202026367188 28.86417388916016 L 31.64863204956055 26.93179512023926 L 26.63796043395996 27.5273551940918 L 24.50152969360352 31.96400451660156 L 26.26136016845703 32.97793579101562 C 25.07657432556152 33.35251617431641 23.83586692810059 33.53952789306641 22.59569931030273 33.53952789306641 C 21.35431861877441 33.53952789306641 20.11347770690918 33.35214233398438 18.92989158630371 32.97793579101562 L 20.68972015380859 31.96400451660156 L 18.55327987670898 27.5273551940918 L 13.54263114929199 26.93179512023926 L 13.0892219543457 28.86417388916016 C 11.61936187744141 26.92370414733887 10.82501983642578 24.58998489379883 10.82501983642578 22.13782501220703 L 10.82519149780273 22.12174415588379 L 12.35914993286133 23.41814422607422 L 16.04796028137207 20.08321571350098 L 15.09500122070312 15.27436447143555 L 13.06074142456055 15.44954490661621 C 14.52789115905762 13.49584579467773 16.59653091430664 12.02266311645508 18.98780059814453 11.27997589111328 L 18.18439102172852 13.10073471069336 L 22.59563064575195 15.46796417236328 L 27.00686073303223 13.10067558288574 L 26.20346069335938 11.27991485595703 M 22.59563064575195 17.67596435546875 L 18.00530052185059 20.89842414855957 L 19.7646598815918 26.10387420654297 L 25.44260025024414 26.10387420654297 L 27.18595123291016 20.89842414855957 L 22.59563064575195 17.67596435546875 M 22.59563064575195 7.199993133544922 C 26.70316123962402 7.199993133544922 30.56612014770508 8.750625610351562 33.4729118347168 11.56623458862305 C 36.38661193847656 14.3885440826416 37.99126052856445 18.1429443359375 37.99126052856445 22.13782501220703 C 37.99126052856445 26.13270568847656 36.38661193847656 29.8870964050293 33.4729118347168 32.70940399169922 C 30.56612014770508 35.52501678466797 26.70316123962402 37.07564544677734 22.59563064575195 37.07564544677734 C 18.48810005187988 37.07564544677734 14.62514114379883 35.52501678466797 11.71834945678711 32.70940399169922 C 8.804649353027344 29.8870964050293 7.200000762939453 26.13270568847656 7.200000762939453 22.13782501220703 C 7.200000762939453 18.1429443359375 8.804649353027344 14.3885440826416 11.71834945678711 11.56623458862305 C 14.62514114379883 8.750625610351562 18.48809051513672 7.199993133544922 22.59563064575195 7.199993133544922 Z M 30.1840763092041 14.47763824462891 C 29.45000076293945 13.79548835754395 28.62685775756836 13.21963882446289 27.73193359375 12.76220703125 L 27.7387809753418 12.77772521972656 C 27.90750122070312 13.16011428833008 27.75343132019043 13.60794448852539 27.38515090942383 13.80558586120605 L 22.97392082214355 16.17287445068359 C 22.85579109191895 16.23627090454102 22.72570991516113 16.26796722412109 22.59563255310059 16.26796722412109 C 22.46555328369141 16.26796722412109 22.33547592163086 16.23627090454102 22.21735000610352 16.17287445068359 L 17.80611038208008 13.80564498901367 C 17.43782043457031 13.6080150604248 17.28374099731445 13.16017532348633 17.45248031616211 12.77777481079102 L 17.45618438720703 12.76938056945801 C 16.56953048706055 13.22679328918457 15.74531745910645 13.80358695983887 15.01391792297363 14.47838592529297 L 15.0263614654541 14.47731590270996 C 15.04957962036133 14.47531509399414 15.0727367401123 14.47433280944824 15.09565544128418 14.47433090209961 C 15.47391319274902 14.47430038452148 15.80497169494629 14.74157524108887 15.87973976135254 15.11885452270508 L 16.83270072937012 19.92770576477051 C 16.88738059997559 20.20363426208496 16.79313087463379 20.48800468444824 16.5844612121582 20.67664527893066 L 12.89564895629883 24.01157569885254 C 12.74357604980469 24.14906692504883 12.55144500732422 24.2181453704834 12.35909271240234 24.2181453704834 C 12.17568206787109 24.2181453704834 11.9920654296875 24.15534400939941 11.8427619934082 24.02916526794434 L 11.78895950317383 23.98369598388672 C 11.96704864501953 24.97231101989746 12.28870010375977 25.92528915405273 12.74680709838867 26.82138061523438 L 12.7637825012207 26.74904441833496 C 12.84945297241211 26.38394355773926 13.17512893676758 26.13174819946289 13.54192924499512 26.13173675537109 C 13.57338333129883 26.13173484802246 13.60511779785156 26.13358879089355 13.63705062866211 26.13738441467285 L 18.64770126342773 26.73294448852539 C 18.91921043395996 26.76521492004395 19.15544128417969 26.93391418457031 19.27406120300293 27.18026542663574 L 21.41050148010254 31.61691474914551 C 21.5884895324707 31.98653602600098 21.4577579498291 32.42929840087891 21.11136817932129 32.64387512207031 C 21.60093879699707 32.70751953125 22.09651374816895 32.73952484130859 22.59570121765137 32.73952484130859 C 23.09483337402344 32.73952484130859 23.5903377532959 32.70751953125 24.07988166809082 32.64387512207031 C 23.73349380493164 32.42929840087891 23.60276031494141 31.98653602600098 23.7807502746582 31.61691474914551 L 25.91718101501465 27.18026542663574 C 26.03580093383789 26.93391418457031 26.27202987670898 26.76521492004395 26.54354095458984 26.73294448852539 L 31.5542106628418 26.13738441467285 C 31.58612060546875 26.13359260559082 31.61790084838867 26.13173866271973 31.64933013916016 26.13173675537109 C 32.01616287231445 26.1317138671875 32.34181213378906 26.38392066955566 32.42748260498047 26.74905586242676 L 32.4444580078125 26.8214225769043 C 32.90258026123047 25.92533874511719 33.22426605224609 24.97230339050293 33.40235900878906 23.98368644714355 L 33.34856033325195 24.02915573120117 C 33.19926071166992 24.15533828735352 33.0156364440918 24.21814346313477 32.83222579956055 24.21814346313477 C 32.63986968994141 24.21814346313477 32.44775390625 24.14907073974609 32.29566955566406 24.0115852355957 L 28.6068000793457 20.67665481567383 C 28.39748001098633 20.4874153137207 28.30334091186523 20.201904296875 28.35904121398926 19.92528533935547 L 29.32741165161133 15.11643409729004 C 29.40314865112305 14.74032211303711 29.73373794555664 14.47432708740234 30.11101913452148 14.47432708740234 C 30.13414001464844 14.47432708740234 30.15738868713379 14.47532272338867 30.18081092834473 14.47735595703125 L 30.1840763092041 14.47763824462891 Z M 22.59563064575195 16.8759651184082 C 22.75649642944336 16.8759651184082 22.91736030578613 16.92437553405762 23.0552806854248 17.02119445800781 L 27.64560127258301 20.24365425109863 C 27.93537139892578 20.44707489013672 28.05697059631348 20.81676483154297 27.94454002380371 21.15248489379883 L 26.20119094848633 26.35793495178223 C 26.09197044372559 26.68405532836914 25.78653144836426 26.90387535095215 25.44260025024414 26.90387535095215 L 19.7646598815918 26.90387535095215 C 19.42155075073242 26.90387535095215 19.11664009094238 26.6850757598877 19.00678062438965 26.36002540588379 L 17.24742126464844 21.15457534790039 C 17.13379096984863 20.81840515136719 17.25521087646484 20.44754409790039 17.54565048217773 20.24365425109863 L 22.1359806060791 17.02119445800781 C 22.27390098571777 16.92437553405762 22.43476486206055 16.8759651184082 22.59563064575195 16.8759651184082 Z" stroke="none" fill="#fff"/>
</g></g><path d="M41.334,5.4,22.835.016a5.446,5.446,0,0,0-3.112.029L1.119,5.771a1.517,1.517,0,0,0-.028,2.955l3.225.938A5.127,5.127,0,0,0,3.1,12.715,2.088,2.088,0,0,0,1.99,14.5,1.979,1.979,0,0,0,2.9,16.152L1.128,23.614a1.023,1.023,0,0,0,1.026,1.252l3.732-.035A1.066,1.066,0,0,0,6.936,23.56L5.309,16.13a2.068,2.068,0,0,0,.938-1.671,1.99,1.99,0,0,0-1.025-1.732,3.111,3.111,0,0,1,1.4-2.393L19.59,14.109A5.447,5.447,0,0,0,22.7,14.08l18.6-5.726A1.517,1.517,0,0,0,41.334,5.4ZM23.308,16.057a7.625,7.625,0,0,1-4.362.04L9.328,13.3,8.316,20.661c-.022,2.291,5.677,4.1,12.73,4.03s12.787-1.975,12.808-4.266L32.98,13.08Z" transform="translate(148.915 5.395) rotate(18)" fill="#f01d1d"/>
</g>
</svg>
