<svg xmlns="http://www.w3.org/2000/svg" viewBox="0 0 41.251 41.254"><defs><style>.a{fill:#fff;}</style></defs><path class="a" d="M41.09,54.018a3.351,3.351,0,0,0-4.232-2.108L32.677,53.3l-2.789-8.284,4.18-1.389a3.339,3.339,0,0,0-2.117-6.334l-4.18,1.389-1.447-4.325a3.347,3.347,0,1,0-6.351,2.117L21.419,40.8l-8.6,2.874-1.446-4.331a3.347,3.347,0,1,0-6.351,2.117L6.47,45.788,2.3,47.169A3.346,3.346,0,0,0,.181,51.395a3.452,3.452,0,0,0,3.093,2.264c.625.092,1.1-.147,5.312-1.547l2.79,8.286L7.2,61.788a3.357,3.357,0,0,0-2.117,4.226,3.452,3.452,0,0,0,3.093,2.264c.625.092,1.1-.147,5.312-1.547l1.446,4.327a3.42,3.42,0,0,0,4.235,2.108A3.346,3.346,0,0,0,21.28,68.94l-1.446-4.327,8.622-2.881L29.9,66.059a3.42,3.42,0,0,0,4.235,2.108,3.346,3.346,0,0,0,2.117-4.226l-1.446-4.327,4.175-1.391a3.317,3.317,0,0,0,2.108-4.2ZM17.7,58.363l-2.789-8.3,8.607-2.881,2.789,8.3Z" transform="translate(-0.011 -32.067)"/></svg>