<svg xmlns="http://www.w3.org/2000/svg" viewBox="0 0 50.574 41.075"><defs><style>.a{fill:#fff;}</style></defs><g transform="translate(-454.949 216)"><path class="a" d="M45.375,58.319c.032.449.032.9.032,1.348,0,13.7-10.429,29.491-29.491,29.491A29.291,29.291,0,0,1,0,84.5a21.443,21.443,0,0,0,2.5.128A20.758,20.758,0,0,0,15.371,80.2,10.383,10.383,0,0,1,5.68,73.016a13.071,13.071,0,0,0,1.958.16,10.962,10.962,0,0,0,2.728-.353A10.366,10.366,0,0,1,2.054,62.651v-.128a10.439,10.439,0,0,0,4.685,1.316A10.381,10.381,0,0,1,3.53,49.975,29.462,29.462,0,0,0,24.9,60.822a11.7,11.7,0,0,1-.257-2.375,10.375,10.375,0,0,1,17.938-7.092,20.407,20.407,0,0,0,6.578-2.5,10.337,10.337,0,0,1-4.557,5.712,20.779,20.779,0,0,0,5.969-1.6A22.281,22.281,0,0,1,45.375,58.319Z" transform="translate(454.949 -264.082)"/></g></svg>