<svg xmlns="http://www.w3.org/2000/svg" viewBox="0 0 127.642 127.727"><defs><style>.a{fill:#f9f9f9;}</style></defs><g transform="translate(-0.168)"><g transform="translate(0.168)"><path class="a" d="M125.23,43.822l-3.773-5.914-2.808,6.428a17.225,17.225,0,0,1-7.189,8.02c-2.623,1.745-2.535,1.78-5.491,5.363-1.705,2.066-3.315,4.017-4.807,5.514a12.705,12.705,0,0,1-2.224,1.877,10.422,10.422,0,0,1-.811-2.214c-.3-1.118-1.21-4.52-4.326-5.529-3.218-1.043-6.007,1.223-8.466,3.221-.648.527-1.006.266-1.123.181-.4-.291-.663-1.01-.214-2.158.011-.029,2.953-5.757,2.966-5.782-3.334-1.433-3.68-1.852-6.949-2.777,6.752-10.074,10.144-15.3,10.144-23.869a26.182,26.182,0,1,0-52.365,0c0,6.452,1.923,11,5.754,17.157-7.742-1.2-15.647-2.38-22.845-3.455-11.323-1.69-11.65-1.75-14.921-2.243-.612,3.5-.69,4.721-2.937,16.439C.111,68.33-1.695,77.744,3.4,86.288c4.634,7.775,14.483,14.2,37.64,24.565,8.928,4,11,6.435,13,8.794a23.418,23.418,0,0,0,6.219,5.5l4.126,2.528c1.229-4.317,1.579-4.613,2.453-8.957a11.823,11.823,0,0,1,.582-2.278,5.64,5.64,0,0,1,2.4-.671,142.85,142.85,0,0,0,14.343-3.046c4.851-1.243,6.884-1.716,8.478-.938,2.156,1.051,5.011,4.7,9.525,11.07l3.455,4.874,2.875-5.237a13.3,13.3,0,0,0,.756-12.526c-2.564-6.093-1.135-8.512,1.232-12.521,2.057-3.482,4.616-7.816,4.558-14.889a18.2,18.2,0,0,1,6.3-14.581c1.785-1.544,2.747-4.168,4.01-7.994a31.33,31.33,0,0,1,1.205-3.3C128.589,52.616,128.157,48.411,125.23,43.822ZM63.976,7.481a18.723,18.723,0,0,1,18.7,18.7c0,6.465-2.526,10.232-9.276,20.3-2.609,3.892-5.719,8.53-9.426,14.456-3.721-5.95-6.837-10.6-9.452-14.5-6.732-10.044-9.25-13.8-9.25-20.255A18.723,18.723,0,0,1,63.976,7.481Zm54.266,50.152a26.176,26.176,0,0,1-1.875,4.747,25.7,25.7,0,0,0-8.808,20.236c.041,5-1.688,7.924-3.519,11.023-2.311,3.913-4.889,8.276-2.958,15.551a17.454,17.454,0,0,0-5.165-4.131c-4.13-2.014-7.9-1.048-13.614.415a134.516,134.516,0,0,1-13.641,2.9c-4.526.707-7.469,2.277-8.68,6.718l-.242-.285c-2.423-2.857-5.169-6.095-15.648-10.784C22.8,94.5,13.515,88.654,9.822,82.458c-3.635-6.1-2.213-13.512.368-26.968.545-2.839,1.143-5.959,1.743-9.353,2.438.366,5.006.75,7.664,1.146,9.286,1.387,19.75,2.949,29.5,4.5,3.148,4.7,6.99,10.492,11.674,18.229l3.2,5.284,3.2-5.284c3.19-5.268,5.991-9.635,8.45-13.372q.573.138,1.063.264A9,9,0,0,0,79.8,66.811a8.31,8.31,0,0,0,10.253-.417c.283-.231.663-.539,1.049-.839.62,2.125,2.162,6.265,6.113,7.124,5.533,1.2,10.377-5.174,14.524-10.2,2.687-3.255,2.191-2.783,3.865-3.9.865-.576,1.922-1.279,3.053-2.2C118.519,56.793,118.382,57.21,118.242,57.633Z" transform="translate(-0.168)"/></g><g transform="translate(52.755 14.962)"><path class="a" d="M222.187,59.975A11.221,11.221,0,1,0,233.408,71.2,11.234,11.234,0,0,0,222.187,59.975Zm0,14.961a3.74,3.74,0,1,1,3.74-3.74A3.745,3.745,0,0,1,222.187,74.936Z" transform="translate(-210.966 -59.975)"/></g></g></svg>