<svg xmlns="http://www.w3.org/2000/svg" viewBox="0 0 198.092 138.664"><defs><style>.a{fill:#f9f9f9;}</style></defs><path class="a" d="M29.714,91.427A19.809,19.809,0,1,0,9.9,71.618,19.827,19.827,0,0,0,29.714,91.427Zm138.664,0a19.809,19.809,0,1,0-19.809-19.809A19.828,19.828,0,0,0,168.378,91.427Zm9.9,9.9H158.473a19.751,19.751,0,0,0-13.959,5.757,45.274,45.274,0,0,1,23.245,33.861h20.428a9.894,9.894,0,0,0,9.9-9.9v-9.9A19.827,19.827,0,0,0,178.282,101.332Zm-79.237,0A34.666,34.666,0,1,0,64.38,66.666,34.649,34.649,0,0,0,99.046,101.332Zm23.771,9.9h-2.569a47.862,47.862,0,0,1-42.4,0H75.275a35.666,35.666,0,0,0-35.656,35.656v8.914a14.861,14.861,0,0,0,14.857,14.857h89.141a14.861,14.861,0,0,0,14.857-14.857v-8.914A35.666,35.666,0,0,0,122.817,111.237Zm-69.239-4.148a19.751,19.751,0,0,0-13.959-5.757H19.809A19.827,19.827,0,0,0,0,121.141v9.9a9.894,9.894,0,0,0,9.9,9.9H30.3a45.388,45.388,0,0,1,23.276-33.861Z" transform="translate(0 -32)"/></svg>