<svg xmlns="http://www.w3.org/2000/svg" viewBox="0 0 58.65 41.238"><defs><style>.a{fill:#fff;}</style></defs><path class="a" d="M72.358,70.452a7.369,7.369,0,0,0-5.185-5.219C62.6,64,44.258,64,44.258,64s-18.34,0-22.914,1.233a7.37,7.37,0,0,0-5.185,5.219c-1.226,4.6-1.226,14.208-1.226,14.208s0,9.6,1.226,14.208A7.26,7.26,0,0,0,21.344,104c4.574,1.234,22.914,1.234,22.914,1.234s18.34,0,22.914-1.233a7.26,7.26,0,0,0,5.185-5.136c1.226-4.6,1.226-14.208,1.226-14.208S73.583,75.056,72.358,70.452ZM38.26,93.381V75.94l15.329,8.721L38.26,93.381Z" transform="translate(-14.933 -64)"/></svg>